G04 #@! TF.FileFunction,Copper,L2,Bot,Signal*
%FSLAX46Y46*%
G04 Gerber Fmt 4.6, Leading zero omitted, Abs format (unit mm)*
G04 Created by KiCad (PCBNEW 4.0.7) date 07/09/18 17:43:36*
%MOMM*%
%LPD*%
G01*
G04 APERTURE LIST*
%ADD10C,0.100000*%
%ADD11C,0.300000*%
%ADD12R,3.000000X3.000000*%
%ADD13C,3.000000*%
%ADD14C,1.600000*%
%ADD15R,1.600000X1.600000*%
%ADD16R,1.700000X1.700000*%
%ADD17O,1.700000X1.700000*%
%ADD18R,1.750000X1.750000*%
%ADD19C,1.750000*%
%ADD20O,1.600000X1.600000*%
%ADD21C,2.500000*%
%ADD22C,1.440000*%
%ADD23C,2.000000*%
%ADD24C,1.500000*%
%ADD25R,1.600000X2.400000*%
%ADD26O,1.600000X2.400000*%
%ADD27R,2.400000X2.400000*%
%ADD28O,2.400000X2.400000*%
%ADD29R,1.800000X1.800000*%
%ADD30O,1.800000X1.800000*%
%ADD31C,2.400000*%
%ADD32C,1.800000*%
%ADD33C,2.000000*%
%ADD34C,1.800000*%
%ADD35C,0.500000*%
%ADD36C,1.700000*%
%ADD37C,1.000000*%
%ADD38C,0.254000*%
G04 APERTURE END LIST*
D10*
D11*
X155140287Y-147195143D02*
X154926001Y-147266571D01*
X154568858Y-147266571D01*
X154426001Y-147195143D01*
X154354572Y-147123714D01*
X154283144Y-146980857D01*
X154283144Y-146838000D01*
X154354572Y-146695143D01*
X154426001Y-146623714D01*
X154568858Y-146552286D01*
X154854572Y-146480857D01*
X154997430Y-146409429D01*
X155068858Y-146338000D01*
X155140287Y-146195143D01*
X155140287Y-146052286D01*
X155068858Y-145909429D01*
X154997430Y-145838000D01*
X154854572Y-145766571D01*
X154497430Y-145766571D01*
X154283144Y-145838000D01*
X153854573Y-146266571D02*
X153283144Y-146266571D01*
X153640287Y-145766571D02*
X153640287Y-147052286D01*
X153568859Y-147195143D01*
X153426001Y-147266571D01*
X153283144Y-147266571D01*
X152211716Y-147195143D02*
X152354573Y-147266571D01*
X152640287Y-147266571D01*
X152783144Y-147195143D01*
X152854573Y-147052286D01*
X152854573Y-146480857D01*
X152783144Y-146338000D01*
X152640287Y-146266571D01*
X152354573Y-146266571D01*
X152211716Y-146338000D01*
X152140287Y-146480857D01*
X152140287Y-146623714D01*
X152854573Y-146766571D01*
X151497430Y-147266571D02*
X151497430Y-146266571D01*
X151497430Y-146552286D02*
X151426002Y-146409429D01*
X151354573Y-146338000D01*
X151211716Y-146266571D01*
X151068859Y-146266571D01*
X150354573Y-147266571D02*
X150497431Y-147195143D01*
X150568859Y-147123714D01*
X150640288Y-146980857D01*
X150640288Y-146552286D01*
X150568859Y-146409429D01*
X150497431Y-146338000D01*
X150354573Y-146266571D01*
X150140288Y-146266571D01*
X149997431Y-146338000D01*
X149926002Y-146409429D01*
X149854573Y-146552286D01*
X149854573Y-146980857D01*
X149926002Y-147123714D01*
X149997431Y-147195143D01*
X150140288Y-147266571D01*
X150354573Y-147266571D01*
X149354573Y-146266571D02*
X149068859Y-147266571D01*
X148783145Y-146552286D01*
X148497430Y-147266571D01*
X148211716Y-146266571D01*
X147640287Y-146266571D02*
X147640287Y-147266571D01*
X147640287Y-146409429D02*
X147568859Y-146338000D01*
X147426001Y-146266571D01*
X147211716Y-146266571D01*
X147068859Y-146338000D01*
X146997430Y-146480857D01*
X146997430Y-147266571D01*
X146283144Y-147266571D02*
X146283144Y-146266571D01*
X146283144Y-145766571D02*
X146354573Y-145838000D01*
X146283144Y-145909429D01*
X146211716Y-145838000D01*
X146283144Y-145766571D01*
X146283144Y-145909429D01*
X145568858Y-147266571D02*
X145568858Y-145766571D01*
X145426001Y-146695143D02*
X144997430Y-147266571D01*
X144997430Y-146266571D02*
X145568858Y-146838000D01*
X143283144Y-147195143D02*
X143140287Y-147266571D01*
X142854572Y-147266571D01*
X142711715Y-147195143D01*
X142640287Y-147052286D01*
X142640287Y-146980857D01*
X142711715Y-146838000D01*
X142854572Y-146766571D01*
X143068858Y-146766571D01*
X143211715Y-146695143D01*
X143283144Y-146552286D01*
X143283144Y-146480857D01*
X143211715Y-146338000D01*
X143068858Y-146266571D01*
X142854572Y-146266571D01*
X142711715Y-146338000D01*
X141997429Y-147266571D02*
X141997429Y-146266571D01*
X141997429Y-145766571D02*
X142068858Y-145838000D01*
X141997429Y-145909429D01*
X141926001Y-145838000D01*
X141997429Y-145766571D01*
X141997429Y-145909429D01*
X141068857Y-147266571D02*
X141211715Y-147195143D01*
X141283143Y-147052286D01*
X141283143Y-145766571D01*
X140497429Y-146266571D02*
X140497429Y-147266571D01*
X140497429Y-146409429D02*
X140426001Y-146338000D01*
X140283143Y-146266571D01*
X140068858Y-146266571D01*
X139926001Y-146338000D01*
X139854572Y-146480857D01*
X139854572Y-147266571D01*
X139140286Y-147266571D02*
X139140286Y-146266571D01*
X139140286Y-145766571D02*
X139211715Y-145838000D01*
X139140286Y-145909429D01*
X139068858Y-145838000D01*
X139140286Y-145766571D01*
X139140286Y-145909429D01*
X138426000Y-147266571D02*
X138426000Y-145766571D01*
X138283143Y-146695143D02*
X137854572Y-147266571D01*
X137854572Y-146266571D02*
X138426000Y-146838000D01*
X136568857Y-147266571D02*
X136568857Y-146480857D01*
X136640286Y-146338000D01*
X136783143Y-146266571D01*
X137068857Y-146266571D01*
X137211714Y-146338000D01*
X136568857Y-147195143D02*
X136711714Y-147266571D01*
X137068857Y-147266571D01*
X137211714Y-147195143D01*
X137283143Y-147052286D01*
X137283143Y-146909429D01*
X137211714Y-146766571D01*
X137068857Y-146695143D01*
X136711714Y-146695143D01*
X136568857Y-146623714D01*
X134711714Y-147266571D02*
X134711714Y-145766571D01*
X134568857Y-146695143D02*
X134140286Y-147266571D01*
X134140286Y-146266571D02*
X134711714Y-146838000D01*
X133497428Y-147266571D02*
X133497428Y-146266571D01*
X133497428Y-146552286D02*
X133426000Y-146409429D01*
X133354571Y-146338000D01*
X133211714Y-146266571D01*
X133068857Y-146266571D01*
X132354571Y-147266571D02*
X132497429Y-147195143D01*
X132568857Y-147123714D01*
X132640286Y-146980857D01*
X132640286Y-146552286D01*
X132568857Y-146409429D01*
X132497429Y-146338000D01*
X132354571Y-146266571D01*
X132140286Y-146266571D01*
X131997429Y-146338000D01*
X131926000Y-146409429D01*
X131854571Y-146552286D01*
X131854571Y-146980857D01*
X131926000Y-147123714D01*
X131997429Y-147195143D01*
X132140286Y-147266571D01*
X132354571Y-147266571D01*
X131211714Y-147266571D02*
X131211714Y-145766571D01*
X131068857Y-146695143D02*
X130640286Y-147266571D01*
X130640286Y-146266571D02*
X131211714Y-146838000D01*
X129783142Y-147266571D02*
X129926000Y-147195143D01*
X129997428Y-147123714D01*
X130068857Y-146980857D01*
X130068857Y-146552286D01*
X129997428Y-146409429D01*
X129926000Y-146338000D01*
X129783142Y-146266571D01*
X129568857Y-146266571D01*
X129426000Y-146338000D01*
X129354571Y-146409429D01*
X129283142Y-146552286D01*
X129283142Y-146980857D01*
X129354571Y-147123714D01*
X129426000Y-147195143D01*
X129568857Y-147266571D01*
X129783142Y-147266571D01*
X128783142Y-146266571D02*
X128497428Y-147266571D01*
X128211714Y-146552286D01*
X127925999Y-147266571D01*
X127640285Y-146266571D01*
X126497428Y-147195143D02*
X126640285Y-147266571D01*
X126925999Y-147266571D01*
X127068856Y-147195143D01*
X127140285Y-147052286D01*
X127140285Y-146480857D01*
X127068856Y-146338000D01*
X126925999Y-146266571D01*
X126640285Y-146266571D01*
X126497428Y-146338000D01*
X126425999Y-146480857D01*
X126425999Y-146623714D01*
X127140285Y-146766571D01*
X125140285Y-146266571D02*
X125140285Y-147480857D01*
X125211714Y-147623714D01*
X125283142Y-147695143D01*
X125425999Y-147766571D01*
X125640285Y-147766571D01*
X125783142Y-147695143D01*
X125140285Y-147195143D02*
X125283142Y-147266571D01*
X125568856Y-147266571D01*
X125711714Y-147195143D01*
X125783142Y-147123714D01*
X125854571Y-146980857D01*
X125854571Y-146552286D01*
X125783142Y-146409429D01*
X125711714Y-146338000D01*
X125568856Y-146266571D01*
X125283142Y-146266571D01*
X125140285Y-146338000D01*
X124211713Y-147266571D02*
X124354571Y-147195143D01*
X124425999Y-147123714D01*
X124497428Y-146980857D01*
X124497428Y-146552286D01*
X124425999Y-146409429D01*
X124354571Y-146338000D01*
X124211713Y-146266571D01*
X123997428Y-146266571D01*
X123854571Y-146338000D01*
X123783142Y-146409429D01*
X123711713Y-146552286D01*
X123711713Y-146980857D01*
X123783142Y-147123714D01*
X123854571Y-147195143D01*
X123997428Y-147266571D01*
X124211713Y-147266571D01*
D12*
X201910000Y-134904000D03*
D13*
X201910000Y-139984000D03*
D14*
X146284000Y-117886000D03*
X143784000Y-117886000D03*
X124900000Y-138750000D03*
X124900000Y-141250000D03*
X146538000Y-139222000D03*
X144038000Y-139222000D03*
X151618000Y-139222000D03*
X149118000Y-139222000D03*
D15*
X180574000Y-131094000D03*
D14*
X182574000Y-131094000D03*
D16*
X139525000Y-139950000D03*
D17*
X136985000Y-139950000D03*
X134445000Y-139950000D03*
X131905000Y-139950000D03*
X129365000Y-139950000D03*
D18*
X120000000Y-130500000D03*
D19*
X117500000Y-130500000D03*
D18*
X120000000Y-113500000D03*
D19*
X117500000Y-113500000D03*
D18*
X120000000Y-122000000D03*
D19*
X117500000Y-122000000D03*
D14*
X139800000Y-134025000D03*
D20*
X129640000Y-134025000D03*
D14*
X188448000Y-126776000D03*
D20*
X188448000Y-136936000D03*
D21*
X159452000Y-112512000D03*
X154412000Y-115012000D03*
X154412000Y-110012000D03*
D22*
X193020000Y-133380000D03*
X193020000Y-130840000D03*
X193020000Y-128300000D03*
D23*
X116130000Y-135412000D03*
X120630000Y-135412000D03*
X116130000Y-141912000D03*
X120630000Y-141912000D03*
D24*
X151520000Y-134610000D03*
X146640000Y-134610000D03*
D13*
X127996000Y-99852000D03*
X133076000Y-99852000D03*
D12*
X122916000Y-99852000D03*
D13*
X138156000Y-99852000D03*
X143236000Y-99852000D03*
X148316000Y-99852000D03*
D12*
X153650000Y-99852000D03*
D13*
X158730000Y-99852000D03*
D25*
X126726000Y-129062000D03*
D26*
X159746000Y-121442000D03*
X129266000Y-129062000D03*
X157206000Y-121442000D03*
X131806000Y-129062000D03*
X154666000Y-121442000D03*
X134346000Y-129062000D03*
X152126000Y-121442000D03*
X136886000Y-129062000D03*
X149586000Y-121442000D03*
X139426000Y-129062000D03*
X147046000Y-121442000D03*
X141966000Y-129062000D03*
X144506000Y-121442000D03*
X144506000Y-129062000D03*
X141966000Y-121442000D03*
X147046000Y-129062000D03*
X139426000Y-121442000D03*
X149586000Y-129062000D03*
X136886000Y-121442000D03*
X152126000Y-129062000D03*
X134346000Y-121442000D03*
X154666000Y-129062000D03*
X131806000Y-121442000D03*
X157206000Y-129062000D03*
X129266000Y-121442000D03*
X159746000Y-129062000D03*
X126726000Y-121442000D03*
D14*
X168890000Y-141000000D03*
X168890000Y-133900000D03*
D15*
X183876000Y-135920000D03*
D14*
X183876000Y-137920000D03*
D27*
X163556000Y-145318000D03*
D28*
X178796000Y-145318000D03*
D29*
X191242000Y-141000000D03*
D30*
X189542000Y-144700000D03*
X187842000Y-141000000D03*
X186142000Y-144700000D03*
X184442000Y-141000000D03*
D29*
X201148000Y-123220000D03*
D30*
X197448000Y-124920000D03*
X201148000Y-126620000D03*
X197448000Y-128320000D03*
X201148000Y-130020000D03*
D27*
X192258000Y-114076000D03*
D31*
X197258000Y-114076000D03*
D14*
X186162000Y-123474000D03*
X188662000Y-123474000D03*
X192004000Y-98836000D03*
X194504000Y-98836000D03*
X157460000Y-139222000D03*
X154960000Y-139222000D03*
X195306000Y-137444000D03*
X195306000Y-139944000D03*
D13*
X174732000Y-98074000D03*
X174732000Y-110274000D03*
D29*
X142728000Y-143286000D03*
D32*
X145268000Y-143286000D03*
D14*
X157968000Y-142778000D03*
D20*
X147808000Y-142778000D03*
D14*
X137648000Y-114584000D03*
D20*
X147808000Y-114584000D03*
D18*
X166096000Y-123474000D03*
D19*
X168596000Y-123474000D03*
X171096000Y-123474000D03*
X173596000Y-123474000D03*
X176096000Y-123474000D03*
X178596000Y-123474000D03*
D18*
X166096000Y-115600000D03*
D19*
X168596000Y-115600000D03*
X171096000Y-115600000D03*
X173596000Y-115600000D03*
X176096000Y-115600000D03*
X178596000Y-115600000D03*
D18*
X128504000Y-107980000D03*
D19*
X131004000Y-107980000D03*
X133504000Y-107980000D03*
X136004000Y-107980000D03*
X138504000Y-107980000D03*
X141004000Y-107980000D03*
D14*
X157714000Y-105948000D03*
D20*
X147554000Y-105948000D03*
D27*
X187432000Y-103662000D03*
D28*
X200132000Y-103662000D03*
D33*
X157714000Y-105948000D02*
X163786000Y-105948000D01*
X163786000Y-105948000D02*
X164560000Y-105174000D01*
X186162000Y-123474000D02*
X182860000Y-123474000D01*
X182860000Y-123474000D02*
X182606000Y-123728000D01*
X186416000Y-134650000D02*
X186416000Y-127538000D01*
X181344000Y-110274000D02*
X174732000Y-110274000D01*
X184130000Y-113060000D02*
X181344000Y-110274000D01*
X184130000Y-118902000D02*
X184130000Y-113060000D01*
X182606000Y-120426000D02*
X184130000Y-118902000D01*
X182606000Y-123728000D02*
X182606000Y-120426000D01*
X186416000Y-127538000D02*
X182606000Y-123728000D01*
D34*
X183876000Y-135920000D02*
X183876000Y-135412000D01*
X183876000Y-135412000D02*
X184638000Y-134650000D01*
X184638000Y-134650000D02*
X186416000Y-134650000D01*
X186416000Y-134650000D02*
X191750000Y-134650000D01*
X191750000Y-134650000D02*
X193020000Y-133380000D01*
D33*
X174732000Y-110274000D02*
X174732000Y-106964000D01*
X164560000Y-105174000D02*
X164572000Y-105186000D01*
X163302000Y-103916000D02*
X164572000Y-105186000D01*
X172942000Y-105174000D02*
X164560000Y-105174000D01*
X174732000Y-106964000D02*
X172942000Y-105174000D01*
X195306000Y-137444000D02*
X195306000Y-135666000D01*
X195306000Y-135666000D02*
X193020000Y-133380000D01*
X162630000Y-103244000D02*
X163302000Y-103916000D01*
X162630000Y-103244000D02*
X158730000Y-99852000D01*
X193020000Y-130840000D02*
X193020000Y-133380000D01*
D35*
X175580000Y-111225000D02*
X175580000Y-109672000D01*
X144506000Y-121442000D02*
X144506000Y-120680000D01*
X144506000Y-120680000D02*
X146284000Y-118902000D01*
X146284000Y-118902000D02*
X146284000Y-117886000D01*
X146564000Y-117606000D02*
X146284000Y-117886000D01*
X143784000Y-117886000D02*
X143784000Y-116576000D01*
X145776000Y-114584000D02*
X147808000Y-114584000D01*
X143784000Y-116576000D02*
X145776000Y-114584000D01*
D33*
X131004000Y-107980000D02*
X128504000Y-107980000D01*
X131004000Y-107980000D02*
X133504000Y-107980000D01*
X200132000Y-103662000D02*
X194504000Y-103662000D01*
X194504000Y-103662000D02*
X194798000Y-103662000D01*
X194798000Y-103662000D02*
X194504000Y-103662000D01*
X194504000Y-101082000D02*
X194504000Y-103662000D01*
X194504000Y-103662000D02*
X194504000Y-108702000D01*
X194504000Y-98836000D02*
X194504000Y-101082000D01*
X197258000Y-111456000D02*
X197258000Y-114076000D01*
X194504000Y-108702000D02*
X197258000Y-111456000D01*
D35*
X141966000Y-121442000D02*
X141966000Y-119704000D01*
X141966000Y-119704000D02*
X143744000Y-117926000D01*
D33*
X153650000Y-99852000D02*
X153904000Y-105440000D01*
X157206000Y-108742000D02*
X158730000Y-108742000D01*
X153904000Y-105440000D02*
X157206000Y-108742000D01*
X178596000Y-123474000D02*
X178596000Y-120626000D01*
X180320000Y-113314000D02*
X176002000Y-113314000D01*
X181590000Y-114584000D02*
X180320000Y-113314000D01*
X181590000Y-117632000D02*
X181590000Y-114584000D01*
X178596000Y-120626000D02*
X181590000Y-117632000D01*
X183622000Y-132364000D02*
X183622000Y-128500000D01*
X183622000Y-128500000D02*
X178596000Y-123474000D01*
D35*
X154412000Y-115012000D02*
X165508000Y-115012000D01*
X165508000Y-115012000D02*
X166096000Y-115600000D01*
X154412000Y-115012000D02*
X154412000Y-113060000D01*
X154412000Y-113060000D02*
X158730000Y-108742000D01*
X155000000Y-115600000D02*
X154412000Y-115012000D01*
D34*
X182574000Y-131094000D02*
X183368000Y-131094000D01*
X183368000Y-131094000D02*
X183622000Y-131348000D01*
X183622000Y-131348000D02*
X183622000Y-132364000D01*
X183622000Y-132364000D02*
X181082000Y-134904000D01*
X181082000Y-134904000D02*
X181082000Y-142542143D01*
D35*
X141966000Y-121442000D02*
X141966000Y-122712000D01*
X121646000Y-123728000D02*
X117500000Y-123728000D01*
X122154000Y-123220000D02*
X121646000Y-123728000D01*
X141458000Y-123220000D02*
X122154000Y-123220000D01*
X141966000Y-122712000D02*
X141458000Y-123220000D01*
D33*
X176002000Y-113314000D02*
X172700000Y-113314000D01*
X168128000Y-108742000D02*
X158730000Y-108742000D01*
X172700000Y-113314000D02*
X168128000Y-108742000D01*
D35*
X143768000Y-117902000D02*
X143784000Y-117886000D01*
X143160000Y-132790000D02*
X143160000Y-138344000D01*
X145280000Y-130670000D02*
X143160000Y-132790000D01*
X144506000Y-129062000D02*
X145280000Y-130670000D01*
X143160000Y-138344000D02*
X144038000Y-139222000D01*
X142728000Y-143286000D02*
X142728000Y-140532000D01*
X142728000Y-140532000D02*
X144038000Y-139222000D01*
X136378000Y-142685500D02*
X142127500Y-142685500D01*
X142127500Y-142685500D02*
X142728000Y-143286000D01*
X144038000Y-139222000D02*
X144038000Y-139516000D01*
X144038000Y-139516000D02*
X145054000Y-140532000D01*
X145054000Y-140532000D02*
X149118000Y-140532000D01*
X149118000Y-139222000D02*
X149118000Y-140532000D01*
X151150000Y-142564000D02*
X154960000Y-142564000D01*
X149118000Y-140532000D02*
X151150000Y-142564000D01*
X154960000Y-139222000D02*
X154960000Y-142564000D01*
X161016000Y-148620000D02*
X161778000Y-148620000D01*
X154960000Y-142564000D02*
X161016000Y-148620000D01*
D34*
X183876000Y-137920000D02*
X183368000Y-139926000D01*
X183368000Y-139926000D02*
X184442000Y-141000000D01*
D35*
X187842000Y-141000000D02*
X188194000Y-141000000D01*
X188194000Y-141000000D02*
X191750000Y-144556000D01*
X180828000Y-148620000D02*
X161778000Y-148620000D01*
X161778000Y-148620000D02*
X161524000Y-148620000D01*
X182098000Y-147350000D02*
X180828000Y-148620000D01*
X189718000Y-147350000D02*
X182098000Y-147350000D01*
X191750000Y-145318000D02*
X189718000Y-147350000D01*
X191750000Y-144556000D02*
X191750000Y-145318000D01*
X176096000Y-115600000D02*
X176096000Y-113314000D01*
X176096000Y-113314000D02*
X176002000Y-113314000D01*
D33*
X153650000Y-99852000D02*
X153904000Y-99852000D01*
X153650000Y-99852000D02*
X153904000Y-97566000D01*
X194504000Y-96256000D02*
X194504000Y-98836000D01*
X193528000Y-95280000D02*
X194504000Y-96256000D01*
X156190000Y-95280000D02*
X193528000Y-95280000D01*
X153904000Y-97566000D02*
X156190000Y-95280000D01*
D35*
X165584200Y-115088200D02*
X166096000Y-115600000D01*
D33*
X195306000Y-139944000D02*
X196870000Y-139944000D01*
X196870000Y-139944000D02*
X201910000Y-134904000D01*
X195306000Y-139944000D02*
X194504000Y-139944000D01*
X191496000Y-136936000D02*
X188448000Y-136936000D01*
X194504000Y-139944000D02*
X191496000Y-136936000D01*
D35*
X194504000Y-98836000D02*
X194504000Y-98114000D01*
X187842000Y-141000000D02*
X188448000Y-141000000D01*
D33*
X184442000Y-141000000D02*
X182352000Y-141000000D01*
X182352000Y-141000000D02*
X181082000Y-142542143D01*
X181082000Y-142542143D02*
X178796000Y-145318000D01*
X187842000Y-141000000D02*
X184442000Y-141000000D01*
X188448000Y-136936000D02*
X188448000Y-140394000D01*
X188448000Y-140394000D02*
X187842000Y-141000000D01*
X201910000Y-134904000D02*
X201910000Y-130782000D01*
X201910000Y-130782000D02*
X201148000Y-130020000D01*
X201148000Y-130020000D02*
X201148000Y-126620000D01*
D36*
X201910000Y-134904000D02*
X201910000Y-135158000D01*
D33*
X128504000Y-107980000D02*
X119848000Y-108000000D01*
X119848000Y-108000000D02*
X117500000Y-110348000D01*
X117500000Y-110348000D02*
X117500000Y-113500000D01*
X117500000Y-130500000D02*
X117500000Y-123728000D01*
X117500000Y-123728000D02*
X117500000Y-122000000D01*
X117500000Y-122000000D02*
X117500000Y-113500000D01*
D35*
X136539500Y-142685500D02*
X136378000Y-142685500D01*
X136378000Y-142685500D02*
X126887500Y-142685500D01*
X118012000Y-143794000D02*
X116130000Y-141912000D01*
X121392000Y-143794000D02*
X118012000Y-143794000D01*
X122154000Y-143032000D02*
X121392000Y-143794000D01*
X126541000Y-143032000D02*
X122154000Y-143032000D01*
X126887500Y-142685500D02*
X126541000Y-143032000D01*
D33*
X117500000Y-130500000D02*
X117414000Y-130500000D01*
X117414000Y-130500000D02*
X116130000Y-131784000D01*
X116130000Y-131784000D02*
X116130000Y-135412000D01*
X116130000Y-141912000D02*
X116130000Y-135412000D01*
D35*
X117475000Y-130525000D02*
X117500000Y-130500000D01*
X154412000Y-115012000D02*
X154412000Y-115112000D01*
X154412000Y-115112000D02*
X154612000Y-115312000D01*
X136985000Y-139950000D02*
X136985000Y-142240000D01*
X136985000Y-142240000D02*
X136539500Y-142685500D01*
X136539500Y-142685500D02*
X136475000Y-142750000D01*
X142232000Y-121760000D02*
X141966000Y-121442000D01*
X141726000Y-121202000D02*
X141966000Y-121442000D01*
X117500000Y-122000000D02*
X117500000Y-124000000D01*
X117500000Y-124000000D02*
X117500000Y-130500000D01*
X141966000Y-121442000D02*
X142006000Y-121402000D01*
X117500000Y-122000000D02*
X117500000Y-113500000D01*
X154412000Y-115012000D02*
X154957000Y-115012000D01*
D37*
X131044000Y-107940000D02*
X131004000Y-107980000D01*
X131044000Y-107940000D02*
X131004000Y-107980000D01*
D35*
X178596000Y-124182000D02*
X178596000Y-123474000D01*
X178746000Y-123748000D02*
X178596000Y-123474000D01*
X133504000Y-108822000D02*
X133504000Y-107980000D01*
D37*
X133584000Y-108060000D02*
X133504000Y-107980000D01*
D35*
X124900000Y-138750000D02*
X128165000Y-138750000D01*
X128165000Y-138750000D02*
X129365000Y-139950000D01*
X120630000Y-135412000D02*
X120630000Y-141912000D01*
X124900000Y-141250000D02*
X124698000Y-141250000D01*
X124698000Y-141250000D02*
X124036000Y-141912000D01*
X124036000Y-141912000D02*
X120630000Y-141912000D01*
X122662000Y-134025000D02*
X122017000Y-134025000D01*
X122017000Y-134025000D02*
X120630000Y-135412000D01*
X124850000Y-141200000D02*
X124900000Y-141250000D01*
X129640000Y-134025000D02*
X122662000Y-134025000D01*
X122662000Y-134025000D02*
X122650000Y-134025000D01*
X126726000Y-129062000D02*
X127500000Y-131150000D01*
X127500000Y-131150000D02*
X129640000Y-133290000D01*
X129640000Y-133290000D02*
X129640000Y-134025000D01*
X147046000Y-129062000D02*
X147820000Y-133380000D01*
X147820000Y-133380000D02*
X146640000Y-134560000D01*
X146640000Y-134560000D02*
X146640000Y-134610000D01*
X146640000Y-134610000D02*
X146538000Y-139222000D01*
X151520000Y-134610000D02*
X151618000Y-139222000D01*
X149586000Y-129062000D02*
X150360000Y-133450000D01*
X150360000Y-133450000D02*
X151520000Y-134610000D01*
D33*
X192258000Y-114076000D02*
X192258000Y-118394000D01*
X200132000Y-122204000D02*
X201148000Y-123220000D01*
X195052000Y-122204000D02*
X200132000Y-122204000D01*
X194544000Y-121696000D02*
X195052000Y-122204000D01*
X194544000Y-120680000D02*
X194544000Y-121696000D01*
X192258000Y-118394000D02*
X194544000Y-120680000D01*
X192004000Y-98836000D02*
X192004000Y-113822000D01*
X192004000Y-113822000D02*
X192258000Y-114076000D01*
X191242000Y-141000000D02*
X191496000Y-141000000D01*
X191496000Y-141000000D02*
X193782000Y-143286000D01*
X193782000Y-143286000D02*
X198608000Y-143286000D01*
X198608000Y-143286000D02*
X201910000Y-139984000D01*
X201910000Y-139984000D02*
X202672000Y-139984000D01*
X202672000Y-139984000D02*
X204704000Y-137952000D01*
X204704000Y-126776000D02*
X201148000Y-123220000D01*
X204704000Y-137952000D02*
X204704000Y-126776000D01*
X201148000Y-123220000D02*
X200894000Y-123220000D01*
D35*
X140696000Y-124998000D02*
X161524000Y-124998000D01*
X140696000Y-124998000D02*
X139426000Y-126268000D01*
X139426000Y-129062000D02*
X139426000Y-126268000D01*
X162540000Y-123982000D02*
X165588000Y-123982000D01*
X161524000Y-124998000D02*
X162540000Y-123982000D01*
X165588000Y-123982000D02*
X166096000Y-123474000D01*
X139496000Y-128992000D02*
X139426000Y-129062000D01*
X153142000Y-125760000D02*
X167620000Y-125760000D01*
X152900000Y-126002000D02*
X153142000Y-125760000D01*
X152126000Y-129062000D02*
X152900000Y-126002000D01*
X168596000Y-124784000D02*
X168596000Y-123474000D01*
X167620000Y-125760000D02*
X168596000Y-124784000D01*
X155682000Y-126522000D02*
X169906000Y-126522000D01*
X154666000Y-127538000D02*
X155682000Y-126522000D01*
X154666000Y-129062000D02*
X154666000Y-127538000D01*
X171096000Y-125332000D02*
X171096000Y-123474000D01*
X169906000Y-126522000D02*
X171096000Y-125332000D01*
X158222000Y-127284000D02*
X172700000Y-127284000D01*
X157206000Y-128300000D02*
X158222000Y-127284000D01*
X173596000Y-126388000D02*
X173596000Y-123474000D01*
X172700000Y-127284000D02*
X173596000Y-126388000D01*
X173596000Y-124102000D02*
X173596000Y-123474000D01*
X173596000Y-123474000D02*
X173596000Y-123974000D01*
X157206000Y-129062000D02*
X157206000Y-128300000D01*
X157206000Y-129062000D02*
X157206000Y-130136000D01*
X157206000Y-129062000D02*
X157206000Y-129882000D01*
X147820000Y-119144000D02*
X149139998Y-117824002D01*
X149139998Y-117824002D02*
X149139998Y-104993998D01*
X149139998Y-104993998D02*
X148316000Y-104170000D01*
X148316000Y-104170000D02*
X124694000Y-104170000D01*
X124694000Y-104170000D02*
X122916000Y-102392000D01*
X180574000Y-131094000D02*
X176764000Y-131094000D01*
X176764000Y-131094000D02*
X173716000Y-128046000D01*
X168890000Y-128046000D02*
X173716000Y-128046000D01*
X173716000Y-128046000D02*
X173970000Y-128046000D01*
X173970000Y-128046000D02*
X176096000Y-125920000D01*
X176096000Y-125920000D02*
X176096000Y-123474000D01*
X176096000Y-124142000D02*
X176096000Y-123474000D01*
X176096000Y-123474000D02*
X176096000Y-123614000D01*
X152126000Y-114584000D02*
X152126000Y-116108000D01*
X159746000Y-117886000D02*
X163302000Y-117886000D01*
X158730000Y-116870000D02*
X159746000Y-117886000D01*
X152888000Y-116870000D02*
X158730000Y-116870000D01*
X152126000Y-116108000D02*
X152888000Y-116870000D01*
X141966000Y-129062000D02*
X141966000Y-127030000D01*
X151872000Y-131348000D02*
X158984000Y-131348000D01*
X150856000Y-130332000D02*
X151872000Y-131348000D01*
X150856000Y-127284000D02*
X150856000Y-130332000D01*
X149840000Y-126268000D02*
X150856000Y-127284000D01*
X142728000Y-126268000D02*
X149840000Y-126268000D01*
X141966000Y-127030000D02*
X142728000Y-126268000D01*
X168890000Y-133900000D02*
X168890000Y-128046000D01*
X157460000Y-139222000D02*
X157460000Y-132872000D01*
X157460000Y-132872000D02*
X158984000Y-131348000D01*
X158984000Y-131348000D02*
X160254000Y-131348000D01*
X162286000Y-128046000D02*
X168890000Y-128046000D01*
X161270000Y-129062000D02*
X162286000Y-128046000D01*
X161270000Y-130332000D02*
X161270000Y-129062000D01*
X160254000Y-131348000D02*
X161270000Y-130332000D01*
X139800000Y-131602000D02*
X139426000Y-131602000D01*
X147046000Y-123220000D02*
X147046000Y-121442000D01*
X146284000Y-123982000D02*
X147046000Y-123220000D01*
X140188000Y-123982000D02*
X146284000Y-123982000D01*
X138156000Y-126014000D02*
X140188000Y-123982000D01*
X138156000Y-130332000D02*
X138156000Y-126014000D01*
X139426000Y-131602000D02*
X138156000Y-130332000D01*
X139800000Y-134025000D02*
X139800000Y-131602000D01*
X139800000Y-131602000D02*
X139800000Y-131482000D01*
X139800000Y-131482000D02*
X141966000Y-129316000D01*
X141966000Y-129316000D02*
X141966000Y-129062000D01*
X147046000Y-121442000D02*
X147820000Y-119144000D01*
X122916000Y-102392000D02*
X122916000Y-99852000D01*
X152126000Y-110012000D02*
X152126000Y-114584000D01*
X152126000Y-110012000D02*
X152126000Y-107218000D01*
X152126000Y-114818678D02*
X152126000Y-114584000D01*
X154412000Y-110012000D02*
X152456200Y-107802200D01*
X152456200Y-107802200D02*
X152126000Y-107218000D01*
X168596000Y-117418000D02*
X168596000Y-115600000D01*
X163302000Y-117886000D02*
X168128000Y-117886000D01*
X168128000Y-117886000D02*
X168596000Y-117418000D01*
X163048000Y-117886000D02*
X163302000Y-117886000D01*
X152126000Y-107218000D02*
X152126000Y-102138000D01*
X144252000Y-96550000D02*
X148824000Y-96550000D01*
X149840000Y-96550000D02*
X148824000Y-96550000D01*
X151110000Y-97820000D02*
X149840000Y-96550000D01*
X151110000Y-101376000D02*
X151110000Y-97820000D01*
X152126000Y-102138000D02*
X151110000Y-101376000D01*
X157460000Y-139222000D02*
X157714000Y-142524000D01*
X157714000Y-142524000D02*
X157968000Y-142778000D01*
X168890000Y-133900000D02*
X176764000Y-133900000D01*
X176764000Y-133900000D02*
X176764000Y-133888000D01*
X186142000Y-144700000D02*
X182208000Y-144700000D01*
X176764000Y-146080000D02*
X176764000Y-133888000D01*
X177780000Y-147096000D02*
X176764000Y-146080000D01*
X179812000Y-147096000D02*
X177780000Y-147096000D01*
X182208000Y-144700000D02*
X179812000Y-147096000D01*
X154412000Y-110012000D02*
X154208800Y-110012000D01*
X168166002Y-115815998D02*
X168596000Y-116402000D01*
X168596000Y-116402000D02*
X168596000Y-115600000D01*
X143236000Y-99852000D02*
X143490000Y-97312000D01*
X143490000Y-97312000D02*
X144252000Y-96550000D01*
X133076000Y-99852000D02*
X133330000Y-97058000D01*
X133330000Y-97058000D02*
X133838000Y-96550000D01*
X135616000Y-96550000D02*
X133838000Y-96550000D01*
X133838000Y-96550000D02*
X125456000Y-96550000D01*
X135610000Y-96544000D02*
X135616000Y-96550000D01*
X125456000Y-96550000D02*
X122916000Y-98836000D01*
X122916000Y-98836000D02*
X122916000Y-99852000D01*
X181082000Y-131094000D02*
X180574000Y-131094000D01*
X122789000Y-99979000D02*
X122916000Y-99852000D01*
X154108000Y-109708000D02*
X154412000Y-110012000D01*
X122916000Y-99852000D02*
X122916000Y-99344000D01*
X135610000Y-96550000D02*
X144252000Y-96550000D01*
X168442000Y-115486000D02*
X168842000Y-115086000D01*
X168842000Y-115086000D02*
X168596000Y-115600000D01*
X147046000Y-121442000D02*
X147046000Y-122342000D01*
X154412000Y-110012000D02*
X154157000Y-110012000D01*
X154207000Y-110012000D02*
X154412000Y-110012000D01*
X122641000Y-100127000D02*
X122966000Y-99802000D01*
X139800000Y-134025000D02*
X139800000Y-139675000D01*
X139800000Y-139675000D02*
X139525000Y-139950000D01*
D37*
X154452000Y-109972000D02*
X154412000Y-110012000D01*
D35*
X131806000Y-129062000D02*
X132072000Y-129605000D01*
X134445000Y-138580000D02*
X134445000Y-139950000D01*
X135975000Y-137050000D02*
X134445000Y-138580000D01*
X135975000Y-133000000D02*
X135975000Y-137050000D01*
X132072000Y-129605000D02*
X135975000Y-133000000D01*
X129266000Y-129062000D02*
X129532000Y-129240000D01*
X131905000Y-138420000D02*
X131905000Y-139950000D01*
X134400000Y-135925000D02*
X131905000Y-138420000D01*
X134400000Y-133600000D02*
X134400000Y-135925000D01*
X129532000Y-129240000D02*
X134400000Y-133600000D01*
X159452000Y-112512000D02*
X159452000Y-112766000D01*
X159452000Y-112766000D02*
X161270000Y-113822000D01*
X161270000Y-113822000D02*
X170160000Y-113822000D01*
X170160000Y-113822000D02*
X171096000Y-114758000D01*
X171096000Y-114758000D02*
X171096000Y-115600000D01*
D37*
X171136000Y-115560000D02*
X171096000Y-115600000D01*
D35*
X152126000Y-121442000D02*
X152126000Y-122204000D01*
X152126000Y-122204000D02*
X153142000Y-123220000D01*
X173596000Y-117244000D02*
X173596000Y-115600000D01*
X172192000Y-118648000D02*
X173596000Y-117244000D01*
X163810000Y-118648000D02*
X172192000Y-118648000D01*
X161524000Y-120934000D02*
X163810000Y-118648000D01*
X161524000Y-121950000D02*
X161524000Y-120934000D01*
X160254000Y-123220000D02*
X161524000Y-121950000D01*
X153142000Y-123220000D02*
X160254000Y-123220000D01*
X152126000Y-121442000D02*
X152392000Y-121900000D01*
X173596000Y-115600000D02*
X173596000Y-116100000D01*
X173596000Y-115600000D02*
X173596000Y-115890000D01*
X152095996Y-121472004D02*
X152126000Y-121442000D01*
X149586000Y-121442000D02*
X152126000Y-123982000D01*
X178596000Y-117070000D02*
X178596000Y-115600000D01*
X176256000Y-119410000D02*
X178596000Y-117070000D01*
X164318000Y-119410000D02*
X176256000Y-119410000D01*
X162286000Y-121442000D02*
X164318000Y-119410000D01*
X162286000Y-122458000D02*
X162286000Y-121442000D01*
X160762000Y-123982000D02*
X162286000Y-122458000D01*
X152126000Y-123982000D02*
X160762000Y-123982000D01*
X149586000Y-121442000D02*
X149852000Y-122360000D01*
X178596000Y-115600000D02*
X178746000Y-115516000D01*
X149726000Y-121582000D02*
X149586000Y-121442000D01*
X136886000Y-129062000D02*
X136886000Y-128046000D01*
X136886000Y-128046000D02*
X135870000Y-127030000D01*
X135870000Y-127030000D02*
X121900000Y-127030000D01*
X121900000Y-127030000D02*
X120000000Y-128930000D01*
X120000000Y-128930000D02*
X120000000Y-130500000D01*
X131806000Y-121442000D02*
X131806000Y-120680000D01*
X131806000Y-120680000D02*
X133584000Y-118902000D01*
X136004000Y-111656000D02*
X136004000Y-107980000D01*
X134600000Y-113060000D02*
X136004000Y-111656000D01*
X134600000Y-116362000D02*
X134600000Y-113060000D01*
X133584000Y-117378000D02*
X134600000Y-116362000D01*
X133584000Y-118902000D02*
X133584000Y-117378000D01*
X131806000Y-121442000D02*
X131806000Y-120426000D01*
X131726000Y-121362000D02*
X131806000Y-121442000D01*
X136124000Y-108100000D02*
X136004000Y-107980000D01*
D37*
X136124000Y-108100000D02*
X136004000Y-107980000D01*
D35*
X134346000Y-121442000D02*
X134346000Y-118140000D01*
X138504000Y-111696000D02*
X138504000Y-107980000D01*
X138156000Y-112044000D02*
X138504000Y-111696000D01*
X136886000Y-112044000D02*
X138156000Y-112044000D01*
X135362000Y-113568000D02*
X136886000Y-112044000D01*
X135362000Y-117124000D02*
X135362000Y-113568000D01*
X134346000Y-118140000D02*
X135362000Y-117124000D01*
X138504000Y-108394000D02*
X138504000Y-107980000D01*
X134346000Y-121442000D02*
X134346000Y-120680000D01*
D37*
X138664000Y-108140000D02*
X138504000Y-107980000D01*
D35*
X136886000Y-121442000D02*
X136886000Y-117632000D01*
X141004000Y-111482000D02*
X141004000Y-107980000D01*
X139680000Y-112806000D02*
X141004000Y-111482000D01*
X137140000Y-112806000D02*
X139680000Y-112806000D01*
X136124000Y-113822000D02*
X137140000Y-112806000D01*
X136124000Y-116870000D02*
X136124000Y-113822000D01*
X136886000Y-117632000D02*
X136124000Y-116870000D01*
X136886000Y-121442000D02*
X136886000Y-120680000D01*
X136726000Y-121282000D02*
X136886000Y-121442000D01*
X129266000Y-121442000D02*
X129266000Y-115600000D01*
X127166000Y-113500000D02*
X120000000Y-113500000D01*
X129266000Y-115600000D02*
X127166000Y-113500000D01*
X126726000Y-121442000D02*
X120558000Y-121442000D01*
X120558000Y-121442000D02*
X120000000Y-122000000D01*
X154666000Y-121442000D02*
X154666000Y-119918000D01*
X147554000Y-103408000D02*
X140696000Y-103408000D01*
X148824000Y-103408000D02*
X147554000Y-103408000D01*
X149840000Y-104424000D02*
X148824000Y-103408000D01*
X149840000Y-116232000D02*
X149840000Y-104424000D01*
X149840000Y-118394000D02*
X149840000Y-116232000D01*
X150602000Y-119156000D02*
X149840000Y-118394000D01*
X153904000Y-119156000D02*
X150602000Y-119156000D01*
X154666000Y-119918000D02*
X153904000Y-119156000D01*
X140696000Y-103408000D02*
X130028000Y-103408000D01*
X127996000Y-101376000D02*
X127996000Y-99852000D01*
X130028000Y-103408000D02*
X127996000Y-101376000D01*
X140696000Y-103408000D02*
X140696000Y-103462500D01*
X141137500Y-103462500D02*
X140696000Y-103462500D01*
X157206000Y-121442000D02*
X157206000Y-119664000D01*
X150540002Y-115814000D02*
X150562000Y-115814000D01*
X150540002Y-117570002D02*
X150540002Y-115814000D01*
X151364000Y-118394000D02*
X150540002Y-117570002D01*
X155936000Y-118394000D02*
X151364000Y-118394000D01*
X157206000Y-119664000D02*
X155936000Y-118394000D01*
X150562000Y-115814000D02*
X150562000Y-115814000D01*
X150562000Y-115814000D02*
X150562000Y-111028000D01*
X150562000Y-111028000D02*
X150562000Y-103876000D01*
X150562000Y-103876000D02*
X149173500Y-102487500D01*
X149173500Y-102487500D02*
X141477300Y-102487500D01*
X141477300Y-102487500D02*
X139330500Y-102487500D01*
X139330500Y-102487500D02*
X138410000Y-101567000D01*
X138410000Y-101567000D02*
X138156000Y-99852000D01*
X141487500Y-102487500D02*
X141477300Y-102487500D01*
X141487500Y-102487500D02*
X141450000Y-102450000D01*
X150562000Y-111028000D02*
X150562000Y-110800000D01*
X138156000Y-99852000D02*
X138156000Y-99872000D01*
X159746000Y-121442000D02*
X159746000Y-119156000D01*
X151364000Y-116616000D02*
X151364000Y-115600000D01*
X151364000Y-115600000D02*
X151364000Y-115346000D01*
X151364000Y-102773000D02*
X151364000Y-102646000D01*
X151364000Y-102646000D02*
X148824000Y-100106000D01*
X151364000Y-110266000D02*
X151364000Y-102773000D01*
X151364000Y-115346000D02*
X151364000Y-110266000D01*
X152380000Y-117632000D02*
X151364000Y-116616000D01*
X158222000Y-117632000D02*
X152380000Y-117632000D01*
X159746000Y-119156000D02*
X158222000Y-117632000D01*
X188448000Y-126776000D02*
X188448000Y-123688000D01*
X188448000Y-123688000D02*
X188662000Y-123474000D01*
X188702000Y-123514000D02*
X188662000Y-123474000D01*
X197448000Y-128320000D02*
X193040000Y-128320000D01*
X193040000Y-128320000D02*
X191496000Y-126776000D01*
X191496000Y-126776000D02*
X188448000Y-126776000D01*
X192995000Y-128275000D02*
X193020000Y-128300000D01*
X188623000Y-126951000D02*
X188448000Y-126776000D01*
X189542000Y-144700000D02*
X189066000Y-144700000D01*
X189066000Y-144700000D02*
X187432000Y-146334000D01*
X187432000Y-146334000D02*
X181844000Y-146334000D01*
X181844000Y-146334000D02*
X180320000Y-147858000D01*
X180320000Y-147858000D02*
X166096000Y-147858000D01*
X166096000Y-147858000D02*
X163556000Y-145318000D01*
X163556000Y-145318000D02*
X163556000Y-142524000D01*
X165080000Y-141000000D02*
X168890000Y-141000000D01*
X163556000Y-142524000D02*
X165080000Y-141000000D01*
X163556000Y-145318000D02*
X163810000Y-145318000D01*
X163561000Y-145313000D02*
X163556000Y-145318000D01*
D33*
X187432000Y-103662000D02*
X187432000Y-117632000D01*
X190988000Y-122966000D02*
X190988000Y-121188000D01*
X192942000Y-124920000D02*
X190988000Y-122966000D01*
X192942000Y-124920000D02*
X197448000Y-124920000D01*
X187432000Y-117632000D02*
X190988000Y-121188000D01*
X187432000Y-103662000D02*
X181336000Y-98074000D01*
X181336000Y-98074000D02*
X174732000Y-98074000D01*
D34*
X187432000Y-103662000D02*
X187432000Y-104170000D01*
D33*
X187178000Y-103916000D02*
X187432000Y-103662000D01*
D35*
X145268000Y-143286000D02*
X147300000Y-143286000D01*
X147300000Y-143286000D02*
X147808000Y-142778000D01*
X137648000Y-114584000D02*
X137648000Y-117124000D01*
X137648000Y-117124000D02*
X139426000Y-118902000D01*
X139426000Y-121442000D02*
X139426000Y-118902000D01*
X147554000Y-110774000D02*
X147554000Y-105948000D01*
X139426000Y-118902000D02*
X147554000Y-110774000D01*
D38*
G36*
X206483000Y-149343000D02*
X113237000Y-149343000D01*
X113237000Y-146922521D01*
X113824604Y-146922521D01*
X114171742Y-147762658D01*
X114813961Y-148405999D01*
X115653491Y-148754603D01*
X116562521Y-148755396D01*
X117402658Y-148408258D01*
X118045999Y-147766039D01*
X118394603Y-146926509D01*
X118395396Y-146017479D01*
X118048258Y-145177342D01*
X117624657Y-144753000D01*
X122790999Y-144753000D01*
X122790999Y-148573000D01*
X156061001Y-148573000D01*
X156061001Y-144753000D01*
X145737205Y-144753000D01*
X146136371Y-144588068D01*
X146554169Y-144171000D01*
X147299995Y-144171000D01*
X147300000Y-144171001D01*
X147434370Y-144144272D01*
X147779887Y-144213000D01*
X147836113Y-144213000D01*
X148385264Y-144103767D01*
X148850811Y-143792698D01*
X149161880Y-143327151D01*
X149271113Y-142778000D01*
X149161880Y-142228849D01*
X148850811Y-141763302D01*
X148385264Y-141452233D01*
X147836113Y-141343000D01*
X147779887Y-141343000D01*
X147230736Y-141452233D01*
X146765189Y-141763302D01*
X146454120Y-142228849D01*
X146442074Y-142289411D01*
X146138643Y-141985449D01*
X145574670Y-141751267D01*
X144964009Y-141750735D01*
X144399629Y-141983932D01*
X144222159Y-142161092D01*
X144166327Y-142026301D01*
X143987698Y-141847673D01*
X143754309Y-141751000D01*
X143013750Y-141751000D01*
X142855000Y-141909750D01*
X142855000Y-143159000D01*
X142875000Y-143159000D01*
X142875000Y-143413000D01*
X142855000Y-143413000D01*
X142855000Y-143433000D01*
X142601000Y-143433000D01*
X142601000Y-143413000D01*
X141351750Y-143413000D01*
X141193000Y-143571750D01*
X141193000Y-144312310D01*
X141289673Y-144545699D01*
X141468302Y-144724327D01*
X141537525Y-144753000D01*
X122790999Y-144753000D01*
X117624657Y-144753000D01*
X117406039Y-144534001D01*
X116566509Y-144185397D01*
X115657479Y-144184604D01*
X114817342Y-144531742D01*
X114174001Y-145173961D01*
X113825397Y-146013491D01*
X113824604Y-146922521D01*
X113237000Y-146922521D01*
X113237000Y-143064532D01*
X115157073Y-143064532D01*
X115255736Y-143331387D01*
X115865461Y-143557908D01*
X116515460Y-143533856D01*
X117004264Y-143331387D01*
X117102927Y-143064532D01*
X116130000Y-142091605D01*
X115157073Y-143064532D01*
X113237000Y-143064532D01*
X113237000Y-141647461D01*
X114484092Y-141647461D01*
X114508144Y-142297460D01*
X114710613Y-142786264D01*
X114977468Y-142884927D01*
X115950395Y-141912000D01*
X116309605Y-141912000D01*
X117282532Y-142884927D01*
X117549387Y-142786264D01*
X117775908Y-142176539D01*
X117751856Y-141526540D01*
X117549387Y-141037736D01*
X117282532Y-140939073D01*
X116309605Y-141912000D01*
X115950395Y-141912000D01*
X114977468Y-140939073D01*
X114710613Y-141037736D01*
X114484092Y-141647461D01*
X113237000Y-141647461D01*
X113237000Y-140759468D01*
X115157073Y-140759468D01*
X116130000Y-141732395D01*
X117102927Y-140759468D01*
X117004264Y-140492613D01*
X116394539Y-140266092D01*
X115744540Y-140290144D01*
X115255736Y-140492613D01*
X115157073Y-140759468D01*
X113237000Y-140759468D01*
X113237000Y-136564532D01*
X115157073Y-136564532D01*
X115255736Y-136831387D01*
X115865461Y-137057908D01*
X116515460Y-137033856D01*
X117004264Y-136831387D01*
X117102927Y-136564532D01*
X116130000Y-135591605D01*
X115157073Y-136564532D01*
X113237000Y-136564532D01*
X113237000Y-135147461D01*
X114484092Y-135147461D01*
X114508144Y-135797460D01*
X114710613Y-136286264D01*
X114977468Y-136384927D01*
X115950395Y-135412000D01*
X116309605Y-135412000D01*
X117282532Y-136384927D01*
X117549387Y-136286264D01*
X117775908Y-135676539D01*
X117751856Y-135026540D01*
X117549387Y-134537736D01*
X117282532Y-134439073D01*
X116309605Y-135412000D01*
X115950395Y-135412000D01*
X114977468Y-134439073D01*
X114710613Y-134537736D01*
X114484092Y-135147461D01*
X113237000Y-135147461D01*
X113237000Y-134259468D01*
X115157073Y-134259468D01*
X116130000Y-135232395D01*
X117102927Y-134259468D01*
X117004264Y-133992613D01*
X116394539Y-133766092D01*
X115744540Y-133790144D01*
X115255736Y-133992613D01*
X115157073Y-134259468D01*
X113237000Y-134259468D01*
X113237000Y-130265306D01*
X115978410Y-130265306D01*
X116004421Y-130865458D01*
X116184047Y-131299116D01*
X116437940Y-131382455D01*
X117320395Y-130500000D01*
X116437940Y-129617545D01*
X116184047Y-129700884D01*
X115978410Y-130265306D01*
X113237000Y-130265306D01*
X113237000Y-121765306D01*
X115978410Y-121765306D01*
X116004421Y-122365458D01*
X116184047Y-122799116D01*
X116437940Y-122882455D01*
X117320395Y-122000000D01*
X116437940Y-121117545D01*
X116184047Y-121200884D01*
X115978410Y-121765306D01*
X113237000Y-121765306D01*
X113237000Y-113265306D01*
X115978410Y-113265306D01*
X116004421Y-113865458D01*
X116184047Y-114299116D01*
X116437940Y-114382455D01*
X117320395Y-113500000D01*
X116437940Y-112617545D01*
X116184047Y-112700884D01*
X115978410Y-113265306D01*
X113237000Y-113265306D01*
X113237000Y-112437940D01*
X116617545Y-112437940D01*
X117500000Y-113320395D01*
X117514143Y-113306253D01*
X117693748Y-113485858D01*
X117679605Y-113500000D01*
X117693748Y-113514143D01*
X117514143Y-113693748D01*
X117500000Y-113679605D01*
X116617545Y-114562060D01*
X116700884Y-114815953D01*
X117265306Y-115021590D01*
X117865458Y-114995579D01*
X118299116Y-114815953D01*
X118382454Y-114562062D01*
X118497086Y-114676694D01*
X118538136Y-114635644D01*
X118660910Y-114826441D01*
X118873110Y-114971431D01*
X119125000Y-115022440D01*
X120875000Y-115022440D01*
X121110317Y-114978162D01*
X121326441Y-114839090D01*
X121471431Y-114626890D01*
X121520415Y-114385000D01*
X126799420Y-114385000D01*
X128381000Y-115966579D01*
X128381000Y-119904690D01*
X128251302Y-119991352D01*
X127996000Y-120373438D01*
X127740698Y-119991352D01*
X127275151Y-119680283D01*
X126726000Y-119571050D01*
X126176849Y-119680283D01*
X125711302Y-119991352D01*
X125400233Y-120456899D01*
X125380322Y-120557000D01*
X121168500Y-120557000D01*
X121126890Y-120528569D01*
X120875000Y-120477560D01*
X119125000Y-120477560D01*
X118889683Y-120521838D01*
X118673559Y-120660910D01*
X118536006Y-120862226D01*
X118497086Y-120823306D01*
X118382454Y-120937938D01*
X118299116Y-120684047D01*
X117734694Y-120478410D01*
X117134542Y-120504421D01*
X116700884Y-120684047D01*
X116617545Y-120937940D01*
X117500000Y-121820395D01*
X117514143Y-121806253D01*
X117693748Y-121985858D01*
X117679605Y-122000000D01*
X117693748Y-122014143D01*
X117514143Y-122193748D01*
X117500000Y-122179605D01*
X116617545Y-123062060D01*
X116700884Y-123315953D01*
X117265306Y-123521590D01*
X117865458Y-123495579D01*
X118299116Y-123315953D01*
X118382454Y-123062062D01*
X118497086Y-123176694D01*
X118538136Y-123135644D01*
X118660910Y-123326441D01*
X118873110Y-123471431D01*
X119125000Y-123522440D01*
X120875000Y-123522440D01*
X121110317Y-123478162D01*
X121326441Y-123339090D01*
X121471431Y-123126890D01*
X121522440Y-122875000D01*
X121522440Y-122327000D01*
X125380322Y-122327000D01*
X125400233Y-122427101D01*
X125711302Y-122892648D01*
X126176849Y-123203717D01*
X126726000Y-123312950D01*
X127275151Y-123203717D01*
X127740698Y-122892648D01*
X127996000Y-122510562D01*
X128251302Y-122892648D01*
X128716849Y-123203717D01*
X129266000Y-123312950D01*
X129815151Y-123203717D01*
X130280698Y-122892648D01*
X130536000Y-122510562D01*
X130791302Y-122892648D01*
X131256849Y-123203717D01*
X131806000Y-123312950D01*
X132355151Y-123203717D01*
X132820698Y-122892648D01*
X133076000Y-122510562D01*
X133331302Y-122892648D01*
X133796849Y-123203717D01*
X134346000Y-123312950D01*
X134895151Y-123203717D01*
X135360698Y-122892648D01*
X135616000Y-122510562D01*
X135871302Y-122892648D01*
X136336849Y-123203717D01*
X136886000Y-123312950D01*
X137435151Y-123203717D01*
X137900698Y-122892648D01*
X138156000Y-122510562D01*
X138411302Y-122892648D01*
X138876849Y-123203717D01*
X139426000Y-123312950D01*
X139712134Y-123256034D01*
X139562210Y-123356210D01*
X139562208Y-123356213D01*
X137530210Y-125388210D01*
X137338367Y-125675325D01*
X137338367Y-125675326D01*
X137270999Y-126014000D01*
X137271000Y-126014005D01*
X137271000Y-127179421D01*
X136495790Y-126404210D01*
X136462372Y-126381881D01*
X136208675Y-126212367D01*
X136152484Y-126201190D01*
X135870000Y-126144999D01*
X135869995Y-126145000D01*
X121900005Y-126145000D01*
X121900000Y-126144999D01*
X121617516Y-126201190D01*
X121561325Y-126212367D01*
X121274210Y-126404210D01*
X121274208Y-126404213D01*
X119374210Y-128304210D01*
X119182367Y-128591325D01*
X119175460Y-128626050D01*
X119114999Y-128930000D01*
X119115000Y-128930005D01*
X119115000Y-128979442D01*
X118889683Y-129021838D01*
X118673559Y-129160910D01*
X118536006Y-129362226D01*
X118497086Y-129323306D01*
X118382454Y-129437938D01*
X118299116Y-129184047D01*
X117734694Y-128978410D01*
X117134542Y-129004421D01*
X116700884Y-129184047D01*
X116617545Y-129437940D01*
X117500000Y-130320395D01*
X117514143Y-130306253D01*
X117693748Y-130485858D01*
X117679605Y-130500000D01*
X117693748Y-130514143D01*
X117514143Y-130693748D01*
X117500000Y-130679605D01*
X116617545Y-131562060D01*
X116700884Y-131815953D01*
X117265306Y-132021590D01*
X117865458Y-131995579D01*
X118299116Y-131815953D01*
X118382454Y-131562062D01*
X118497086Y-131676694D01*
X118538136Y-131635644D01*
X118660910Y-131826441D01*
X118873110Y-131971431D01*
X119125000Y-132022440D01*
X120875000Y-132022440D01*
X121110317Y-131978162D01*
X121326441Y-131839090D01*
X121471431Y-131626890D01*
X121522440Y-131375000D01*
X121522440Y-129625000D01*
X121478162Y-129389683D01*
X121339090Y-129173559D01*
X121142408Y-129039172D01*
X122266579Y-127915000D01*
X125278560Y-127915000D01*
X125278560Y-130262000D01*
X125322838Y-130497317D01*
X125461910Y-130713441D01*
X125674110Y-130858431D01*
X125926000Y-130909440D01*
X126466980Y-130909440D01*
X126670179Y-131457606D01*
X126679060Y-131472047D01*
X126682367Y-131488674D01*
X126769196Y-131618624D01*
X126851061Y-131751750D01*
X126864790Y-131761692D01*
X126874210Y-131775790D01*
X128238421Y-133140000D01*
X122017005Y-133140000D01*
X122017000Y-133139999D01*
X121678325Y-133207367D01*
X121391210Y-133399210D01*
X121391208Y-133399213D01*
X120996563Y-133793858D01*
X120956648Y-133777284D01*
X120306205Y-133776716D01*
X119705057Y-134025106D01*
X119244722Y-134484637D01*
X118995284Y-135085352D01*
X118994716Y-135735795D01*
X119243106Y-136336943D01*
X119702637Y-136797278D01*
X119745000Y-136814869D01*
X119745000Y-140508602D01*
X119705057Y-140525106D01*
X119244722Y-140984637D01*
X118995284Y-141585352D01*
X118994716Y-142235795D01*
X119243106Y-142836943D01*
X119702637Y-143297278D01*
X120303352Y-143546716D01*
X120953795Y-143547284D01*
X121554943Y-143298894D01*
X122015278Y-142839363D01*
X122032869Y-142797000D01*
X124035995Y-142797000D01*
X124036000Y-142797001D01*
X124318484Y-142740810D01*
X124374675Y-142729633D01*
X124507563Y-142640840D01*
X124613309Y-142684750D01*
X125184187Y-142685248D01*
X125711800Y-142467243D01*
X125919715Y-142259690D01*
X141193000Y-142259690D01*
X141193000Y-143000250D01*
X141351750Y-143159000D01*
X142601000Y-143159000D01*
X142601000Y-141909750D01*
X142442250Y-141751000D01*
X141701691Y-141751000D01*
X141468302Y-141847673D01*
X141289673Y-142026301D01*
X141193000Y-142259690D01*
X125919715Y-142259690D01*
X126115824Y-142063923D01*
X126334750Y-141536691D01*
X126335248Y-140965813D01*
X126117243Y-140438200D01*
X125713923Y-140034176D01*
X125632069Y-140000187D01*
X125711800Y-139967243D01*
X126044623Y-139635000D01*
X127798420Y-139635000D01*
X127913900Y-139750480D01*
X127880000Y-139920907D01*
X127880000Y-139979093D01*
X127993039Y-140547378D01*
X128314946Y-141029147D01*
X128796715Y-141351054D01*
X129365000Y-141464093D01*
X129933285Y-141351054D01*
X130415054Y-141029147D01*
X130635000Y-140699974D01*
X130854946Y-141029147D01*
X131336715Y-141351054D01*
X131905000Y-141464093D01*
X132473285Y-141351054D01*
X132955054Y-141029147D01*
X133175000Y-140699974D01*
X133394946Y-141029147D01*
X133876715Y-141351054D01*
X134445000Y-141464093D01*
X135013285Y-141351054D01*
X135495054Y-141029147D01*
X135722702Y-140688447D01*
X135789817Y-140831358D01*
X136218076Y-141221645D01*
X136628110Y-141391476D01*
X136858000Y-141270155D01*
X136858000Y-140077000D01*
X136838000Y-140077000D01*
X136838000Y-139823000D01*
X136858000Y-139823000D01*
X136858000Y-138629845D01*
X136628110Y-138508524D01*
X136218076Y-138678355D01*
X135789817Y-139068642D01*
X135722702Y-139211553D01*
X135495054Y-138870853D01*
X135441506Y-138835074D01*
X136600787Y-137675792D01*
X136600790Y-137675790D01*
X136792633Y-137388675D01*
X136835844Y-137171441D01*
X136860001Y-137050000D01*
X136860000Y-137049995D01*
X136860000Y-133000000D01*
X136853923Y-132969447D01*
X136857864Y-132938545D01*
X136820429Y-132801063D01*
X136792633Y-132661325D01*
X136775327Y-132635424D01*
X136767142Y-132605366D01*
X136679951Y-132492683D01*
X136600790Y-132374210D01*
X136574887Y-132356902D01*
X136555824Y-132332266D01*
X134835247Y-130835633D01*
X134895151Y-130823717D01*
X135360698Y-130512648D01*
X135616000Y-130130562D01*
X135871302Y-130512648D01*
X136336849Y-130823717D01*
X136886000Y-130932950D01*
X137435151Y-130823717D01*
X137438936Y-130821188D01*
X137468516Y-130865458D01*
X137530210Y-130957790D01*
X138800208Y-132227787D01*
X138800210Y-132227790D01*
X138915000Y-132304490D01*
X138915000Y-132880829D01*
X138584176Y-133211077D01*
X138365250Y-133738309D01*
X138364752Y-134309187D01*
X138582757Y-134836800D01*
X138915000Y-135169623D01*
X138915000Y-138452560D01*
X138675000Y-138452560D01*
X138439683Y-138496838D01*
X138223559Y-138635910D01*
X138078569Y-138848110D01*
X138056699Y-138956107D01*
X137751924Y-138678355D01*
X137341890Y-138508524D01*
X137112000Y-138629845D01*
X137112000Y-139823000D01*
X137132000Y-139823000D01*
X137132000Y-140077000D01*
X137112000Y-140077000D01*
X137112000Y-141270155D01*
X137341890Y-141391476D01*
X137751924Y-141221645D01*
X138054937Y-140945499D01*
X138071838Y-141035317D01*
X138210910Y-141251441D01*
X138423110Y-141396431D01*
X138675000Y-141447440D01*
X140375000Y-141447440D01*
X140610317Y-141403162D01*
X140826441Y-141264090D01*
X140971431Y-141051890D01*
X141022440Y-140800000D01*
X141022440Y-140229745D01*
X143209861Y-140229745D01*
X143283995Y-140475864D01*
X143821223Y-140668965D01*
X144391454Y-140641778D01*
X144792005Y-140475864D01*
X144866139Y-140229745D01*
X144038000Y-139401605D01*
X143209861Y-140229745D01*
X141022440Y-140229745D01*
X141022440Y-139100000D01*
X141004607Y-139005223D01*
X142591035Y-139005223D01*
X142618222Y-139575454D01*
X142784136Y-139976005D01*
X143030255Y-140050139D01*
X143858395Y-139222000D01*
X143030255Y-138393861D01*
X142784136Y-138467995D01*
X142591035Y-139005223D01*
X141004607Y-139005223D01*
X140978162Y-138864683D01*
X140839090Y-138648559D01*
X140685000Y-138543274D01*
X140685000Y-138214255D01*
X143209861Y-138214255D01*
X144038000Y-139042395D01*
X144866139Y-138214255D01*
X144792005Y-137968136D01*
X144254777Y-137775035D01*
X143684546Y-137802222D01*
X143283995Y-137968136D01*
X143209861Y-138214255D01*
X140685000Y-138214255D01*
X140685000Y-135169171D01*
X141015824Y-134838923D01*
X141234750Y-134311691D01*
X141235248Y-133740813D01*
X141017243Y-133213200D01*
X140685000Y-132880377D01*
X140685000Y-131848580D01*
X141661248Y-130872331D01*
X141966000Y-130932950D01*
X142515151Y-130823717D01*
X142980698Y-130512648D01*
X143233507Y-130134293D01*
X143581104Y-130566500D01*
X144074181Y-130836367D01*
X144156961Y-130853904D01*
X144379000Y-130731915D01*
X144379000Y-129189000D01*
X144359000Y-129189000D01*
X144359000Y-128935000D01*
X144379000Y-128935000D01*
X144379000Y-127392085D01*
X144156961Y-127270096D01*
X144074181Y-127287633D01*
X143581104Y-127557500D01*
X143233507Y-127989707D01*
X142980698Y-127611352D01*
X142851000Y-127524690D01*
X142851000Y-127396580D01*
X143094579Y-127153000D01*
X149473420Y-127153000D01*
X149523836Y-127203415D01*
X149036849Y-127300283D01*
X148571302Y-127611352D01*
X148316000Y-127993438D01*
X148060698Y-127611352D01*
X147595151Y-127300283D01*
X147046000Y-127191050D01*
X146496849Y-127300283D01*
X146031302Y-127611352D01*
X145778493Y-127989707D01*
X145430896Y-127557500D01*
X144937819Y-127287633D01*
X144855039Y-127270096D01*
X144633000Y-127392085D01*
X144633000Y-128935000D01*
X144653000Y-128935000D01*
X144653000Y-129189000D01*
X144633000Y-129189000D01*
X144633000Y-130731915D01*
X144855039Y-130853904D01*
X144937819Y-130836367D01*
X145430896Y-130566500D01*
X145778493Y-130134293D01*
X146031302Y-130512648D01*
X146458033Y-130797781D01*
X146867318Y-133081103D01*
X146723348Y-133225072D01*
X146365715Y-133224760D01*
X145856485Y-133435169D01*
X145466539Y-133824436D01*
X145255241Y-134333298D01*
X145254760Y-134884285D01*
X145465169Y-135393515D01*
X145731553Y-135660364D01*
X145678654Y-138052220D01*
X145322176Y-138408077D01*
X145294577Y-138474544D01*
X145291864Y-138467995D01*
X145045745Y-138393861D01*
X144217605Y-139222000D01*
X145045745Y-140050139D01*
X145291864Y-139976005D01*
X145294196Y-139969517D01*
X145320757Y-140033800D01*
X145724077Y-140437824D01*
X146251309Y-140656750D01*
X146822187Y-140657248D01*
X147349800Y-140439243D01*
X147559663Y-140229745D01*
X148289861Y-140229745D01*
X148363995Y-140475864D01*
X148901223Y-140668965D01*
X149471454Y-140641778D01*
X149872005Y-140475864D01*
X149946139Y-140229745D01*
X149118000Y-139401605D01*
X148289861Y-140229745D01*
X147559663Y-140229745D01*
X147753824Y-140035923D01*
X147821473Y-139873007D01*
X147864136Y-139976005D01*
X148110255Y-140050139D01*
X148938395Y-139222000D01*
X148110255Y-138393861D01*
X147864136Y-138467995D01*
X147824587Y-138578025D01*
X147755243Y-138410200D01*
X147559640Y-138214255D01*
X148289861Y-138214255D01*
X149118000Y-139042395D01*
X149946139Y-138214255D01*
X149872005Y-137968136D01*
X149334777Y-137775035D01*
X148764546Y-137802222D01*
X148363995Y-137968136D01*
X148289861Y-138214255D01*
X147559640Y-138214255D01*
X147447978Y-138102399D01*
X147500943Y-135707537D01*
X147813461Y-135395564D01*
X148024759Y-134886702D01*
X148025161Y-134426419D01*
X148445789Y-134005790D01*
X148489589Y-133940239D01*
X148546385Y-133885559D01*
X148584591Y-133798057D01*
X148637633Y-133718674D01*
X148653014Y-133641351D01*
X148684561Y-133569100D01*
X148686373Y-133473645D01*
X148705001Y-133380000D01*
X148689619Y-133302674D01*
X148691116Y-133223853D01*
X148174582Y-130342208D01*
X148316000Y-130130562D01*
X148571302Y-130512648D01*
X148992909Y-130794357D01*
X149488455Y-133603732D01*
X149523503Y-133693843D01*
X149542367Y-133788674D01*
X149585490Y-133853213D01*
X149613628Y-133925556D01*
X149680492Y-133995395D01*
X149734210Y-134075790D01*
X150135116Y-134476695D01*
X150134760Y-134884285D01*
X150345169Y-135393515D01*
X150658111Y-135707002D01*
X150708997Y-138101790D01*
X150402176Y-138408077D01*
X150374577Y-138474544D01*
X150371864Y-138467995D01*
X150125745Y-138393861D01*
X149297605Y-139222000D01*
X150125745Y-140050139D01*
X150371864Y-139976005D01*
X150374196Y-139969517D01*
X150400757Y-140033800D01*
X150804077Y-140437824D01*
X151331309Y-140656750D01*
X151902187Y-140657248D01*
X152429800Y-140439243D01*
X152639663Y-140229745D01*
X154131861Y-140229745D01*
X154205995Y-140475864D01*
X154743223Y-140668965D01*
X155313454Y-140641778D01*
X155714005Y-140475864D01*
X155788139Y-140229745D01*
X154960000Y-139401605D01*
X154131861Y-140229745D01*
X152639663Y-140229745D01*
X152833824Y-140035923D01*
X153052750Y-139508691D01*
X153053189Y-139005223D01*
X153513035Y-139005223D01*
X153540222Y-139575454D01*
X153706136Y-139976005D01*
X153952255Y-140050139D01*
X154780395Y-139222000D01*
X153952255Y-138393861D01*
X153706136Y-138467995D01*
X153513035Y-139005223D01*
X153053189Y-139005223D01*
X153053248Y-138937813D01*
X152835243Y-138410200D01*
X152639640Y-138214255D01*
X154131861Y-138214255D01*
X154960000Y-139042395D01*
X155788139Y-138214255D01*
X155714005Y-137968136D01*
X155176777Y-137775035D01*
X154606546Y-137802222D01*
X154205995Y-137968136D01*
X154131861Y-138214255D01*
X152639640Y-138214255D01*
X152478353Y-138052687D01*
X152427533Y-135661029D01*
X152693461Y-135395564D01*
X152904759Y-134886702D01*
X152905240Y-134335715D01*
X152694831Y-133826485D01*
X152305564Y-133436539D01*
X151796702Y-133225241D01*
X151386463Y-133224883D01*
X151183078Y-133021499D01*
X150945173Y-131672752D01*
X151246208Y-131973787D01*
X151246210Y-131973790D01*
X151533325Y-132165633D01*
X151589516Y-132176810D01*
X151872000Y-132233001D01*
X151872005Y-132233000D01*
X156847420Y-132233000D01*
X156834210Y-132246210D01*
X156642367Y-132533325D01*
X156642367Y-132533326D01*
X156574999Y-132872000D01*
X156575000Y-132872005D01*
X156575000Y-138077829D01*
X156244176Y-138408077D01*
X156216577Y-138474544D01*
X156213864Y-138467995D01*
X155967745Y-138393861D01*
X155139605Y-139222000D01*
X155967745Y-140050139D01*
X156213864Y-139976005D01*
X156216196Y-139969517D01*
X156242757Y-140033800D01*
X156646077Y-140437824D01*
X156666565Y-140446331D01*
X156781094Y-141935209D01*
X156752176Y-141964077D01*
X156533250Y-142491309D01*
X156532752Y-143062187D01*
X156750757Y-143589800D01*
X157154077Y-143993824D01*
X157681309Y-144212750D01*
X158252187Y-144213248D01*
X158779800Y-143995243D01*
X159183824Y-143591923D01*
X159402750Y-143064691D01*
X159403248Y-142493813D01*
X159185243Y-141966200D01*
X158781923Y-141562176D01*
X158519237Y-141453099D01*
X158429164Y-140282153D01*
X158675824Y-140035923D01*
X158894750Y-139508691D01*
X158895248Y-138937813D01*
X158677243Y-138410200D01*
X158345000Y-138077377D01*
X158345000Y-133238580D01*
X159350579Y-132233000D01*
X160253995Y-132233000D01*
X160254000Y-132233001D01*
X160536484Y-132176810D01*
X160592675Y-132165633D01*
X160879790Y-131973790D01*
X161895787Y-130957792D01*
X161895790Y-130957790D01*
X162087633Y-130670675D01*
X162121583Y-130500000D01*
X162155001Y-130332000D01*
X162155000Y-130331995D01*
X162155000Y-129428580D01*
X162652579Y-128931000D01*
X168005000Y-128931000D01*
X168005000Y-132755829D01*
X167674176Y-133086077D01*
X167455250Y-133613309D01*
X167454752Y-134184187D01*
X167672757Y-134711800D01*
X168076077Y-135115824D01*
X168603309Y-135334750D01*
X169174187Y-135335248D01*
X169701800Y-135117243D01*
X170034623Y-134785000D01*
X175879000Y-134785000D01*
X175879000Y-146079995D01*
X175878999Y-146080000D01*
X175918458Y-146278367D01*
X175946367Y-146418675D01*
X176116083Y-146672674D01*
X176138210Y-146705790D01*
X176405420Y-146973000D01*
X166462579Y-146973000D01*
X165403440Y-145913860D01*
X165403440Y-144118000D01*
X165359162Y-143882683D01*
X165220090Y-143666559D01*
X165007890Y-143521569D01*
X164756000Y-143470560D01*
X164441000Y-143470560D01*
X164441000Y-142890580D01*
X165446579Y-141885000D01*
X167745829Y-141885000D01*
X168076077Y-142215824D01*
X168603309Y-142434750D01*
X169174187Y-142435248D01*
X169701800Y-142217243D01*
X170105824Y-141813923D01*
X170324750Y-141286691D01*
X170325248Y-140715813D01*
X170107243Y-140188200D01*
X169703923Y-139784176D01*
X169176691Y-139565250D01*
X168605813Y-139564752D01*
X168078200Y-139782757D01*
X167745377Y-140115000D01*
X165080000Y-140115000D01*
X164741325Y-140182367D01*
X164454210Y-140374210D01*
X164454208Y-140374213D01*
X162930210Y-141898210D01*
X162738367Y-142185325D01*
X162728328Y-142235795D01*
X162670999Y-142524000D01*
X162671000Y-142524005D01*
X162671000Y-143470560D01*
X162356000Y-143470560D01*
X162120683Y-143514838D01*
X161904559Y-143653910D01*
X161759569Y-143866110D01*
X161708560Y-144118000D01*
X161708560Y-146518000D01*
X161752838Y-146753317D01*
X161891910Y-146969441D01*
X162104110Y-147114431D01*
X162356000Y-147165440D01*
X164151860Y-147165440D01*
X165470208Y-148483787D01*
X165470210Y-148483790D01*
X165757325Y-148675633D01*
X166096000Y-148743000D01*
X180319995Y-148743000D01*
X180320000Y-148743001D01*
X180602484Y-148686810D01*
X180658675Y-148675633D01*
X180945790Y-148483790D01*
X180945791Y-148483789D01*
X182210579Y-147219000D01*
X187431995Y-147219000D01*
X187432000Y-147219001D01*
X187714484Y-147162810D01*
X187770675Y-147151633D01*
X188057790Y-146959790D01*
X188231059Y-146786521D01*
X200894604Y-146786521D01*
X201241742Y-147626658D01*
X201883961Y-148269999D01*
X202723491Y-148618603D01*
X203632521Y-148619396D01*
X204472658Y-148272258D01*
X205115999Y-147630039D01*
X205464603Y-146790509D01*
X205465396Y-145881479D01*
X205118258Y-145041342D01*
X204476039Y-144398001D01*
X203636509Y-144049397D01*
X202727479Y-144048604D01*
X201887342Y-144395742D01*
X201244001Y-145037961D01*
X200895397Y-145877491D01*
X200894604Y-146786521D01*
X188231059Y-146786521D01*
X188909472Y-146108108D01*
X188924509Y-146118155D01*
X189511928Y-146235000D01*
X189572072Y-146235000D01*
X190159491Y-146118155D01*
X190657481Y-145785409D01*
X190990227Y-145287419D01*
X191107072Y-144700000D01*
X190990227Y-144112581D01*
X190657481Y-143614591D01*
X190159491Y-143281845D01*
X189572072Y-143165000D01*
X189511928Y-143165000D01*
X188924509Y-143281845D01*
X188426519Y-143614591D01*
X188093773Y-144112581D01*
X188017279Y-144497142D01*
X187680417Y-144834004D01*
X187707072Y-144700000D01*
X187590227Y-144112581D01*
X187257481Y-143614591D01*
X186759491Y-143281845D01*
X186172072Y-143165000D01*
X186111928Y-143165000D01*
X185524509Y-143281845D01*
X185026519Y-143614591D01*
X184892610Y-143815000D01*
X182208005Y-143815000D01*
X182208000Y-143814999D01*
X181951054Y-143866110D01*
X181869325Y-143882367D01*
X181582210Y-144074210D01*
X181582208Y-144074213D01*
X180468830Y-145187591D01*
X180584195Y-144906195D01*
X180351642Y-144344742D01*
X179860776Y-143823508D01*
X179207807Y-143529797D01*
X178923000Y-143646142D01*
X178923000Y-145191000D01*
X178943000Y-145191000D01*
X178943000Y-145445000D01*
X178923000Y-145445000D01*
X178923000Y-145465000D01*
X178669000Y-145465000D01*
X178669000Y-145445000D01*
X178649000Y-145445000D01*
X178649000Y-145191000D01*
X178669000Y-145191000D01*
X178669000Y-143646142D01*
X178384193Y-143529797D01*
X177731224Y-143823508D01*
X177649000Y-143910819D01*
X177649000Y-141364740D01*
X182950964Y-141364740D01*
X183129760Y-141796417D01*
X183534424Y-142237966D01*
X184077258Y-142491046D01*
X184315000Y-142370997D01*
X184315000Y-141127000D01*
X184569000Y-141127000D01*
X184569000Y-142370997D01*
X184806742Y-142491046D01*
X185349576Y-142237966D01*
X185754240Y-141796417D01*
X185933036Y-141364740D01*
X186350964Y-141364740D01*
X186529760Y-141796417D01*
X186934424Y-142237966D01*
X187477258Y-142491046D01*
X187715000Y-142370997D01*
X187715000Y-141127000D01*
X187969000Y-141127000D01*
X187969000Y-142370997D01*
X188206742Y-142491046D01*
X188749576Y-142237966D01*
X189154240Y-141796417D01*
X189333036Y-141364740D01*
X189212378Y-141127000D01*
X187969000Y-141127000D01*
X187715000Y-141127000D01*
X186471622Y-141127000D01*
X186350964Y-141364740D01*
X185933036Y-141364740D01*
X185812378Y-141127000D01*
X184569000Y-141127000D01*
X184315000Y-141127000D01*
X183071622Y-141127000D01*
X182950964Y-141364740D01*
X177649000Y-141364740D01*
X177649000Y-140635260D01*
X182950964Y-140635260D01*
X183071622Y-140873000D01*
X184315000Y-140873000D01*
X184315000Y-139629003D01*
X184569000Y-139629003D01*
X184569000Y-140873000D01*
X185812378Y-140873000D01*
X185933036Y-140635260D01*
X186350964Y-140635260D01*
X186471622Y-140873000D01*
X187715000Y-140873000D01*
X187715000Y-139629003D01*
X187969000Y-139629003D01*
X187969000Y-140873000D01*
X189212378Y-140873000D01*
X189333036Y-140635260D01*
X189154240Y-140203583D01*
X188749576Y-139762034D01*
X188206742Y-139508954D01*
X187969000Y-139629003D01*
X187715000Y-139629003D01*
X187477258Y-139508954D01*
X186934424Y-139762034D01*
X186529760Y-140203583D01*
X186350964Y-140635260D01*
X185933036Y-140635260D01*
X185754240Y-140203583D01*
X185349576Y-139762034D01*
X184806742Y-139508954D01*
X184569000Y-139629003D01*
X184315000Y-139629003D01*
X184077258Y-139508954D01*
X183534424Y-139762034D01*
X183129760Y-140203583D01*
X182950964Y-140635260D01*
X177649000Y-140635260D01*
X177649000Y-138927745D01*
X183047861Y-138927745D01*
X183121995Y-139173864D01*
X183659223Y-139366965D01*
X184229454Y-139339778D01*
X184630005Y-139173864D01*
X184704139Y-138927745D01*
X183876000Y-138099605D01*
X183047861Y-138927745D01*
X177649000Y-138927745D01*
X177649000Y-133888000D01*
X177581633Y-133549325D01*
X177389790Y-133262210D01*
X177102675Y-133070367D01*
X176764000Y-133003000D01*
X176703672Y-133015000D01*
X170034171Y-133015000D01*
X169775000Y-132755377D01*
X169775000Y-128931000D01*
X173349420Y-128931000D01*
X176138208Y-131719787D01*
X176138210Y-131719790D01*
X176425325Y-131911633D01*
X176478142Y-131922139D01*
X176764000Y-131979001D01*
X176764005Y-131979000D01*
X179142554Y-131979000D01*
X179170838Y-132129317D01*
X179309910Y-132345441D01*
X179522110Y-132490431D01*
X179774000Y-132541440D01*
X181374000Y-132541440D01*
X181609317Y-132497162D01*
X181825441Y-132358090D01*
X181829977Y-132351452D01*
X182357223Y-132540965D01*
X182927454Y-132513778D01*
X183328005Y-132347864D01*
X183402139Y-132101745D01*
X182574000Y-131273605D01*
X182559858Y-131287748D01*
X182380253Y-131108143D01*
X182394395Y-131094000D01*
X182753605Y-131094000D01*
X183581745Y-131922139D01*
X183827864Y-131848005D01*
X184020965Y-131310777D01*
X183993778Y-130740546D01*
X183827864Y-130339995D01*
X183581745Y-130265861D01*
X182753605Y-131094000D01*
X182394395Y-131094000D01*
X182380253Y-131079858D01*
X182559858Y-130900252D01*
X182574000Y-130914395D01*
X183402139Y-130086255D01*
X183328005Y-129840136D01*
X182790777Y-129647035D01*
X182220546Y-129674222D01*
X181829053Y-129836384D01*
X181625890Y-129697569D01*
X181374000Y-129646560D01*
X179774000Y-129646560D01*
X179538683Y-129690838D01*
X179322559Y-129829910D01*
X179177569Y-130042110D01*
X179143773Y-130209000D01*
X177130579Y-130209000D01*
X175094580Y-128173000D01*
X176721787Y-126545792D01*
X176721790Y-126545790D01*
X176913633Y-126258675D01*
X176935323Y-126149633D01*
X176981001Y-125920000D01*
X176981000Y-125919995D01*
X176981000Y-124724145D01*
X177169413Y-124536060D01*
X177713545Y-124536060D01*
X177796884Y-124789953D01*
X178361306Y-124995590D01*
X178961458Y-124969579D01*
X179395116Y-124789953D01*
X179478455Y-124536060D01*
X178596000Y-123653605D01*
X177713545Y-124536060D01*
X177169413Y-124536060D01*
X177375370Y-124330463D01*
X177384892Y-124307531D01*
X177533940Y-124356455D01*
X178416395Y-123474000D01*
X178775605Y-123474000D01*
X179658060Y-124356455D01*
X179911953Y-124273116D01*
X180117590Y-123708694D01*
X180091579Y-123108542D01*
X179911953Y-122674884D01*
X179658060Y-122591545D01*
X178775605Y-123474000D01*
X178416395Y-123474000D01*
X177533940Y-122591545D01*
X177385352Y-122640318D01*
X177376862Y-122619771D01*
X177169394Y-122411940D01*
X177713545Y-122411940D01*
X178596000Y-123294395D01*
X179478455Y-122411940D01*
X179395116Y-122158047D01*
X178830694Y-121952410D01*
X178230542Y-121978421D01*
X177796884Y-122158047D01*
X177713545Y-122411940D01*
X177169394Y-122411940D01*
X176952463Y-122194630D01*
X176397675Y-121964262D01*
X175796960Y-121963738D01*
X175241771Y-122193138D01*
X174845682Y-122588536D01*
X174452463Y-122194630D01*
X173897675Y-121964262D01*
X173296960Y-121963738D01*
X172741771Y-122193138D01*
X172345682Y-122588536D01*
X171952463Y-122194630D01*
X171397675Y-121964262D01*
X170796960Y-121963738D01*
X170241771Y-122193138D01*
X169845682Y-122588536D01*
X169452463Y-122194630D01*
X168897675Y-121964262D01*
X168296960Y-121963738D01*
X167741771Y-122193138D01*
X167572897Y-122361717D01*
X167435090Y-122147559D01*
X167222890Y-122002569D01*
X166971000Y-121951560D01*
X165221000Y-121951560D01*
X164985683Y-121995838D01*
X164769559Y-122134910D01*
X164624569Y-122347110D01*
X164573560Y-122599000D01*
X164573560Y-123097000D01*
X162898579Y-123097000D01*
X162911787Y-123083792D01*
X162911790Y-123083790D01*
X163103633Y-122796675D01*
X163171000Y-122458000D01*
X163171000Y-121808580D01*
X164684579Y-120295000D01*
X176255995Y-120295000D01*
X176256000Y-120295001D01*
X176538484Y-120238810D01*
X176594675Y-120227633D01*
X176881790Y-120035790D01*
X176881791Y-120035789D01*
X179221787Y-117695792D01*
X179221790Y-117695790D01*
X179413633Y-117408675D01*
X179430801Y-117322367D01*
X179481001Y-117070000D01*
X179481000Y-117069995D01*
X179481000Y-116850145D01*
X179875370Y-116456463D01*
X180105738Y-115901675D01*
X180106262Y-115300960D01*
X179876862Y-114745771D01*
X179452463Y-114320630D01*
X178897675Y-114090262D01*
X178296960Y-114089738D01*
X177741771Y-114319138D01*
X177316630Y-114743537D01*
X177307108Y-114766469D01*
X177158060Y-114717545D01*
X176275605Y-115600000D01*
X177158060Y-116482455D01*
X177306648Y-116433682D01*
X177315138Y-116454229D01*
X177637383Y-116777038D01*
X175889420Y-118525000D01*
X173566579Y-118525000D01*
X174221787Y-117869792D01*
X174221790Y-117869790D01*
X174413633Y-117582675D01*
X174437503Y-117462674D01*
X174481001Y-117244000D01*
X174481000Y-117243995D01*
X174481000Y-116850145D01*
X174669413Y-116662060D01*
X175213545Y-116662060D01*
X175296884Y-116915953D01*
X175861306Y-117121590D01*
X176461458Y-117095579D01*
X176895116Y-116915953D01*
X176978455Y-116662060D01*
X176096000Y-115779605D01*
X175213545Y-116662060D01*
X174669413Y-116662060D01*
X174875370Y-116456463D01*
X174884892Y-116433531D01*
X175033940Y-116482455D01*
X175916395Y-115600000D01*
X175033940Y-114717545D01*
X174885352Y-114766318D01*
X174876862Y-114745771D01*
X174669394Y-114537940D01*
X175213545Y-114537940D01*
X176096000Y-115420395D01*
X176978455Y-114537940D01*
X176895116Y-114284047D01*
X176330694Y-114078410D01*
X175730542Y-114104421D01*
X175296884Y-114284047D01*
X175213545Y-114537940D01*
X174669394Y-114537940D01*
X174452463Y-114320630D01*
X173897675Y-114090262D01*
X173296960Y-114089738D01*
X172741771Y-114319138D01*
X172345682Y-114714536D01*
X171952463Y-114320630D01*
X171807455Y-114260417D01*
X171721790Y-114132210D01*
X171721787Y-114132208D01*
X170785790Y-113196210D01*
X170733582Y-113161326D01*
X170498675Y-113004367D01*
X170440569Y-112992809D01*
X170160000Y-112936999D01*
X170159995Y-112937000D01*
X161508381Y-112937000D01*
X161336717Y-112837287D01*
X161337326Y-112138695D01*
X161050957Y-111445628D01*
X160521161Y-110914907D01*
X159828595Y-110627328D01*
X159078695Y-110626674D01*
X158385628Y-110913043D01*
X157854907Y-111442839D01*
X157567328Y-112135405D01*
X157566674Y-112885305D01*
X157853043Y-113578372D01*
X158382839Y-114109093D01*
X159075405Y-114396672D01*
X159825305Y-114397326D01*
X160218669Y-114234791D01*
X160825488Y-114587267D01*
X160881818Y-114606554D01*
X160931325Y-114639633D01*
X161043742Y-114661994D01*
X161152180Y-114699122D01*
X161211603Y-114695384D01*
X161270000Y-114707000D01*
X164586000Y-114707000D01*
X164586000Y-115314250D01*
X164744750Y-115473000D01*
X165969000Y-115473000D01*
X165969000Y-115453000D01*
X166223000Y-115453000D01*
X166223000Y-115473000D01*
X166243000Y-115473000D01*
X166243000Y-115727000D01*
X166223000Y-115727000D01*
X166223000Y-115747000D01*
X165969000Y-115747000D01*
X165969000Y-115727000D01*
X164744750Y-115727000D01*
X164586000Y-115885750D01*
X164586000Y-116601310D01*
X164682673Y-116834699D01*
X164848975Y-117001000D01*
X160112579Y-117001000D01*
X159355790Y-116244210D01*
X159218797Y-116152675D01*
X159068675Y-116052367D01*
X158978073Y-116034345D01*
X158730000Y-115984999D01*
X158729995Y-115985000D01*
X156057839Y-115985000D01*
X156306388Y-115336194D01*
X156286250Y-114586565D01*
X156038123Y-113987533D01*
X155745320Y-113858285D01*
X154591605Y-115012000D01*
X154605748Y-115026143D01*
X154426143Y-115205748D01*
X154412000Y-115191605D01*
X154397858Y-115205748D01*
X154218253Y-115026143D01*
X154232395Y-115012000D01*
X153078680Y-113858285D01*
X153011000Y-113888160D01*
X153011000Y-113678680D01*
X153258285Y-113678680D01*
X154412000Y-114832395D01*
X155565715Y-113678680D01*
X155436467Y-113385877D01*
X154736194Y-113117612D01*
X153986565Y-113137750D01*
X153387533Y-113385877D01*
X153258285Y-113678680D01*
X153011000Y-113678680D01*
X153011000Y-111276675D01*
X153342839Y-111609093D01*
X154035405Y-111896672D01*
X154785305Y-111897326D01*
X155478372Y-111610957D01*
X156009093Y-111081161D01*
X156296672Y-110388595D01*
X156297326Y-109638695D01*
X156010957Y-108945628D01*
X155481161Y-108414907D01*
X154788595Y-108127328D01*
X154038695Y-108126674D01*
X153955605Y-108161006D01*
X153180744Y-107285515D01*
X153011000Y-106985198D01*
X153011000Y-105948000D01*
X156079000Y-105948000D01*
X156203457Y-106573687D01*
X156557880Y-107104120D01*
X157088313Y-107458543D01*
X157714000Y-107583000D01*
X163785995Y-107583000D01*
X163786000Y-107583001D01*
X164411688Y-107458543D01*
X164942120Y-107104120D01*
X165237240Y-106809000D01*
X172264760Y-106809000D01*
X173097000Y-107641239D01*
X173097000Y-108889435D01*
X172923091Y-109063041D01*
X172597372Y-109847459D01*
X172596630Y-110696815D01*
X172920980Y-111481800D01*
X173521041Y-112082909D01*
X174305459Y-112408628D01*
X175154815Y-112409370D01*
X175939800Y-112085020D01*
X176110976Y-111914142D01*
X176118672Y-111909000D01*
X180666760Y-111909000D01*
X182495000Y-113737240D01*
X182495000Y-118224761D01*
X181449880Y-119269880D01*
X181095457Y-119800312D01*
X180970999Y-120426000D01*
X180971000Y-120426005D01*
X180971000Y-123727995D01*
X180970999Y-123728000D01*
X181095457Y-124353688D01*
X181449880Y-124884120D01*
X184781000Y-128215239D01*
X184781000Y-133115000D01*
X184638000Y-133115000D01*
X184050581Y-133231845D01*
X183552591Y-133564591D01*
X182790591Y-134326591D01*
X182457845Y-134824581D01*
X182341000Y-135412000D01*
X182341000Y-135920000D01*
X182428560Y-136360193D01*
X182428560Y-136720000D01*
X182472838Y-136955317D01*
X182611910Y-137171441D01*
X182618548Y-137175977D01*
X182429035Y-137703223D01*
X182456222Y-138273454D01*
X182622136Y-138674005D01*
X182868255Y-138748139D01*
X183696395Y-137920000D01*
X183682252Y-137905858D01*
X183861858Y-137726253D01*
X183876000Y-137740395D01*
X183890143Y-137726253D01*
X184069748Y-137905858D01*
X184055605Y-137920000D01*
X184883745Y-138748139D01*
X185129864Y-138674005D01*
X185322965Y-138136777D01*
X185295778Y-137566546D01*
X185179175Y-137285041D01*
X187056086Y-137285041D01*
X187295611Y-137791134D01*
X187710577Y-138167041D01*
X188098961Y-138327904D01*
X188321000Y-138205915D01*
X188321000Y-137063000D01*
X188575000Y-137063000D01*
X188575000Y-138205915D01*
X188797039Y-138327904D01*
X189185423Y-138167041D01*
X189600389Y-137791134D01*
X189839914Y-137285041D01*
X189718629Y-137063000D01*
X188575000Y-137063000D01*
X188321000Y-137063000D01*
X187177371Y-137063000D01*
X187056086Y-137285041D01*
X185179175Y-137285041D01*
X185133616Y-137175053D01*
X185272431Y-136971890D01*
X185323440Y-136720000D01*
X185323440Y-136360193D01*
X185358288Y-136185000D01*
X185913267Y-136185000D01*
X186416000Y-136285000D01*
X186918733Y-136185000D01*
X187246326Y-136185000D01*
X187056086Y-136586959D01*
X187177371Y-136809000D01*
X188321000Y-136809000D01*
X188321000Y-136789000D01*
X188575000Y-136789000D01*
X188575000Y-136809000D01*
X189718629Y-136809000D01*
X189839914Y-136586959D01*
X189649674Y-136185000D01*
X191750000Y-136185000D01*
X192337419Y-136068155D01*
X192835409Y-135735409D01*
X192949289Y-135621529D01*
X193671000Y-136343239D01*
X193671000Y-137444000D01*
X193795457Y-138069687D01*
X194149880Y-138600120D01*
X194507195Y-138838869D01*
X194477861Y-138936255D01*
X195306000Y-139764395D01*
X196134139Y-138936255D01*
X196104805Y-138838869D01*
X196462120Y-138600120D01*
X196816543Y-138069687D01*
X196941000Y-137444000D01*
X196941000Y-135666000D01*
X196863362Y-135275687D01*
X196846269Y-135189750D01*
X199775000Y-135189750D01*
X199775000Y-136530309D01*
X199871673Y-136763698D01*
X200050301Y-136942327D01*
X200283690Y-137039000D01*
X201624250Y-137039000D01*
X201783000Y-136880250D01*
X201783000Y-135031000D01*
X199933750Y-135031000D01*
X199775000Y-135189750D01*
X196846269Y-135189750D01*
X196816543Y-135040312D01*
X196612382Y-134734764D01*
X196462120Y-134509880D01*
X196462117Y-134509878D01*
X195229931Y-133277691D01*
X199775000Y-133277691D01*
X199775000Y-134618250D01*
X199933750Y-134777000D01*
X201783000Y-134777000D01*
X201783000Y-132927750D01*
X201624250Y-132769000D01*
X200283690Y-132769000D01*
X200050301Y-132865673D01*
X199871673Y-133044302D01*
X199775000Y-133277691D01*
X195229931Y-133277691D01*
X194655000Y-132702760D01*
X194655000Y-130840000D01*
X194564444Y-130384742D01*
X199656954Y-130384742D01*
X199910034Y-130927576D01*
X200351583Y-131332240D01*
X200783260Y-131511036D01*
X201021000Y-131390378D01*
X201021000Y-130147000D01*
X201275000Y-130147000D01*
X201275000Y-131390378D01*
X201512740Y-131511036D01*
X201944417Y-131332240D01*
X202385966Y-130927576D01*
X202639046Y-130384742D01*
X202518997Y-130147000D01*
X201275000Y-130147000D01*
X201021000Y-130147000D01*
X199777003Y-130147000D01*
X199656954Y-130384742D01*
X194564444Y-130384742D01*
X194530543Y-130214313D01*
X194176120Y-129683880D01*
X193802031Y-129433922D01*
X194031353Y-129205000D01*
X196208589Y-129205000D01*
X196362591Y-129435481D01*
X196860581Y-129768227D01*
X197448000Y-129885072D01*
X198035419Y-129768227D01*
X198204489Y-129655258D01*
X199656954Y-129655258D01*
X199777003Y-129893000D01*
X201021000Y-129893000D01*
X201021000Y-128649622D01*
X201275000Y-128649622D01*
X201275000Y-129893000D01*
X202518997Y-129893000D01*
X202639046Y-129655258D01*
X202385966Y-129112424D01*
X201944417Y-128707760D01*
X201512740Y-128528964D01*
X201275000Y-128649622D01*
X201021000Y-128649622D01*
X200783260Y-128528964D01*
X200351583Y-128707760D01*
X199910034Y-129112424D01*
X199656954Y-129655258D01*
X198204489Y-129655258D01*
X198533409Y-129435481D01*
X198866155Y-128937491D01*
X198983000Y-128350072D01*
X198983000Y-128289928D01*
X198866155Y-127702509D01*
X198533409Y-127204519D01*
X198204490Y-126984742D01*
X199656954Y-126984742D01*
X199910034Y-127527576D01*
X200351583Y-127932240D01*
X200783260Y-128111036D01*
X201021000Y-127990378D01*
X201021000Y-126747000D01*
X199777003Y-126747000D01*
X199656954Y-126984742D01*
X198204490Y-126984742D01*
X198035419Y-126871773D01*
X197448000Y-126754928D01*
X196860581Y-126871773D01*
X196362591Y-127204519D01*
X196208589Y-127435000D01*
X194071098Y-127435000D01*
X193788548Y-127151957D01*
X193290709Y-126945236D01*
X192916489Y-126944909D01*
X192423430Y-126451850D01*
X192942000Y-126555000D01*
X197448000Y-126555000D01*
X198073687Y-126430543D01*
X198604120Y-126076120D01*
X198958543Y-125545687D01*
X199083000Y-124920000D01*
X198958543Y-124294313D01*
X198654313Y-123839000D01*
X199382127Y-123839000D01*
X199383457Y-123845687D01*
X199613815Y-124190443D01*
X199644838Y-124355317D01*
X199783910Y-124571441D01*
X199996110Y-124716431D01*
X200248000Y-124767440D01*
X200383200Y-124767440D01*
X200756011Y-125140250D01*
X200351583Y-125307760D01*
X199910034Y-125712424D01*
X199656954Y-126255258D01*
X199777003Y-126493000D01*
X201021000Y-126493000D01*
X201021000Y-126473000D01*
X201275000Y-126473000D01*
X201275000Y-126493000D01*
X201295000Y-126493000D01*
X201295000Y-126747000D01*
X201275000Y-126747000D01*
X201275000Y-127990378D01*
X201512740Y-128111036D01*
X201944417Y-127932240D01*
X202385966Y-127527576D01*
X202626790Y-127011030D01*
X203069000Y-127453239D01*
X203069000Y-132769000D01*
X202195750Y-132769000D01*
X202037000Y-132927750D01*
X202037000Y-134777000D01*
X202057000Y-134777000D01*
X202057000Y-135031000D01*
X202037000Y-135031000D01*
X202037000Y-136880250D01*
X202195750Y-137039000D01*
X203069000Y-137039000D01*
X203069000Y-137274760D01*
X202448075Y-137895685D01*
X202336541Y-137849372D01*
X201487185Y-137848630D01*
X200702200Y-138172980D01*
X200101091Y-138773041D01*
X199775372Y-139557459D01*
X199775154Y-139806606D01*
X197930760Y-141651000D01*
X194459239Y-141651000D01*
X193759985Y-140951745D01*
X194477861Y-140951745D01*
X194551995Y-141197864D01*
X195089223Y-141390965D01*
X195659454Y-141363778D01*
X196060005Y-141197864D01*
X196134139Y-140951745D01*
X195306000Y-140123605D01*
X194477861Y-140951745D01*
X193759985Y-140951745D01*
X192761905Y-139953665D01*
X192745162Y-139864683D01*
X192656709Y-139727223D01*
X193859035Y-139727223D01*
X193886222Y-140297454D01*
X194052136Y-140698005D01*
X194298255Y-140772139D01*
X195126395Y-139944000D01*
X195485605Y-139944000D01*
X196313745Y-140772139D01*
X196559864Y-140698005D01*
X196752965Y-140160777D01*
X196725778Y-139590546D01*
X196559864Y-139189995D01*
X196313745Y-139115861D01*
X195485605Y-139944000D01*
X195126395Y-139944000D01*
X194298255Y-139115861D01*
X194052136Y-139189995D01*
X193859035Y-139727223D01*
X192656709Y-139727223D01*
X192606090Y-139648559D01*
X192393890Y-139503569D01*
X192142000Y-139452560D01*
X191936196Y-139452560D01*
X191496000Y-139364999D01*
X191495995Y-139365000D01*
X191242000Y-139365000D01*
X190801807Y-139452560D01*
X190342000Y-139452560D01*
X190106683Y-139496838D01*
X189890559Y-139635910D01*
X189745569Y-139848110D01*
X189694560Y-140100000D01*
X189694560Y-140559807D01*
X189607000Y-141000000D01*
X189694560Y-141440193D01*
X189694560Y-141900000D01*
X189738838Y-142135317D01*
X189877910Y-142351441D01*
X190090110Y-142496431D01*
X190342000Y-142547440D01*
X190731200Y-142547440D01*
X192625878Y-144442117D01*
X192625880Y-144442120D01*
X192943851Y-144654581D01*
X193156312Y-144796543D01*
X193782000Y-144921000D01*
X198607995Y-144921000D01*
X198608000Y-144921001D01*
X199233688Y-144796543D01*
X199764120Y-144442120D01*
X202087084Y-142119155D01*
X202332815Y-142119370D01*
X203117800Y-141795020D01*
X203663972Y-141249800D01*
X203828120Y-141140120D01*
X205860120Y-139108120D01*
X206214543Y-138577688D01*
X206339001Y-137952000D01*
X206339000Y-137951995D01*
X206339000Y-126776000D01*
X206214543Y-126150313D01*
X205860120Y-125619880D01*
X205860117Y-125619878D01*
X202695440Y-122455200D01*
X202695440Y-122320000D01*
X202651162Y-122084683D01*
X202512090Y-121868559D01*
X202299890Y-121723569D01*
X202048000Y-121672560D01*
X201912800Y-121672560D01*
X201288120Y-121047880D01*
X200757688Y-120693457D01*
X200132000Y-120568999D01*
X200131995Y-120569000D01*
X196156921Y-120569000D01*
X196150556Y-120537000D01*
X196054543Y-120054312D01*
X195875931Y-119787001D01*
X195700120Y-119523880D01*
X195700117Y-119523878D01*
X193893000Y-117716760D01*
X193893000Y-115750669D01*
X193909441Y-115740090D01*
X194054431Y-115527890D01*
X194085761Y-115373175D01*
X196140430Y-115373175D01*
X196263565Y-115660788D01*
X196945734Y-115920707D01*
X197675443Y-115899786D01*
X198252435Y-115660788D01*
X198375570Y-115373175D01*
X197258000Y-114255605D01*
X196140430Y-115373175D01*
X194085761Y-115373175D01*
X194105440Y-115276000D01*
X194105440Y-113763734D01*
X195413293Y-113763734D01*
X195434214Y-114493443D01*
X195673212Y-115070435D01*
X195960825Y-115193570D01*
X197078395Y-114076000D01*
X197437605Y-114076000D01*
X198555175Y-115193570D01*
X198842788Y-115070435D01*
X199102707Y-114388266D01*
X199081786Y-113658557D01*
X198842788Y-113081565D01*
X198555175Y-112958430D01*
X197437605Y-114076000D01*
X197078395Y-114076000D01*
X195960825Y-112958430D01*
X195673212Y-113081565D01*
X195413293Y-113763734D01*
X194105440Y-113763734D01*
X194105440Y-112876000D01*
X194087156Y-112778825D01*
X196140430Y-112778825D01*
X197258000Y-113896395D01*
X198375570Y-112778825D01*
X198252435Y-112491212D01*
X197570266Y-112231293D01*
X196840557Y-112252214D01*
X196263565Y-112491212D01*
X196140430Y-112778825D01*
X194087156Y-112778825D01*
X194061162Y-112640683D01*
X193922090Y-112424559D01*
X193709890Y-112279569D01*
X193639000Y-112265213D01*
X193639000Y-104073805D01*
X198343805Y-104073805D01*
X198576358Y-104635258D01*
X199067224Y-105156492D01*
X199720193Y-105450203D01*
X200005000Y-105333858D01*
X200005000Y-103789000D01*
X200259000Y-103789000D01*
X200259000Y-105333858D01*
X200543807Y-105450203D01*
X201196776Y-105156492D01*
X201687642Y-104635258D01*
X201920195Y-104073805D01*
X201803432Y-103789000D01*
X200259000Y-103789000D01*
X200005000Y-103789000D01*
X198460568Y-103789000D01*
X198343805Y-104073805D01*
X193639000Y-104073805D01*
X193639000Y-103250195D01*
X198343805Y-103250195D01*
X198460568Y-103535000D01*
X200005000Y-103535000D01*
X200005000Y-101990142D01*
X200259000Y-101990142D01*
X200259000Y-103535000D01*
X201803432Y-103535000D01*
X201920195Y-103250195D01*
X201687642Y-102688742D01*
X201196776Y-102167508D01*
X200543807Y-101873797D01*
X200259000Y-101990142D01*
X200005000Y-101990142D01*
X199720193Y-101873797D01*
X199067224Y-102167508D01*
X198576358Y-102688742D01*
X198343805Y-103250195D01*
X193639000Y-103250195D01*
X193639000Y-99880608D01*
X193675861Y-99843747D01*
X193749995Y-100089864D01*
X194287223Y-100282965D01*
X194857454Y-100255778D01*
X195258005Y-100089864D01*
X195332139Y-99843745D01*
X194504000Y-99015605D01*
X194489858Y-99029748D01*
X194310252Y-98850142D01*
X194324395Y-98836000D01*
X194683605Y-98836000D01*
X195511745Y-99664139D01*
X195757864Y-99590005D01*
X195950965Y-99052777D01*
X195923778Y-98482546D01*
X195757864Y-98081995D01*
X195511745Y-98007861D01*
X194683605Y-98836000D01*
X194324395Y-98836000D01*
X193496255Y-98007861D01*
X193398869Y-98037195D01*
X193259261Y-97828255D01*
X193675861Y-97828255D01*
X194504000Y-98656395D01*
X195332139Y-97828255D01*
X195312942Y-97764521D01*
X200894604Y-97764521D01*
X201241742Y-98604658D01*
X201883961Y-99247999D01*
X202723491Y-99596603D01*
X203632521Y-99597396D01*
X204472658Y-99250258D01*
X205115999Y-98608039D01*
X205464603Y-97768509D01*
X205465396Y-96859479D01*
X205118258Y-96019342D01*
X204476039Y-95376001D01*
X203636509Y-95027397D01*
X202727479Y-95026604D01*
X201887342Y-95373742D01*
X201244001Y-96015961D01*
X200895397Y-96855491D01*
X200894604Y-97764521D01*
X195312942Y-97764521D01*
X195258005Y-97582136D01*
X194720777Y-97389035D01*
X194150546Y-97416222D01*
X193749995Y-97582136D01*
X193675861Y-97828255D01*
X193259261Y-97828255D01*
X193160120Y-97679880D01*
X192629687Y-97325457D01*
X192004000Y-97201000D01*
X191378313Y-97325457D01*
X190847880Y-97679880D01*
X190493457Y-98210313D01*
X190369000Y-98836000D01*
X190369000Y-113821995D01*
X190368999Y-113822000D01*
X190410560Y-114030940D01*
X190410560Y-115276000D01*
X190454838Y-115511317D01*
X190593910Y-115727441D01*
X190623000Y-115747317D01*
X190623000Y-118393995D01*
X190622999Y-118394000D01*
X190651991Y-118539752D01*
X189067000Y-116954760D01*
X189067000Y-105336669D01*
X189083441Y-105326090D01*
X189228431Y-105113890D01*
X189279440Y-104862000D01*
X189279440Y-102462000D01*
X189235162Y-102226683D01*
X189096090Y-102010559D01*
X188883890Y-101865569D01*
X188632000Y-101814560D01*
X187836236Y-101814560D01*
X182440810Y-96868753D01*
X182197936Y-96721313D01*
X181961687Y-96563457D01*
X181926313Y-96556421D01*
X181895483Y-96537705D01*
X181614672Y-96494431D01*
X181336000Y-96439000D01*
X176116565Y-96439000D01*
X175942959Y-96265091D01*
X175158541Y-95939372D01*
X174309185Y-95938630D01*
X173524200Y-96262980D01*
X172923091Y-96863041D01*
X172597372Y-97647459D01*
X172596630Y-98496815D01*
X172920980Y-99281800D01*
X173521041Y-99882909D01*
X174305459Y-100208628D01*
X175154815Y-100209370D01*
X175939800Y-99885020D01*
X176116127Y-99709000D01*
X180700011Y-99709000D01*
X185584560Y-104186503D01*
X185584560Y-104862000D01*
X185628838Y-105097317D01*
X185767910Y-105313441D01*
X185797000Y-105333317D01*
X185797000Y-117631995D01*
X185796999Y-117632000D01*
X185921457Y-118257688D01*
X186275880Y-118788120D01*
X189353000Y-121865239D01*
X189353000Y-122207134D01*
X188948691Y-122039250D01*
X188377813Y-122038752D01*
X187850200Y-122256757D01*
X187506519Y-122599839D01*
X187318120Y-122317880D01*
X186787687Y-121963457D01*
X186162000Y-121839000D01*
X184241000Y-121839000D01*
X184241000Y-121103240D01*
X185286117Y-120058122D01*
X185286120Y-120058120D01*
X185640543Y-119527687D01*
X185765000Y-118902000D01*
X185765000Y-113060005D01*
X185765001Y-113060000D01*
X185640543Y-112434312D01*
X185286120Y-111903880D01*
X182500120Y-109117880D01*
X181969688Y-108763457D01*
X181344000Y-108638999D01*
X181343995Y-108639000D01*
X176367000Y-108639000D01*
X176367000Y-106964000D01*
X176314316Y-106699138D01*
X176242543Y-106338312D01*
X176100581Y-106125851D01*
X175888120Y-105807880D01*
X175888117Y-105807878D01*
X174098120Y-104017880D01*
X173567688Y-103663457D01*
X172942000Y-103538999D01*
X172941995Y-103539000D01*
X165237239Y-103539000D01*
X164458120Y-102759880D01*
X164458117Y-102759878D01*
X163786120Y-102087880D01*
X163738228Y-102055880D01*
X163702978Y-102010329D01*
X160865271Y-99542252D01*
X160865370Y-99429185D01*
X160541020Y-98644200D01*
X159940959Y-98043091D01*
X159156541Y-97717372D01*
X158307185Y-97716630D01*
X157522200Y-98040980D01*
X156921091Y-98641041D01*
X156595372Y-99425459D01*
X156594630Y-100274815D01*
X156918980Y-101059800D01*
X157519041Y-101660909D01*
X158303459Y-101986628D01*
X158693303Y-101986969D01*
X161367690Y-104313000D01*
X157714000Y-104313000D01*
X157088313Y-104437457D01*
X156557880Y-104791880D01*
X156203457Y-105322313D01*
X156079000Y-105948000D01*
X153011000Y-105948000D01*
X153011000Y-102138000D01*
X152998664Y-102075984D01*
X153002106Y-102012842D01*
X152993016Y-101987000D01*
X153364250Y-101987000D01*
X153523000Y-101828250D01*
X153523000Y-99979000D01*
X153777000Y-99979000D01*
X153777000Y-101828250D01*
X153935750Y-101987000D01*
X155276309Y-101987000D01*
X155509698Y-101890327D01*
X155688327Y-101711699D01*
X155785000Y-101478310D01*
X155785000Y-100137750D01*
X155626250Y-99979000D01*
X153777000Y-99979000D01*
X153523000Y-99979000D01*
X153503000Y-99979000D01*
X153503000Y-99725000D01*
X153523000Y-99725000D01*
X153523000Y-97875750D01*
X153777000Y-97875750D01*
X153777000Y-99725000D01*
X155626250Y-99725000D01*
X155785000Y-99566250D01*
X155785000Y-98225690D01*
X155688327Y-97992301D01*
X155509698Y-97813673D01*
X155276309Y-97717000D01*
X153935750Y-97717000D01*
X153777000Y-97875750D01*
X153523000Y-97875750D01*
X153364250Y-97717000D01*
X152023691Y-97717000D01*
X151978256Y-97735820D01*
X151927633Y-97481325D01*
X151865967Y-97389035D01*
X151735790Y-97194210D01*
X151735787Y-97194208D01*
X150465790Y-95924210D01*
X150417859Y-95892184D01*
X150178675Y-95732367D01*
X150094865Y-95715696D01*
X149840000Y-95664999D01*
X149839995Y-95665000D01*
X144252005Y-95665000D01*
X144252000Y-95664999D01*
X144251995Y-95665000D01*
X135640168Y-95665000D01*
X135610000Y-95658999D01*
X135579832Y-95665000D01*
X125456000Y-95665000D01*
X125309065Y-95694227D01*
X125160768Y-95715696D01*
X125140477Y-95727762D01*
X125117325Y-95732367D01*
X124992745Y-95815608D01*
X124863967Y-95892184D01*
X122850216Y-97704560D01*
X121416000Y-97704560D01*
X121180683Y-97748838D01*
X120964559Y-97887910D01*
X120819569Y-98100110D01*
X120768560Y-98352000D01*
X120768560Y-101352000D01*
X120812838Y-101587317D01*
X120951910Y-101803441D01*
X121164110Y-101948431D01*
X121416000Y-101999440D01*
X122031000Y-101999440D01*
X122031000Y-102391995D01*
X122030999Y-102392000D01*
X122067898Y-102577500D01*
X122098367Y-102730675D01*
X122211185Y-102899520D01*
X122290210Y-103017790D01*
X124068208Y-104795787D01*
X124068210Y-104795790D01*
X124355325Y-104987633D01*
X124387324Y-104993998D01*
X124694000Y-105055001D01*
X124694005Y-105055000D01*
X146429873Y-105055000D01*
X146200120Y-105398849D01*
X146090887Y-105948000D01*
X146200120Y-106497151D01*
X146511189Y-106962698D01*
X146669000Y-107068144D01*
X146669000Y-110407421D01*
X139426000Y-117650420D01*
X138533000Y-116757420D01*
X138533000Y-115728171D01*
X138863824Y-115397923D01*
X139082750Y-114870691D01*
X139083248Y-114299813D01*
X138865243Y-113772200D01*
X138784184Y-113691000D01*
X139679995Y-113691000D01*
X139680000Y-113691001D01*
X139962484Y-113634810D01*
X140018675Y-113623633D01*
X140305790Y-113431790D01*
X140305791Y-113431789D01*
X141629787Y-112107792D01*
X141629790Y-112107790D01*
X141821633Y-111820675D01*
X141832810Y-111764484D01*
X141889001Y-111482000D01*
X141889000Y-111481995D01*
X141889000Y-109230145D01*
X142283370Y-108836463D01*
X142513738Y-108281675D01*
X142514262Y-107680960D01*
X142284862Y-107125771D01*
X141860463Y-106700630D01*
X141305675Y-106470262D01*
X140704960Y-106469738D01*
X140149771Y-106699138D01*
X139753682Y-107094536D01*
X139360463Y-106700630D01*
X138805675Y-106470262D01*
X138204960Y-106469738D01*
X137649771Y-106699138D01*
X137253682Y-107094536D01*
X136860463Y-106700630D01*
X136305675Y-106470262D01*
X135704960Y-106469738D01*
X135149771Y-106699138D01*
X134724630Y-107123537D01*
X134715108Y-107146469D01*
X134566060Y-107097545D01*
X133683605Y-107980000D01*
X134566060Y-108862455D01*
X134714648Y-108813682D01*
X134723138Y-108834229D01*
X135119000Y-109230783D01*
X135119000Y-111289421D01*
X133974210Y-112434210D01*
X133782367Y-112721325D01*
X133782367Y-112721326D01*
X133714999Y-113060000D01*
X133715000Y-113060005D01*
X133715000Y-115995421D01*
X132958210Y-116752210D01*
X132766367Y-117039325D01*
X132766367Y-117039326D01*
X132698999Y-117378000D01*
X132699000Y-117378005D01*
X132699000Y-118535421D01*
X131665466Y-119568954D01*
X131467325Y-119608367D01*
X131403289Y-119651154D01*
X131256849Y-119680283D01*
X130791302Y-119991352D01*
X130536000Y-120373438D01*
X130280698Y-119991352D01*
X130151000Y-119904690D01*
X130151000Y-115600000D01*
X130083633Y-115261325D01*
X129891790Y-114974210D01*
X129891787Y-114974208D01*
X127791790Y-112874210D01*
X127629841Y-112766000D01*
X127504675Y-112682367D01*
X127448484Y-112671190D01*
X127166000Y-112614999D01*
X127165995Y-112615000D01*
X121520558Y-112615000D01*
X121478162Y-112389683D01*
X121339090Y-112173559D01*
X121126890Y-112028569D01*
X120875000Y-111977560D01*
X119125000Y-111977560D01*
X118889683Y-112021838D01*
X118673559Y-112160910D01*
X118536006Y-112362226D01*
X118497086Y-112323306D01*
X118382454Y-112437938D01*
X118299116Y-112184047D01*
X117734694Y-111978410D01*
X117134542Y-112004421D01*
X116700884Y-112184047D01*
X116617545Y-112437940D01*
X113237000Y-112437940D01*
X113237000Y-108265750D01*
X126994000Y-108265750D01*
X126994000Y-108981310D01*
X127090673Y-109214699D01*
X127269302Y-109393327D01*
X127502691Y-109490000D01*
X128218250Y-109490000D01*
X128377000Y-109331250D01*
X128377000Y-108107000D01*
X127152750Y-108107000D01*
X126994000Y-108265750D01*
X113237000Y-108265750D01*
X113237000Y-106978690D01*
X126994000Y-106978690D01*
X126994000Y-107694250D01*
X127152750Y-107853000D01*
X128377000Y-107853000D01*
X128377000Y-106628750D01*
X128631000Y-106628750D01*
X128631000Y-107853000D01*
X128651000Y-107853000D01*
X128651000Y-108107000D01*
X128631000Y-108107000D01*
X128631000Y-109331250D01*
X128789750Y-109490000D01*
X129505309Y-109490000D01*
X129738698Y-109393327D01*
X129917327Y-109214699D01*
X129960556Y-109110336D01*
X130006914Y-109156694D01*
X130121546Y-109042062D01*
X130204884Y-109295953D01*
X130769306Y-109501590D01*
X131369458Y-109475579D01*
X131803116Y-109295953D01*
X131886455Y-109042060D01*
X132621545Y-109042060D01*
X132704884Y-109295953D01*
X133269306Y-109501590D01*
X133869458Y-109475579D01*
X134303116Y-109295953D01*
X134386455Y-109042060D01*
X133504000Y-108159605D01*
X132621545Y-109042060D01*
X131886455Y-109042060D01*
X131004000Y-108159605D01*
X130989858Y-108173748D01*
X130810253Y-107994143D01*
X130824395Y-107980000D01*
X131183605Y-107980000D01*
X132066060Y-108862455D01*
X132254000Y-108800765D01*
X132441940Y-108862455D01*
X133324395Y-107980000D01*
X132441940Y-107097545D01*
X132254000Y-107159235D01*
X132066060Y-107097545D01*
X131183605Y-107980000D01*
X130824395Y-107980000D01*
X130810253Y-107965858D01*
X130989858Y-107786253D01*
X131004000Y-107800395D01*
X131886455Y-106917940D01*
X132621545Y-106917940D01*
X133504000Y-107800395D01*
X134386455Y-106917940D01*
X134303116Y-106664047D01*
X133738694Y-106458410D01*
X133138542Y-106484421D01*
X132704884Y-106664047D01*
X132621545Y-106917940D01*
X131886455Y-106917940D01*
X131803116Y-106664047D01*
X131238694Y-106458410D01*
X130638542Y-106484421D01*
X130204884Y-106664047D01*
X130121546Y-106917938D01*
X130006914Y-106803306D01*
X129960556Y-106849664D01*
X129917327Y-106745301D01*
X129738698Y-106566673D01*
X129505309Y-106470000D01*
X128789750Y-106470000D01*
X128631000Y-106628750D01*
X128377000Y-106628750D01*
X128218250Y-106470000D01*
X127502691Y-106470000D01*
X127269302Y-106566673D01*
X127090673Y-106745301D01*
X126994000Y-106978690D01*
X113237000Y-106978690D01*
X113237000Y-97764521D01*
X114280604Y-97764521D01*
X114627742Y-98604658D01*
X115269961Y-99247999D01*
X116109491Y-99596603D01*
X117018521Y-99597396D01*
X117858658Y-99250258D01*
X118501999Y-98608039D01*
X118850603Y-97768509D01*
X118851396Y-96859479D01*
X118504258Y-96019342D01*
X117862039Y-95376001D01*
X117022509Y-95027397D01*
X116113479Y-95026604D01*
X115273342Y-95373742D01*
X114630001Y-96015961D01*
X114281397Y-96855491D01*
X114280604Y-97764521D01*
X113237000Y-97764521D01*
X113237000Y-94097000D01*
X206483000Y-94097000D01*
X206483000Y-149343000D01*
X206483000Y-149343000D01*
G37*
X206483000Y-149343000D02*
X113237000Y-149343000D01*
X113237000Y-146922521D01*
X113824604Y-146922521D01*
X114171742Y-147762658D01*
X114813961Y-148405999D01*
X115653491Y-148754603D01*
X116562521Y-148755396D01*
X117402658Y-148408258D01*
X118045999Y-147766039D01*
X118394603Y-146926509D01*
X118395396Y-146017479D01*
X118048258Y-145177342D01*
X117624657Y-144753000D01*
X122790999Y-144753000D01*
X122790999Y-148573000D01*
X156061001Y-148573000D01*
X156061001Y-144753000D01*
X145737205Y-144753000D01*
X146136371Y-144588068D01*
X146554169Y-144171000D01*
X147299995Y-144171000D01*
X147300000Y-144171001D01*
X147434370Y-144144272D01*
X147779887Y-144213000D01*
X147836113Y-144213000D01*
X148385264Y-144103767D01*
X148850811Y-143792698D01*
X149161880Y-143327151D01*
X149271113Y-142778000D01*
X149161880Y-142228849D01*
X148850811Y-141763302D01*
X148385264Y-141452233D01*
X147836113Y-141343000D01*
X147779887Y-141343000D01*
X147230736Y-141452233D01*
X146765189Y-141763302D01*
X146454120Y-142228849D01*
X146442074Y-142289411D01*
X146138643Y-141985449D01*
X145574670Y-141751267D01*
X144964009Y-141750735D01*
X144399629Y-141983932D01*
X144222159Y-142161092D01*
X144166327Y-142026301D01*
X143987698Y-141847673D01*
X143754309Y-141751000D01*
X143013750Y-141751000D01*
X142855000Y-141909750D01*
X142855000Y-143159000D01*
X142875000Y-143159000D01*
X142875000Y-143413000D01*
X142855000Y-143413000D01*
X142855000Y-143433000D01*
X142601000Y-143433000D01*
X142601000Y-143413000D01*
X141351750Y-143413000D01*
X141193000Y-143571750D01*
X141193000Y-144312310D01*
X141289673Y-144545699D01*
X141468302Y-144724327D01*
X141537525Y-144753000D01*
X122790999Y-144753000D01*
X117624657Y-144753000D01*
X117406039Y-144534001D01*
X116566509Y-144185397D01*
X115657479Y-144184604D01*
X114817342Y-144531742D01*
X114174001Y-145173961D01*
X113825397Y-146013491D01*
X113824604Y-146922521D01*
X113237000Y-146922521D01*
X113237000Y-143064532D01*
X115157073Y-143064532D01*
X115255736Y-143331387D01*
X115865461Y-143557908D01*
X116515460Y-143533856D01*
X117004264Y-143331387D01*
X117102927Y-143064532D01*
X116130000Y-142091605D01*
X115157073Y-143064532D01*
X113237000Y-143064532D01*
X113237000Y-141647461D01*
X114484092Y-141647461D01*
X114508144Y-142297460D01*
X114710613Y-142786264D01*
X114977468Y-142884927D01*
X115950395Y-141912000D01*
X116309605Y-141912000D01*
X117282532Y-142884927D01*
X117549387Y-142786264D01*
X117775908Y-142176539D01*
X117751856Y-141526540D01*
X117549387Y-141037736D01*
X117282532Y-140939073D01*
X116309605Y-141912000D01*
X115950395Y-141912000D01*
X114977468Y-140939073D01*
X114710613Y-141037736D01*
X114484092Y-141647461D01*
X113237000Y-141647461D01*
X113237000Y-140759468D01*
X115157073Y-140759468D01*
X116130000Y-141732395D01*
X117102927Y-140759468D01*
X117004264Y-140492613D01*
X116394539Y-140266092D01*
X115744540Y-140290144D01*
X115255736Y-140492613D01*
X115157073Y-140759468D01*
X113237000Y-140759468D01*
X113237000Y-136564532D01*
X115157073Y-136564532D01*
X115255736Y-136831387D01*
X115865461Y-137057908D01*
X116515460Y-137033856D01*
X117004264Y-136831387D01*
X117102927Y-136564532D01*
X116130000Y-135591605D01*
X115157073Y-136564532D01*
X113237000Y-136564532D01*
X113237000Y-135147461D01*
X114484092Y-135147461D01*
X114508144Y-135797460D01*
X114710613Y-136286264D01*
X114977468Y-136384927D01*
X115950395Y-135412000D01*
X116309605Y-135412000D01*
X117282532Y-136384927D01*
X117549387Y-136286264D01*
X117775908Y-135676539D01*
X117751856Y-135026540D01*
X117549387Y-134537736D01*
X117282532Y-134439073D01*
X116309605Y-135412000D01*
X115950395Y-135412000D01*
X114977468Y-134439073D01*
X114710613Y-134537736D01*
X114484092Y-135147461D01*
X113237000Y-135147461D01*
X113237000Y-134259468D01*
X115157073Y-134259468D01*
X116130000Y-135232395D01*
X117102927Y-134259468D01*
X117004264Y-133992613D01*
X116394539Y-133766092D01*
X115744540Y-133790144D01*
X115255736Y-133992613D01*
X115157073Y-134259468D01*
X113237000Y-134259468D01*
X113237000Y-130265306D01*
X115978410Y-130265306D01*
X116004421Y-130865458D01*
X116184047Y-131299116D01*
X116437940Y-131382455D01*
X117320395Y-130500000D01*
X116437940Y-129617545D01*
X116184047Y-129700884D01*
X115978410Y-130265306D01*
X113237000Y-130265306D01*
X113237000Y-121765306D01*
X115978410Y-121765306D01*
X116004421Y-122365458D01*
X116184047Y-122799116D01*
X116437940Y-122882455D01*
X117320395Y-122000000D01*
X116437940Y-121117545D01*
X116184047Y-121200884D01*
X115978410Y-121765306D01*
X113237000Y-121765306D01*
X113237000Y-113265306D01*
X115978410Y-113265306D01*
X116004421Y-113865458D01*
X116184047Y-114299116D01*
X116437940Y-114382455D01*
X117320395Y-113500000D01*
X116437940Y-112617545D01*
X116184047Y-112700884D01*
X115978410Y-113265306D01*
X113237000Y-113265306D01*
X113237000Y-112437940D01*
X116617545Y-112437940D01*
X117500000Y-113320395D01*
X117514143Y-113306253D01*
X117693748Y-113485858D01*
X117679605Y-113500000D01*
X117693748Y-113514143D01*
X117514143Y-113693748D01*
X117500000Y-113679605D01*
X116617545Y-114562060D01*
X116700884Y-114815953D01*
X117265306Y-115021590D01*
X117865458Y-114995579D01*
X118299116Y-114815953D01*
X118382454Y-114562062D01*
X118497086Y-114676694D01*
X118538136Y-114635644D01*
X118660910Y-114826441D01*
X118873110Y-114971431D01*
X119125000Y-115022440D01*
X120875000Y-115022440D01*
X121110317Y-114978162D01*
X121326441Y-114839090D01*
X121471431Y-114626890D01*
X121520415Y-114385000D01*
X126799420Y-114385000D01*
X128381000Y-115966579D01*
X128381000Y-119904690D01*
X128251302Y-119991352D01*
X127996000Y-120373438D01*
X127740698Y-119991352D01*
X127275151Y-119680283D01*
X126726000Y-119571050D01*
X126176849Y-119680283D01*
X125711302Y-119991352D01*
X125400233Y-120456899D01*
X125380322Y-120557000D01*
X121168500Y-120557000D01*
X121126890Y-120528569D01*
X120875000Y-120477560D01*
X119125000Y-120477560D01*
X118889683Y-120521838D01*
X118673559Y-120660910D01*
X118536006Y-120862226D01*
X118497086Y-120823306D01*
X118382454Y-120937938D01*
X118299116Y-120684047D01*
X117734694Y-120478410D01*
X117134542Y-120504421D01*
X116700884Y-120684047D01*
X116617545Y-120937940D01*
X117500000Y-121820395D01*
X117514143Y-121806253D01*
X117693748Y-121985858D01*
X117679605Y-122000000D01*
X117693748Y-122014143D01*
X117514143Y-122193748D01*
X117500000Y-122179605D01*
X116617545Y-123062060D01*
X116700884Y-123315953D01*
X117265306Y-123521590D01*
X117865458Y-123495579D01*
X118299116Y-123315953D01*
X118382454Y-123062062D01*
X118497086Y-123176694D01*
X118538136Y-123135644D01*
X118660910Y-123326441D01*
X118873110Y-123471431D01*
X119125000Y-123522440D01*
X120875000Y-123522440D01*
X121110317Y-123478162D01*
X121326441Y-123339090D01*
X121471431Y-123126890D01*
X121522440Y-122875000D01*
X121522440Y-122327000D01*
X125380322Y-122327000D01*
X125400233Y-122427101D01*
X125711302Y-122892648D01*
X126176849Y-123203717D01*
X126726000Y-123312950D01*
X127275151Y-123203717D01*
X127740698Y-122892648D01*
X127996000Y-122510562D01*
X128251302Y-122892648D01*
X128716849Y-123203717D01*
X129266000Y-123312950D01*
X129815151Y-123203717D01*
X130280698Y-122892648D01*
X130536000Y-122510562D01*
X130791302Y-122892648D01*
X131256849Y-123203717D01*
X131806000Y-123312950D01*
X132355151Y-123203717D01*
X132820698Y-122892648D01*
X133076000Y-122510562D01*
X133331302Y-122892648D01*
X133796849Y-123203717D01*
X134346000Y-123312950D01*
X134895151Y-123203717D01*
X135360698Y-122892648D01*
X135616000Y-122510562D01*
X135871302Y-122892648D01*
X136336849Y-123203717D01*
X136886000Y-123312950D01*
X137435151Y-123203717D01*
X137900698Y-122892648D01*
X138156000Y-122510562D01*
X138411302Y-122892648D01*
X138876849Y-123203717D01*
X139426000Y-123312950D01*
X139712134Y-123256034D01*
X139562210Y-123356210D01*
X139562208Y-123356213D01*
X137530210Y-125388210D01*
X137338367Y-125675325D01*
X137338367Y-125675326D01*
X137270999Y-126014000D01*
X137271000Y-126014005D01*
X137271000Y-127179421D01*
X136495790Y-126404210D01*
X136462372Y-126381881D01*
X136208675Y-126212367D01*
X136152484Y-126201190D01*
X135870000Y-126144999D01*
X135869995Y-126145000D01*
X121900005Y-126145000D01*
X121900000Y-126144999D01*
X121617516Y-126201190D01*
X121561325Y-126212367D01*
X121274210Y-126404210D01*
X121274208Y-126404213D01*
X119374210Y-128304210D01*
X119182367Y-128591325D01*
X119175460Y-128626050D01*
X119114999Y-128930000D01*
X119115000Y-128930005D01*
X119115000Y-128979442D01*
X118889683Y-129021838D01*
X118673559Y-129160910D01*
X118536006Y-129362226D01*
X118497086Y-129323306D01*
X118382454Y-129437938D01*
X118299116Y-129184047D01*
X117734694Y-128978410D01*
X117134542Y-129004421D01*
X116700884Y-129184047D01*
X116617545Y-129437940D01*
X117500000Y-130320395D01*
X117514143Y-130306253D01*
X117693748Y-130485858D01*
X117679605Y-130500000D01*
X117693748Y-130514143D01*
X117514143Y-130693748D01*
X117500000Y-130679605D01*
X116617545Y-131562060D01*
X116700884Y-131815953D01*
X117265306Y-132021590D01*
X117865458Y-131995579D01*
X118299116Y-131815953D01*
X118382454Y-131562062D01*
X118497086Y-131676694D01*
X118538136Y-131635644D01*
X118660910Y-131826441D01*
X118873110Y-131971431D01*
X119125000Y-132022440D01*
X120875000Y-132022440D01*
X121110317Y-131978162D01*
X121326441Y-131839090D01*
X121471431Y-131626890D01*
X121522440Y-131375000D01*
X121522440Y-129625000D01*
X121478162Y-129389683D01*
X121339090Y-129173559D01*
X121142408Y-129039172D01*
X122266579Y-127915000D01*
X125278560Y-127915000D01*
X125278560Y-130262000D01*
X125322838Y-130497317D01*
X125461910Y-130713441D01*
X125674110Y-130858431D01*
X125926000Y-130909440D01*
X126466980Y-130909440D01*
X126670179Y-131457606D01*
X126679060Y-131472047D01*
X126682367Y-131488674D01*
X126769196Y-131618624D01*
X126851061Y-131751750D01*
X126864790Y-131761692D01*
X126874210Y-131775790D01*
X128238421Y-133140000D01*
X122017005Y-133140000D01*
X122017000Y-133139999D01*
X121678325Y-133207367D01*
X121391210Y-133399210D01*
X121391208Y-133399213D01*
X120996563Y-133793858D01*
X120956648Y-133777284D01*
X120306205Y-133776716D01*
X119705057Y-134025106D01*
X119244722Y-134484637D01*
X118995284Y-135085352D01*
X118994716Y-135735795D01*
X119243106Y-136336943D01*
X119702637Y-136797278D01*
X119745000Y-136814869D01*
X119745000Y-140508602D01*
X119705057Y-140525106D01*
X119244722Y-140984637D01*
X118995284Y-141585352D01*
X118994716Y-142235795D01*
X119243106Y-142836943D01*
X119702637Y-143297278D01*
X120303352Y-143546716D01*
X120953795Y-143547284D01*
X121554943Y-143298894D01*
X122015278Y-142839363D01*
X122032869Y-142797000D01*
X124035995Y-142797000D01*
X124036000Y-142797001D01*
X124318484Y-142740810D01*
X124374675Y-142729633D01*
X124507563Y-142640840D01*
X124613309Y-142684750D01*
X125184187Y-142685248D01*
X125711800Y-142467243D01*
X125919715Y-142259690D01*
X141193000Y-142259690D01*
X141193000Y-143000250D01*
X141351750Y-143159000D01*
X142601000Y-143159000D01*
X142601000Y-141909750D01*
X142442250Y-141751000D01*
X141701691Y-141751000D01*
X141468302Y-141847673D01*
X141289673Y-142026301D01*
X141193000Y-142259690D01*
X125919715Y-142259690D01*
X126115824Y-142063923D01*
X126334750Y-141536691D01*
X126335248Y-140965813D01*
X126117243Y-140438200D01*
X125713923Y-140034176D01*
X125632069Y-140000187D01*
X125711800Y-139967243D01*
X126044623Y-139635000D01*
X127798420Y-139635000D01*
X127913900Y-139750480D01*
X127880000Y-139920907D01*
X127880000Y-139979093D01*
X127993039Y-140547378D01*
X128314946Y-141029147D01*
X128796715Y-141351054D01*
X129365000Y-141464093D01*
X129933285Y-141351054D01*
X130415054Y-141029147D01*
X130635000Y-140699974D01*
X130854946Y-141029147D01*
X131336715Y-141351054D01*
X131905000Y-141464093D01*
X132473285Y-141351054D01*
X132955054Y-141029147D01*
X133175000Y-140699974D01*
X133394946Y-141029147D01*
X133876715Y-141351054D01*
X134445000Y-141464093D01*
X135013285Y-141351054D01*
X135495054Y-141029147D01*
X135722702Y-140688447D01*
X135789817Y-140831358D01*
X136218076Y-141221645D01*
X136628110Y-141391476D01*
X136858000Y-141270155D01*
X136858000Y-140077000D01*
X136838000Y-140077000D01*
X136838000Y-139823000D01*
X136858000Y-139823000D01*
X136858000Y-138629845D01*
X136628110Y-138508524D01*
X136218076Y-138678355D01*
X135789817Y-139068642D01*
X135722702Y-139211553D01*
X135495054Y-138870853D01*
X135441506Y-138835074D01*
X136600787Y-137675792D01*
X136600790Y-137675790D01*
X136792633Y-137388675D01*
X136835844Y-137171441D01*
X136860001Y-137050000D01*
X136860000Y-137049995D01*
X136860000Y-133000000D01*
X136853923Y-132969447D01*
X136857864Y-132938545D01*
X136820429Y-132801063D01*
X136792633Y-132661325D01*
X136775327Y-132635424D01*
X136767142Y-132605366D01*
X136679951Y-132492683D01*
X136600790Y-132374210D01*
X136574887Y-132356902D01*
X136555824Y-132332266D01*
X134835247Y-130835633D01*
X134895151Y-130823717D01*
X135360698Y-130512648D01*
X135616000Y-130130562D01*
X135871302Y-130512648D01*
X136336849Y-130823717D01*
X136886000Y-130932950D01*
X137435151Y-130823717D01*
X137438936Y-130821188D01*
X137468516Y-130865458D01*
X137530210Y-130957790D01*
X138800208Y-132227787D01*
X138800210Y-132227790D01*
X138915000Y-132304490D01*
X138915000Y-132880829D01*
X138584176Y-133211077D01*
X138365250Y-133738309D01*
X138364752Y-134309187D01*
X138582757Y-134836800D01*
X138915000Y-135169623D01*
X138915000Y-138452560D01*
X138675000Y-138452560D01*
X138439683Y-138496838D01*
X138223559Y-138635910D01*
X138078569Y-138848110D01*
X138056699Y-138956107D01*
X137751924Y-138678355D01*
X137341890Y-138508524D01*
X137112000Y-138629845D01*
X137112000Y-139823000D01*
X137132000Y-139823000D01*
X137132000Y-140077000D01*
X137112000Y-140077000D01*
X137112000Y-141270155D01*
X137341890Y-141391476D01*
X137751924Y-141221645D01*
X138054937Y-140945499D01*
X138071838Y-141035317D01*
X138210910Y-141251441D01*
X138423110Y-141396431D01*
X138675000Y-141447440D01*
X140375000Y-141447440D01*
X140610317Y-141403162D01*
X140826441Y-141264090D01*
X140971431Y-141051890D01*
X141022440Y-140800000D01*
X141022440Y-140229745D01*
X143209861Y-140229745D01*
X143283995Y-140475864D01*
X143821223Y-140668965D01*
X144391454Y-140641778D01*
X144792005Y-140475864D01*
X144866139Y-140229745D01*
X144038000Y-139401605D01*
X143209861Y-140229745D01*
X141022440Y-140229745D01*
X141022440Y-139100000D01*
X141004607Y-139005223D01*
X142591035Y-139005223D01*
X142618222Y-139575454D01*
X142784136Y-139976005D01*
X143030255Y-140050139D01*
X143858395Y-139222000D01*
X143030255Y-138393861D01*
X142784136Y-138467995D01*
X142591035Y-139005223D01*
X141004607Y-139005223D01*
X140978162Y-138864683D01*
X140839090Y-138648559D01*
X140685000Y-138543274D01*
X140685000Y-138214255D01*
X143209861Y-138214255D01*
X144038000Y-139042395D01*
X144866139Y-138214255D01*
X144792005Y-137968136D01*
X144254777Y-137775035D01*
X143684546Y-137802222D01*
X143283995Y-137968136D01*
X143209861Y-138214255D01*
X140685000Y-138214255D01*
X140685000Y-135169171D01*
X141015824Y-134838923D01*
X141234750Y-134311691D01*
X141235248Y-133740813D01*
X141017243Y-133213200D01*
X140685000Y-132880377D01*
X140685000Y-131848580D01*
X141661248Y-130872331D01*
X141966000Y-130932950D01*
X142515151Y-130823717D01*
X142980698Y-130512648D01*
X143233507Y-130134293D01*
X143581104Y-130566500D01*
X144074181Y-130836367D01*
X144156961Y-130853904D01*
X144379000Y-130731915D01*
X144379000Y-129189000D01*
X144359000Y-129189000D01*
X144359000Y-128935000D01*
X144379000Y-128935000D01*
X144379000Y-127392085D01*
X144156961Y-127270096D01*
X144074181Y-127287633D01*
X143581104Y-127557500D01*
X143233507Y-127989707D01*
X142980698Y-127611352D01*
X142851000Y-127524690D01*
X142851000Y-127396580D01*
X143094579Y-127153000D01*
X149473420Y-127153000D01*
X149523836Y-127203415D01*
X149036849Y-127300283D01*
X148571302Y-127611352D01*
X148316000Y-127993438D01*
X148060698Y-127611352D01*
X147595151Y-127300283D01*
X147046000Y-127191050D01*
X146496849Y-127300283D01*
X146031302Y-127611352D01*
X145778493Y-127989707D01*
X145430896Y-127557500D01*
X144937819Y-127287633D01*
X144855039Y-127270096D01*
X144633000Y-127392085D01*
X144633000Y-128935000D01*
X144653000Y-128935000D01*
X144653000Y-129189000D01*
X144633000Y-129189000D01*
X144633000Y-130731915D01*
X144855039Y-130853904D01*
X144937819Y-130836367D01*
X145430896Y-130566500D01*
X145778493Y-130134293D01*
X146031302Y-130512648D01*
X146458033Y-130797781D01*
X146867318Y-133081103D01*
X146723348Y-133225072D01*
X146365715Y-133224760D01*
X145856485Y-133435169D01*
X145466539Y-133824436D01*
X145255241Y-134333298D01*
X145254760Y-134884285D01*
X145465169Y-135393515D01*
X145731553Y-135660364D01*
X145678654Y-138052220D01*
X145322176Y-138408077D01*
X145294577Y-138474544D01*
X145291864Y-138467995D01*
X145045745Y-138393861D01*
X144217605Y-139222000D01*
X145045745Y-140050139D01*
X145291864Y-139976005D01*
X145294196Y-139969517D01*
X145320757Y-140033800D01*
X145724077Y-140437824D01*
X146251309Y-140656750D01*
X146822187Y-140657248D01*
X147349800Y-140439243D01*
X147559663Y-140229745D01*
X148289861Y-140229745D01*
X148363995Y-140475864D01*
X148901223Y-140668965D01*
X149471454Y-140641778D01*
X149872005Y-140475864D01*
X149946139Y-140229745D01*
X149118000Y-139401605D01*
X148289861Y-140229745D01*
X147559663Y-140229745D01*
X147753824Y-140035923D01*
X147821473Y-139873007D01*
X147864136Y-139976005D01*
X148110255Y-140050139D01*
X148938395Y-139222000D01*
X148110255Y-138393861D01*
X147864136Y-138467995D01*
X147824587Y-138578025D01*
X147755243Y-138410200D01*
X147559640Y-138214255D01*
X148289861Y-138214255D01*
X149118000Y-139042395D01*
X149946139Y-138214255D01*
X149872005Y-137968136D01*
X149334777Y-137775035D01*
X148764546Y-137802222D01*
X148363995Y-137968136D01*
X148289861Y-138214255D01*
X147559640Y-138214255D01*
X147447978Y-138102399D01*
X147500943Y-135707537D01*
X147813461Y-135395564D01*
X148024759Y-134886702D01*
X148025161Y-134426419D01*
X148445789Y-134005790D01*
X148489589Y-133940239D01*
X148546385Y-133885559D01*
X148584591Y-133798057D01*
X148637633Y-133718674D01*
X148653014Y-133641351D01*
X148684561Y-133569100D01*
X148686373Y-133473645D01*
X148705001Y-133380000D01*
X148689619Y-133302674D01*
X148691116Y-133223853D01*
X148174582Y-130342208D01*
X148316000Y-130130562D01*
X148571302Y-130512648D01*
X148992909Y-130794357D01*
X149488455Y-133603732D01*
X149523503Y-133693843D01*
X149542367Y-133788674D01*
X149585490Y-133853213D01*
X149613628Y-133925556D01*
X149680492Y-133995395D01*
X149734210Y-134075790D01*
X150135116Y-134476695D01*
X150134760Y-134884285D01*
X150345169Y-135393515D01*
X150658111Y-135707002D01*
X150708997Y-138101790D01*
X150402176Y-138408077D01*
X150374577Y-138474544D01*
X150371864Y-138467995D01*
X150125745Y-138393861D01*
X149297605Y-139222000D01*
X150125745Y-140050139D01*
X150371864Y-139976005D01*
X150374196Y-139969517D01*
X150400757Y-140033800D01*
X150804077Y-140437824D01*
X151331309Y-140656750D01*
X151902187Y-140657248D01*
X152429800Y-140439243D01*
X152639663Y-140229745D01*
X154131861Y-140229745D01*
X154205995Y-140475864D01*
X154743223Y-140668965D01*
X155313454Y-140641778D01*
X155714005Y-140475864D01*
X155788139Y-140229745D01*
X154960000Y-139401605D01*
X154131861Y-140229745D01*
X152639663Y-140229745D01*
X152833824Y-140035923D01*
X153052750Y-139508691D01*
X153053189Y-139005223D01*
X153513035Y-139005223D01*
X153540222Y-139575454D01*
X153706136Y-139976005D01*
X153952255Y-140050139D01*
X154780395Y-139222000D01*
X153952255Y-138393861D01*
X153706136Y-138467995D01*
X153513035Y-139005223D01*
X153053189Y-139005223D01*
X153053248Y-138937813D01*
X152835243Y-138410200D01*
X152639640Y-138214255D01*
X154131861Y-138214255D01*
X154960000Y-139042395D01*
X155788139Y-138214255D01*
X155714005Y-137968136D01*
X155176777Y-137775035D01*
X154606546Y-137802222D01*
X154205995Y-137968136D01*
X154131861Y-138214255D01*
X152639640Y-138214255D01*
X152478353Y-138052687D01*
X152427533Y-135661029D01*
X152693461Y-135395564D01*
X152904759Y-134886702D01*
X152905240Y-134335715D01*
X152694831Y-133826485D01*
X152305564Y-133436539D01*
X151796702Y-133225241D01*
X151386463Y-133224883D01*
X151183078Y-133021499D01*
X150945173Y-131672752D01*
X151246208Y-131973787D01*
X151246210Y-131973790D01*
X151533325Y-132165633D01*
X151589516Y-132176810D01*
X151872000Y-132233001D01*
X151872005Y-132233000D01*
X156847420Y-132233000D01*
X156834210Y-132246210D01*
X156642367Y-132533325D01*
X156642367Y-132533326D01*
X156574999Y-132872000D01*
X156575000Y-132872005D01*
X156575000Y-138077829D01*
X156244176Y-138408077D01*
X156216577Y-138474544D01*
X156213864Y-138467995D01*
X155967745Y-138393861D01*
X155139605Y-139222000D01*
X155967745Y-140050139D01*
X156213864Y-139976005D01*
X156216196Y-139969517D01*
X156242757Y-140033800D01*
X156646077Y-140437824D01*
X156666565Y-140446331D01*
X156781094Y-141935209D01*
X156752176Y-141964077D01*
X156533250Y-142491309D01*
X156532752Y-143062187D01*
X156750757Y-143589800D01*
X157154077Y-143993824D01*
X157681309Y-144212750D01*
X158252187Y-144213248D01*
X158779800Y-143995243D01*
X159183824Y-143591923D01*
X159402750Y-143064691D01*
X159403248Y-142493813D01*
X159185243Y-141966200D01*
X158781923Y-141562176D01*
X158519237Y-141453099D01*
X158429164Y-140282153D01*
X158675824Y-140035923D01*
X158894750Y-139508691D01*
X158895248Y-138937813D01*
X158677243Y-138410200D01*
X158345000Y-138077377D01*
X158345000Y-133238580D01*
X159350579Y-132233000D01*
X160253995Y-132233000D01*
X160254000Y-132233001D01*
X160536484Y-132176810D01*
X160592675Y-132165633D01*
X160879790Y-131973790D01*
X161895787Y-130957792D01*
X161895790Y-130957790D01*
X162087633Y-130670675D01*
X162121583Y-130500000D01*
X162155001Y-130332000D01*
X162155000Y-130331995D01*
X162155000Y-129428580D01*
X162652579Y-128931000D01*
X168005000Y-128931000D01*
X168005000Y-132755829D01*
X167674176Y-133086077D01*
X167455250Y-133613309D01*
X167454752Y-134184187D01*
X167672757Y-134711800D01*
X168076077Y-135115824D01*
X168603309Y-135334750D01*
X169174187Y-135335248D01*
X169701800Y-135117243D01*
X170034623Y-134785000D01*
X175879000Y-134785000D01*
X175879000Y-146079995D01*
X175878999Y-146080000D01*
X175918458Y-146278367D01*
X175946367Y-146418675D01*
X176116083Y-146672674D01*
X176138210Y-146705790D01*
X176405420Y-146973000D01*
X166462579Y-146973000D01*
X165403440Y-145913860D01*
X165403440Y-144118000D01*
X165359162Y-143882683D01*
X165220090Y-143666559D01*
X165007890Y-143521569D01*
X164756000Y-143470560D01*
X164441000Y-143470560D01*
X164441000Y-142890580D01*
X165446579Y-141885000D01*
X167745829Y-141885000D01*
X168076077Y-142215824D01*
X168603309Y-142434750D01*
X169174187Y-142435248D01*
X169701800Y-142217243D01*
X170105824Y-141813923D01*
X170324750Y-141286691D01*
X170325248Y-140715813D01*
X170107243Y-140188200D01*
X169703923Y-139784176D01*
X169176691Y-139565250D01*
X168605813Y-139564752D01*
X168078200Y-139782757D01*
X167745377Y-140115000D01*
X165080000Y-140115000D01*
X164741325Y-140182367D01*
X164454210Y-140374210D01*
X164454208Y-140374213D01*
X162930210Y-141898210D01*
X162738367Y-142185325D01*
X162728328Y-142235795D01*
X162670999Y-142524000D01*
X162671000Y-142524005D01*
X162671000Y-143470560D01*
X162356000Y-143470560D01*
X162120683Y-143514838D01*
X161904559Y-143653910D01*
X161759569Y-143866110D01*
X161708560Y-144118000D01*
X161708560Y-146518000D01*
X161752838Y-146753317D01*
X161891910Y-146969441D01*
X162104110Y-147114431D01*
X162356000Y-147165440D01*
X164151860Y-147165440D01*
X165470208Y-148483787D01*
X165470210Y-148483790D01*
X165757325Y-148675633D01*
X166096000Y-148743000D01*
X180319995Y-148743000D01*
X180320000Y-148743001D01*
X180602484Y-148686810D01*
X180658675Y-148675633D01*
X180945790Y-148483790D01*
X180945791Y-148483789D01*
X182210579Y-147219000D01*
X187431995Y-147219000D01*
X187432000Y-147219001D01*
X187714484Y-147162810D01*
X187770675Y-147151633D01*
X188057790Y-146959790D01*
X188231059Y-146786521D01*
X200894604Y-146786521D01*
X201241742Y-147626658D01*
X201883961Y-148269999D01*
X202723491Y-148618603D01*
X203632521Y-148619396D01*
X204472658Y-148272258D01*
X205115999Y-147630039D01*
X205464603Y-146790509D01*
X205465396Y-145881479D01*
X205118258Y-145041342D01*
X204476039Y-144398001D01*
X203636509Y-144049397D01*
X202727479Y-144048604D01*
X201887342Y-144395742D01*
X201244001Y-145037961D01*
X200895397Y-145877491D01*
X200894604Y-146786521D01*
X188231059Y-146786521D01*
X188909472Y-146108108D01*
X188924509Y-146118155D01*
X189511928Y-146235000D01*
X189572072Y-146235000D01*
X190159491Y-146118155D01*
X190657481Y-145785409D01*
X190990227Y-145287419D01*
X191107072Y-144700000D01*
X190990227Y-144112581D01*
X190657481Y-143614591D01*
X190159491Y-143281845D01*
X189572072Y-143165000D01*
X189511928Y-143165000D01*
X188924509Y-143281845D01*
X188426519Y-143614591D01*
X188093773Y-144112581D01*
X188017279Y-144497142D01*
X187680417Y-144834004D01*
X187707072Y-144700000D01*
X187590227Y-144112581D01*
X187257481Y-143614591D01*
X186759491Y-143281845D01*
X186172072Y-143165000D01*
X186111928Y-143165000D01*
X185524509Y-143281845D01*
X185026519Y-143614591D01*
X184892610Y-143815000D01*
X182208005Y-143815000D01*
X182208000Y-143814999D01*
X181951054Y-143866110D01*
X181869325Y-143882367D01*
X181582210Y-144074210D01*
X181582208Y-144074213D01*
X180468830Y-145187591D01*
X180584195Y-144906195D01*
X180351642Y-144344742D01*
X179860776Y-143823508D01*
X179207807Y-143529797D01*
X178923000Y-143646142D01*
X178923000Y-145191000D01*
X178943000Y-145191000D01*
X178943000Y-145445000D01*
X178923000Y-145445000D01*
X178923000Y-145465000D01*
X178669000Y-145465000D01*
X178669000Y-145445000D01*
X178649000Y-145445000D01*
X178649000Y-145191000D01*
X178669000Y-145191000D01*
X178669000Y-143646142D01*
X178384193Y-143529797D01*
X177731224Y-143823508D01*
X177649000Y-143910819D01*
X177649000Y-141364740D01*
X182950964Y-141364740D01*
X183129760Y-141796417D01*
X183534424Y-142237966D01*
X184077258Y-142491046D01*
X184315000Y-142370997D01*
X184315000Y-141127000D01*
X184569000Y-141127000D01*
X184569000Y-142370997D01*
X184806742Y-142491046D01*
X185349576Y-142237966D01*
X185754240Y-141796417D01*
X185933036Y-141364740D01*
X186350964Y-141364740D01*
X186529760Y-141796417D01*
X186934424Y-142237966D01*
X187477258Y-142491046D01*
X187715000Y-142370997D01*
X187715000Y-141127000D01*
X187969000Y-141127000D01*
X187969000Y-142370997D01*
X188206742Y-142491046D01*
X188749576Y-142237966D01*
X189154240Y-141796417D01*
X189333036Y-141364740D01*
X189212378Y-141127000D01*
X187969000Y-141127000D01*
X187715000Y-141127000D01*
X186471622Y-141127000D01*
X186350964Y-141364740D01*
X185933036Y-141364740D01*
X185812378Y-141127000D01*
X184569000Y-141127000D01*
X184315000Y-141127000D01*
X183071622Y-141127000D01*
X182950964Y-141364740D01*
X177649000Y-141364740D01*
X177649000Y-140635260D01*
X182950964Y-140635260D01*
X183071622Y-140873000D01*
X184315000Y-140873000D01*
X184315000Y-139629003D01*
X184569000Y-139629003D01*
X184569000Y-140873000D01*
X185812378Y-140873000D01*
X185933036Y-140635260D01*
X186350964Y-140635260D01*
X186471622Y-140873000D01*
X187715000Y-140873000D01*
X187715000Y-139629003D01*
X187969000Y-139629003D01*
X187969000Y-140873000D01*
X189212378Y-140873000D01*
X189333036Y-140635260D01*
X189154240Y-140203583D01*
X188749576Y-139762034D01*
X188206742Y-139508954D01*
X187969000Y-139629003D01*
X187715000Y-139629003D01*
X187477258Y-139508954D01*
X186934424Y-139762034D01*
X186529760Y-140203583D01*
X186350964Y-140635260D01*
X185933036Y-140635260D01*
X185754240Y-140203583D01*
X185349576Y-139762034D01*
X184806742Y-139508954D01*
X184569000Y-139629003D01*
X184315000Y-139629003D01*
X184077258Y-139508954D01*
X183534424Y-139762034D01*
X183129760Y-140203583D01*
X182950964Y-140635260D01*
X177649000Y-140635260D01*
X177649000Y-138927745D01*
X183047861Y-138927745D01*
X183121995Y-139173864D01*
X183659223Y-139366965D01*
X184229454Y-139339778D01*
X184630005Y-139173864D01*
X184704139Y-138927745D01*
X183876000Y-138099605D01*
X183047861Y-138927745D01*
X177649000Y-138927745D01*
X177649000Y-133888000D01*
X177581633Y-133549325D01*
X177389790Y-133262210D01*
X177102675Y-133070367D01*
X176764000Y-133003000D01*
X176703672Y-133015000D01*
X170034171Y-133015000D01*
X169775000Y-132755377D01*
X169775000Y-128931000D01*
X173349420Y-128931000D01*
X176138208Y-131719787D01*
X176138210Y-131719790D01*
X176425325Y-131911633D01*
X176478142Y-131922139D01*
X176764000Y-131979001D01*
X176764005Y-131979000D01*
X179142554Y-131979000D01*
X179170838Y-132129317D01*
X179309910Y-132345441D01*
X179522110Y-132490431D01*
X179774000Y-132541440D01*
X181374000Y-132541440D01*
X181609317Y-132497162D01*
X181825441Y-132358090D01*
X181829977Y-132351452D01*
X182357223Y-132540965D01*
X182927454Y-132513778D01*
X183328005Y-132347864D01*
X183402139Y-132101745D01*
X182574000Y-131273605D01*
X182559858Y-131287748D01*
X182380253Y-131108143D01*
X182394395Y-131094000D01*
X182753605Y-131094000D01*
X183581745Y-131922139D01*
X183827864Y-131848005D01*
X184020965Y-131310777D01*
X183993778Y-130740546D01*
X183827864Y-130339995D01*
X183581745Y-130265861D01*
X182753605Y-131094000D01*
X182394395Y-131094000D01*
X182380253Y-131079858D01*
X182559858Y-130900252D01*
X182574000Y-130914395D01*
X183402139Y-130086255D01*
X183328005Y-129840136D01*
X182790777Y-129647035D01*
X182220546Y-129674222D01*
X181829053Y-129836384D01*
X181625890Y-129697569D01*
X181374000Y-129646560D01*
X179774000Y-129646560D01*
X179538683Y-129690838D01*
X179322559Y-129829910D01*
X179177569Y-130042110D01*
X179143773Y-130209000D01*
X177130579Y-130209000D01*
X175094580Y-128173000D01*
X176721787Y-126545792D01*
X176721790Y-126545790D01*
X176913633Y-126258675D01*
X176935323Y-126149633D01*
X176981001Y-125920000D01*
X176981000Y-125919995D01*
X176981000Y-124724145D01*
X177169413Y-124536060D01*
X177713545Y-124536060D01*
X177796884Y-124789953D01*
X178361306Y-124995590D01*
X178961458Y-124969579D01*
X179395116Y-124789953D01*
X179478455Y-124536060D01*
X178596000Y-123653605D01*
X177713545Y-124536060D01*
X177169413Y-124536060D01*
X177375370Y-124330463D01*
X177384892Y-124307531D01*
X177533940Y-124356455D01*
X178416395Y-123474000D01*
X178775605Y-123474000D01*
X179658060Y-124356455D01*
X179911953Y-124273116D01*
X180117590Y-123708694D01*
X180091579Y-123108542D01*
X179911953Y-122674884D01*
X179658060Y-122591545D01*
X178775605Y-123474000D01*
X178416395Y-123474000D01*
X177533940Y-122591545D01*
X177385352Y-122640318D01*
X177376862Y-122619771D01*
X177169394Y-122411940D01*
X177713545Y-122411940D01*
X178596000Y-123294395D01*
X179478455Y-122411940D01*
X179395116Y-122158047D01*
X178830694Y-121952410D01*
X178230542Y-121978421D01*
X177796884Y-122158047D01*
X177713545Y-122411940D01*
X177169394Y-122411940D01*
X176952463Y-122194630D01*
X176397675Y-121964262D01*
X175796960Y-121963738D01*
X175241771Y-122193138D01*
X174845682Y-122588536D01*
X174452463Y-122194630D01*
X173897675Y-121964262D01*
X173296960Y-121963738D01*
X172741771Y-122193138D01*
X172345682Y-122588536D01*
X171952463Y-122194630D01*
X171397675Y-121964262D01*
X170796960Y-121963738D01*
X170241771Y-122193138D01*
X169845682Y-122588536D01*
X169452463Y-122194630D01*
X168897675Y-121964262D01*
X168296960Y-121963738D01*
X167741771Y-122193138D01*
X167572897Y-122361717D01*
X167435090Y-122147559D01*
X167222890Y-122002569D01*
X166971000Y-121951560D01*
X165221000Y-121951560D01*
X164985683Y-121995838D01*
X164769559Y-122134910D01*
X164624569Y-122347110D01*
X164573560Y-122599000D01*
X164573560Y-123097000D01*
X162898579Y-123097000D01*
X162911787Y-123083792D01*
X162911790Y-123083790D01*
X163103633Y-122796675D01*
X163171000Y-122458000D01*
X163171000Y-121808580D01*
X164684579Y-120295000D01*
X176255995Y-120295000D01*
X176256000Y-120295001D01*
X176538484Y-120238810D01*
X176594675Y-120227633D01*
X176881790Y-120035790D01*
X176881791Y-120035789D01*
X179221787Y-117695792D01*
X179221790Y-117695790D01*
X179413633Y-117408675D01*
X179430801Y-117322367D01*
X179481001Y-117070000D01*
X179481000Y-117069995D01*
X179481000Y-116850145D01*
X179875370Y-116456463D01*
X180105738Y-115901675D01*
X180106262Y-115300960D01*
X179876862Y-114745771D01*
X179452463Y-114320630D01*
X178897675Y-114090262D01*
X178296960Y-114089738D01*
X177741771Y-114319138D01*
X177316630Y-114743537D01*
X177307108Y-114766469D01*
X177158060Y-114717545D01*
X176275605Y-115600000D01*
X177158060Y-116482455D01*
X177306648Y-116433682D01*
X177315138Y-116454229D01*
X177637383Y-116777038D01*
X175889420Y-118525000D01*
X173566579Y-118525000D01*
X174221787Y-117869792D01*
X174221790Y-117869790D01*
X174413633Y-117582675D01*
X174437503Y-117462674D01*
X174481001Y-117244000D01*
X174481000Y-117243995D01*
X174481000Y-116850145D01*
X174669413Y-116662060D01*
X175213545Y-116662060D01*
X175296884Y-116915953D01*
X175861306Y-117121590D01*
X176461458Y-117095579D01*
X176895116Y-116915953D01*
X176978455Y-116662060D01*
X176096000Y-115779605D01*
X175213545Y-116662060D01*
X174669413Y-116662060D01*
X174875370Y-116456463D01*
X174884892Y-116433531D01*
X175033940Y-116482455D01*
X175916395Y-115600000D01*
X175033940Y-114717545D01*
X174885352Y-114766318D01*
X174876862Y-114745771D01*
X174669394Y-114537940D01*
X175213545Y-114537940D01*
X176096000Y-115420395D01*
X176978455Y-114537940D01*
X176895116Y-114284047D01*
X176330694Y-114078410D01*
X175730542Y-114104421D01*
X175296884Y-114284047D01*
X175213545Y-114537940D01*
X174669394Y-114537940D01*
X174452463Y-114320630D01*
X173897675Y-114090262D01*
X173296960Y-114089738D01*
X172741771Y-114319138D01*
X172345682Y-114714536D01*
X171952463Y-114320630D01*
X171807455Y-114260417D01*
X171721790Y-114132210D01*
X171721787Y-114132208D01*
X170785790Y-113196210D01*
X170733582Y-113161326D01*
X170498675Y-113004367D01*
X170440569Y-112992809D01*
X170160000Y-112936999D01*
X170159995Y-112937000D01*
X161508381Y-112937000D01*
X161336717Y-112837287D01*
X161337326Y-112138695D01*
X161050957Y-111445628D01*
X160521161Y-110914907D01*
X159828595Y-110627328D01*
X159078695Y-110626674D01*
X158385628Y-110913043D01*
X157854907Y-111442839D01*
X157567328Y-112135405D01*
X157566674Y-112885305D01*
X157853043Y-113578372D01*
X158382839Y-114109093D01*
X159075405Y-114396672D01*
X159825305Y-114397326D01*
X160218669Y-114234791D01*
X160825488Y-114587267D01*
X160881818Y-114606554D01*
X160931325Y-114639633D01*
X161043742Y-114661994D01*
X161152180Y-114699122D01*
X161211603Y-114695384D01*
X161270000Y-114707000D01*
X164586000Y-114707000D01*
X164586000Y-115314250D01*
X164744750Y-115473000D01*
X165969000Y-115473000D01*
X165969000Y-115453000D01*
X166223000Y-115453000D01*
X166223000Y-115473000D01*
X166243000Y-115473000D01*
X166243000Y-115727000D01*
X166223000Y-115727000D01*
X166223000Y-115747000D01*
X165969000Y-115747000D01*
X165969000Y-115727000D01*
X164744750Y-115727000D01*
X164586000Y-115885750D01*
X164586000Y-116601310D01*
X164682673Y-116834699D01*
X164848975Y-117001000D01*
X160112579Y-117001000D01*
X159355790Y-116244210D01*
X159218797Y-116152675D01*
X159068675Y-116052367D01*
X158978073Y-116034345D01*
X158730000Y-115984999D01*
X158729995Y-115985000D01*
X156057839Y-115985000D01*
X156306388Y-115336194D01*
X156286250Y-114586565D01*
X156038123Y-113987533D01*
X155745320Y-113858285D01*
X154591605Y-115012000D01*
X154605748Y-115026143D01*
X154426143Y-115205748D01*
X154412000Y-115191605D01*
X154397858Y-115205748D01*
X154218253Y-115026143D01*
X154232395Y-115012000D01*
X153078680Y-113858285D01*
X153011000Y-113888160D01*
X153011000Y-113678680D01*
X153258285Y-113678680D01*
X154412000Y-114832395D01*
X155565715Y-113678680D01*
X155436467Y-113385877D01*
X154736194Y-113117612D01*
X153986565Y-113137750D01*
X153387533Y-113385877D01*
X153258285Y-113678680D01*
X153011000Y-113678680D01*
X153011000Y-111276675D01*
X153342839Y-111609093D01*
X154035405Y-111896672D01*
X154785305Y-111897326D01*
X155478372Y-111610957D01*
X156009093Y-111081161D01*
X156296672Y-110388595D01*
X156297326Y-109638695D01*
X156010957Y-108945628D01*
X155481161Y-108414907D01*
X154788595Y-108127328D01*
X154038695Y-108126674D01*
X153955605Y-108161006D01*
X153180744Y-107285515D01*
X153011000Y-106985198D01*
X153011000Y-105948000D01*
X156079000Y-105948000D01*
X156203457Y-106573687D01*
X156557880Y-107104120D01*
X157088313Y-107458543D01*
X157714000Y-107583000D01*
X163785995Y-107583000D01*
X163786000Y-107583001D01*
X164411688Y-107458543D01*
X164942120Y-107104120D01*
X165237240Y-106809000D01*
X172264760Y-106809000D01*
X173097000Y-107641239D01*
X173097000Y-108889435D01*
X172923091Y-109063041D01*
X172597372Y-109847459D01*
X172596630Y-110696815D01*
X172920980Y-111481800D01*
X173521041Y-112082909D01*
X174305459Y-112408628D01*
X175154815Y-112409370D01*
X175939800Y-112085020D01*
X176110976Y-111914142D01*
X176118672Y-111909000D01*
X180666760Y-111909000D01*
X182495000Y-113737240D01*
X182495000Y-118224761D01*
X181449880Y-119269880D01*
X181095457Y-119800312D01*
X180970999Y-120426000D01*
X180971000Y-120426005D01*
X180971000Y-123727995D01*
X180970999Y-123728000D01*
X181095457Y-124353688D01*
X181449880Y-124884120D01*
X184781000Y-128215239D01*
X184781000Y-133115000D01*
X184638000Y-133115000D01*
X184050581Y-133231845D01*
X183552591Y-133564591D01*
X182790591Y-134326591D01*
X182457845Y-134824581D01*
X182341000Y-135412000D01*
X182341000Y-135920000D01*
X182428560Y-136360193D01*
X182428560Y-136720000D01*
X182472838Y-136955317D01*
X182611910Y-137171441D01*
X182618548Y-137175977D01*
X182429035Y-137703223D01*
X182456222Y-138273454D01*
X182622136Y-138674005D01*
X182868255Y-138748139D01*
X183696395Y-137920000D01*
X183682252Y-137905858D01*
X183861858Y-137726253D01*
X183876000Y-137740395D01*
X183890143Y-137726253D01*
X184069748Y-137905858D01*
X184055605Y-137920000D01*
X184883745Y-138748139D01*
X185129864Y-138674005D01*
X185322965Y-138136777D01*
X185295778Y-137566546D01*
X185179175Y-137285041D01*
X187056086Y-137285041D01*
X187295611Y-137791134D01*
X187710577Y-138167041D01*
X188098961Y-138327904D01*
X188321000Y-138205915D01*
X188321000Y-137063000D01*
X188575000Y-137063000D01*
X188575000Y-138205915D01*
X188797039Y-138327904D01*
X189185423Y-138167041D01*
X189600389Y-137791134D01*
X189839914Y-137285041D01*
X189718629Y-137063000D01*
X188575000Y-137063000D01*
X188321000Y-137063000D01*
X187177371Y-137063000D01*
X187056086Y-137285041D01*
X185179175Y-137285041D01*
X185133616Y-137175053D01*
X185272431Y-136971890D01*
X185323440Y-136720000D01*
X185323440Y-136360193D01*
X185358288Y-136185000D01*
X185913267Y-136185000D01*
X186416000Y-136285000D01*
X186918733Y-136185000D01*
X187246326Y-136185000D01*
X187056086Y-136586959D01*
X187177371Y-136809000D01*
X188321000Y-136809000D01*
X188321000Y-136789000D01*
X188575000Y-136789000D01*
X188575000Y-136809000D01*
X189718629Y-136809000D01*
X189839914Y-136586959D01*
X189649674Y-136185000D01*
X191750000Y-136185000D01*
X192337419Y-136068155D01*
X192835409Y-135735409D01*
X192949289Y-135621529D01*
X193671000Y-136343239D01*
X193671000Y-137444000D01*
X193795457Y-138069687D01*
X194149880Y-138600120D01*
X194507195Y-138838869D01*
X194477861Y-138936255D01*
X195306000Y-139764395D01*
X196134139Y-138936255D01*
X196104805Y-138838869D01*
X196462120Y-138600120D01*
X196816543Y-138069687D01*
X196941000Y-137444000D01*
X196941000Y-135666000D01*
X196863362Y-135275687D01*
X196846269Y-135189750D01*
X199775000Y-135189750D01*
X199775000Y-136530309D01*
X199871673Y-136763698D01*
X200050301Y-136942327D01*
X200283690Y-137039000D01*
X201624250Y-137039000D01*
X201783000Y-136880250D01*
X201783000Y-135031000D01*
X199933750Y-135031000D01*
X199775000Y-135189750D01*
X196846269Y-135189750D01*
X196816543Y-135040312D01*
X196612382Y-134734764D01*
X196462120Y-134509880D01*
X196462117Y-134509878D01*
X195229931Y-133277691D01*
X199775000Y-133277691D01*
X199775000Y-134618250D01*
X199933750Y-134777000D01*
X201783000Y-134777000D01*
X201783000Y-132927750D01*
X201624250Y-132769000D01*
X200283690Y-132769000D01*
X200050301Y-132865673D01*
X199871673Y-133044302D01*
X199775000Y-133277691D01*
X195229931Y-133277691D01*
X194655000Y-132702760D01*
X194655000Y-130840000D01*
X194564444Y-130384742D01*
X199656954Y-130384742D01*
X199910034Y-130927576D01*
X200351583Y-131332240D01*
X200783260Y-131511036D01*
X201021000Y-131390378D01*
X201021000Y-130147000D01*
X201275000Y-130147000D01*
X201275000Y-131390378D01*
X201512740Y-131511036D01*
X201944417Y-131332240D01*
X202385966Y-130927576D01*
X202639046Y-130384742D01*
X202518997Y-130147000D01*
X201275000Y-130147000D01*
X201021000Y-130147000D01*
X199777003Y-130147000D01*
X199656954Y-130384742D01*
X194564444Y-130384742D01*
X194530543Y-130214313D01*
X194176120Y-129683880D01*
X193802031Y-129433922D01*
X194031353Y-129205000D01*
X196208589Y-129205000D01*
X196362591Y-129435481D01*
X196860581Y-129768227D01*
X197448000Y-129885072D01*
X198035419Y-129768227D01*
X198204489Y-129655258D01*
X199656954Y-129655258D01*
X199777003Y-129893000D01*
X201021000Y-129893000D01*
X201021000Y-128649622D01*
X201275000Y-128649622D01*
X201275000Y-129893000D01*
X202518997Y-129893000D01*
X202639046Y-129655258D01*
X202385966Y-129112424D01*
X201944417Y-128707760D01*
X201512740Y-128528964D01*
X201275000Y-128649622D01*
X201021000Y-128649622D01*
X200783260Y-128528964D01*
X200351583Y-128707760D01*
X199910034Y-129112424D01*
X199656954Y-129655258D01*
X198204489Y-129655258D01*
X198533409Y-129435481D01*
X198866155Y-128937491D01*
X198983000Y-128350072D01*
X198983000Y-128289928D01*
X198866155Y-127702509D01*
X198533409Y-127204519D01*
X198204490Y-126984742D01*
X199656954Y-126984742D01*
X199910034Y-127527576D01*
X200351583Y-127932240D01*
X200783260Y-128111036D01*
X201021000Y-127990378D01*
X201021000Y-126747000D01*
X199777003Y-126747000D01*
X199656954Y-126984742D01*
X198204490Y-126984742D01*
X198035419Y-126871773D01*
X197448000Y-126754928D01*
X196860581Y-126871773D01*
X196362591Y-127204519D01*
X196208589Y-127435000D01*
X194071098Y-127435000D01*
X193788548Y-127151957D01*
X193290709Y-126945236D01*
X192916489Y-126944909D01*
X192423430Y-126451850D01*
X192942000Y-126555000D01*
X197448000Y-126555000D01*
X198073687Y-126430543D01*
X198604120Y-126076120D01*
X198958543Y-125545687D01*
X199083000Y-124920000D01*
X198958543Y-124294313D01*
X198654313Y-123839000D01*
X199382127Y-123839000D01*
X199383457Y-123845687D01*
X199613815Y-124190443D01*
X199644838Y-124355317D01*
X199783910Y-124571441D01*
X199996110Y-124716431D01*
X200248000Y-124767440D01*
X200383200Y-124767440D01*
X200756011Y-125140250D01*
X200351583Y-125307760D01*
X199910034Y-125712424D01*
X199656954Y-126255258D01*
X199777003Y-126493000D01*
X201021000Y-126493000D01*
X201021000Y-126473000D01*
X201275000Y-126473000D01*
X201275000Y-126493000D01*
X201295000Y-126493000D01*
X201295000Y-126747000D01*
X201275000Y-126747000D01*
X201275000Y-127990378D01*
X201512740Y-128111036D01*
X201944417Y-127932240D01*
X202385966Y-127527576D01*
X202626790Y-127011030D01*
X203069000Y-127453239D01*
X203069000Y-132769000D01*
X202195750Y-132769000D01*
X202037000Y-132927750D01*
X202037000Y-134777000D01*
X202057000Y-134777000D01*
X202057000Y-135031000D01*
X202037000Y-135031000D01*
X202037000Y-136880250D01*
X202195750Y-137039000D01*
X203069000Y-137039000D01*
X203069000Y-137274760D01*
X202448075Y-137895685D01*
X202336541Y-137849372D01*
X201487185Y-137848630D01*
X200702200Y-138172980D01*
X200101091Y-138773041D01*
X199775372Y-139557459D01*
X199775154Y-139806606D01*
X197930760Y-141651000D01*
X194459239Y-141651000D01*
X193759985Y-140951745D01*
X194477861Y-140951745D01*
X194551995Y-141197864D01*
X195089223Y-141390965D01*
X195659454Y-141363778D01*
X196060005Y-141197864D01*
X196134139Y-140951745D01*
X195306000Y-140123605D01*
X194477861Y-140951745D01*
X193759985Y-140951745D01*
X192761905Y-139953665D01*
X192745162Y-139864683D01*
X192656709Y-139727223D01*
X193859035Y-139727223D01*
X193886222Y-140297454D01*
X194052136Y-140698005D01*
X194298255Y-140772139D01*
X195126395Y-139944000D01*
X195485605Y-139944000D01*
X196313745Y-140772139D01*
X196559864Y-140698005D01*
X196752965Y-140160777D01*
X196725778Y-139590546D01*
X196559864Y-139189995D01*
X196313745Y-139115861D01*
X195485605Y-139944000D01*
X195126395Y-139944000D01*
X194298255Y-139115861D01*
X194052136Y-139189995D01*
X193859035Y-139727223D01*
X192656709Y-139727223D01*
X192606090Y-139648559D01*
X192393890Y-139503569D01*
X192142000Y-139452560D01*
X191936196Y-139452560D01*
X191496000Y-139364999D01*
X191495995Y-139365000D01*
X191242000Y-139365000D01*
X190801807Y-139452560D01*
X190342000Y-139452560D01*
X190106683Y-139496838D01*
X189890559Y-139635910D01*
X189745569Y-139848110D01*
X189694560Y-140100000D01*
X189694560Y-140559807D01*
X189607000Y-141000000D01*
X189694560Y-141440193D01*
X189694560Y-141900000D01*
X189738838Y-142135317D01*
X189877910Y-142351441D01*
X190090110Y-142496431D01*
X190342000Y-142547440D01*
X190731200Y-142547440D01*
X192625878Y-144442117D01*
X192625880Y-144442120D01*
X192943851Y-144654581D01*
X193156312Y-144796543D01*
X193782000Y-144921000D01*
X198607995Y-144921000D01*
X198608000Y-144921001D01*
X199233688Y-144796543D01*
X199764120Y-144442120D01*
X202087084Y-142119155D01*
X202332815Y-142119370D01*
X203117800Y-141795020D01*
X203663972Y-141249800D01*
X203828120Y-141140120D01*
X205860120Y-139108120D01*
X206214543Y-138577688D01*
X206339001Y-137952000D01*
X206339000Y-137951995D01*
X206339000Y-126776000D01*
X206214543Y-126150313D01*
X205860120Y-125619880D01*
X205860117Y-125619878D01*
X202695440Y-122455200D01*
X202695440Y-122320000D01*
X202651162Y-122084683D01*
X202512090Y-121868559D01*
X202299890Y-121723569D01*
X202048000Y-121672560D01*
X201912800Y-121672560D01*
X201288120Y-121047880D01*
X200757688Y-120693457D01*
X200132000Y-120568999D01*
X200131995Y-120569000D01*
X196156921Y-120569000D01*
X196150556Y-120537000D01*
X196054543Y-120054312D01*
X195875931Y-119787001D01*
X195700120Y-119523880D01*
X195700117Y-119523878D01*
X193893000Y-117716760D01*
X193893000Y-115750669D01*
X193909441Y-115740090D01*
X194054431Y-115527890D01*
X194085761Y-115373175D01*
X196140430Y-115373175D01*
X196263565Y-115660788D01*
X196945734Y-115920707D01*
X197675443Y-115899786D01*
X198252435Y-115660788D01*
X198375570Y-115373175D01*
X197258000Y-114255605D01*
X196140430Y-115373175D01*
X194085761Y-115373175D01*
X194105440Y-115276000D01*
X194105440Y-113763734D01*
X195413293Y-113763734D01*
X195434214Y-114493443D01*
X195673212Y-115070435D01*
X195960825Y-115193570D01*
X197078395Y-114076000D01*
X197437605Y-114076000D01*
X198555175Y-115193570D01*
X198842788Y-115070435D01*
X199102707Y-114388266D01*
X199081786Y-113658557D01*
X198842788Y-113081565D01*
X198555175Y-112958430D01*
X197437605Y-114076000D01*
X197078395Y-114076000D01*
X195960825Y-112958430D01*
X195673212Y-113081565D01*
X195413293Y-113763734D01*
X194105440Y-113763734D01*
X194105440Y-112876000D01*
X194087156Y-112778825D01*
X196140430Y-112778825D01*
X197258000Y-113896395D01*
X198375570Y-112778825D01*
X198252435Y-112491212D01*
X197570266Y-112231293D01*
X196840557Y-112252214D01*
X196263565Y-112491212D01*
X196140430Y-112778825D01*
X194087156Y-112778825D01*
X194061162Y-112640683D01*
X193922090Y-112424559D01*
X193709890Y-112279569D01*
X193639000Y-112265213D01*
X193639000Y-104073805D01*
X198343805Y-104073805D01*
X198576358Y-104635258D01*
X199067224Y-105156492D01*
X199720193Y-105450203D01*
X200005000Y-105333858D01*
X200005000Y-103789000D01*
X200259000Y-103789000D01*
X200259000Y-105333858D01*
X200543807Y-105450203D01*
X201196776Y-105156492D01*
X201687642Y-104635258D01*
X201920195Y-104073805D01*
X201803432Y-103789000D01*
X200259000Y-103789000D01*
X200005000Y-103789000D01*
X198460568Y-103789000D01*
X198343805Y-104073805D01*
X193639000Y-104073805D01*
X193639000Y-103250195D01*
X198343805Y-103250195D01*
X198460568Y-103535000D01*
X200005000Y-103535000D01*
X200005000Y-101990142D01*
X200259000Y-101990142D01*
X200259000Y-103535000D01*
X201803432Y-103535000D01*
X201920195Y-103250195D01*
X201687642Y-102688742D01*
X201196776Y-102167508D01*
X200543807Y-101873797D01*
X200259000Y-101990142D01*
X200005000Y-101990142D01*
X199720193Y-101873797D01*
X199067224Y-102167508D01*
X198576358Y-102688742D01*
X198343805Y-103250195D01*
X193639000Y-103250195D01*
X193639000Y-99880608D01*
X193675861Y-99843747D01*
X193749995Y-100089864D01*
X194287223Y-100282965D01*
X194857454Y-100255778D01*
X195258005Y-100089864D01*
X195332139Y-99843745D01*
X194504000Y-99015605D01*
X194489858Y-99029748D01*
X194310252Y-98850142D01*
X194324395Y-98836000D01*
X194683605Y-98836000D01*
X195511745Y-99664139D01*
X195757864Y-99590005D01*
X195950965Y-99052777D01*
X195923778Y-98482546D01*
X195757864Y-98081995D01*
X195511745Y-98007861D01*
X194683605Y-98836000D01*
X194324395Y-98836000D01*
X193496255Y-98007861D01*
X193398869Y-98037195D01*
X193259261Y-97828255D01*
X193675861Y-97828255D01*
X194504000Y-98656395D01*
X195332139Y-97828255D01*
X195312942Y-97764521D01*
X200894604Y-97764521D01*
X201241742Y-98604658D01*
X201883961Y-99247999D01*
X202723491Y-99596603D01*
X203632521Y-99597396D01*
X204472658Y-99250258D01*
X205115999Y-98608039D01*
X205464603Y-97768509D01*
X205465396Y-96859479D01*
X205118258Y-96019342D01*
X204476039Y-95376001D01*
X203636509Y-95027397D01*
X202727479Y-95026604D01*
X201887342Y-95373742D01*
X201244001Y-96015961D01*
X200895397Y-96855491D01*
X200894604Y-97764521D01*
X195312942Y-97764521D01*
X195258005Y-97582136D01*
X194720777Y-97389035D01*
X194150546Y-97416222D01*
X193749995Y-97582136D01*
X193675861Y-97828255D01*
X193259261Y-97828255D01*
X193160120Y-97679880D01*
X192629687Y-97325457D01*
X192004000Y-97201000D01*
X191378313Y-97325457D01*
X190847880Y-97679880D01*
X190493457Y-98210313D01*
X190369000Y-98836000D01*
X190369000Y-113821995D01*
X190368999Y-113822000D01*
X190410560Y-114030940D01*
X190410560Y-115276000D01*
X190454838Y-115511317D01*
X190593910Y-115727441D01*
X190623000Y-115747317D01*
X190623000Y-118393995D01*
X190622999Y-118394000D01*
X190651991Y-118539752D01*
X189067000Y-116954760D01*
X189067000Y-105336669D01*
X189083441Y-105326090D01*
X189228431Y-105113890D01*
X189279440Y-104862000D01*
X189279440Y-102462000D01*
X189235162Y-102226683D01*
X189096090Y-102010559D01*
X188883890Y-101865569D01*
X188632000Y-101814560D01*
X187836236Y-101814560D01*
X182440810Y-96868753D01*
X182197936Y-96721313D01*
X181961687Y-96563457D01*
X181926313Y-96556421D01*
X181895483Y-96537705D01*
X181614672Y-96494431D01*
X181336000Y-96439000D01*
X176116565Y-96439000D01*
X175942959Y-96265091D01*
X175158541Y-95939372D01*
X174309185Y-95938630D01*
X173524200Y-96262980D01*
X172923091Y-96863041D01*
X172597372Y-97647459D01*
X172596630Y-98496815D01*
X172920980Y-99281800D01*
X173521041Y-99882909D01*
X174305459Y-100208628D01*
X175154815Y-100209370D01*
X175939800Y-99885020D01*
X176116127Y-99709000D01*
X180700011Y-99709000D01*
X185584560Y-104186503D01*
X185584560Y-104862000D01*
X185628838Y-105097317D01*
X185767910Y-105313441D01*
X185797000Y-105333317D01*
X185797000Y-117631995D01*
X185796999Y-117632000D01*
X185921457Y-118257688D01*
X186275880Y-118788120D01*
X189353000Y-121865239D01*
X189353000Y-122207134D01*
X188948691Y-122039250D01*
X188377813Y-122038752D01*
X187850200Y-122256757D01*
X187506519Y-122599839D01*
X187318120Y-122317880D01*
X186787687Y-121963457D01*
X186162000Y-121839000D01*
X184241000Y-121839000D01*
X184241000Y-121103240D01*
X185286117Y-120058122D01*
X185286120Y-120058120D01*
X185640543Y-119527687D01*
X185765000Y-118902000D01*
X185765000Y-113060005D01*
X185765001Y-113060000D01*
X185640543Y-112434312D01*
X185286120Y-111903880D01*
X182500120Y-109117880D01*
X181969688Y-108763457D01*
X181344000Y-108638999D01*
X181343995Y-108639000D01*
X176367000Y-108639000D01*
X176367000Y-106964000D01*
X176314316Y-106699138D01*
X176242543Y-106338312D01*
X176100581Y-106125851D01*
X175888120Y-105807880D01*
X175888117Y-105807878D01*
X174098120Y-104017880D01*
X173567688Y-103663457D01*
X172942000Y-103538999D01*
X172941995Y-103539000D01*
X165237239Y-103539000D01*
X164458120Y-102759880D01*
X164458117Y-102759878D01*
X163786120Y-102087880D01*
X163738228Y-102055880D01*
X163702978Y-102010329D01*
X160865271Y-99542252D01*
X160865370Y-99429185D01*
X160541020Y-98644200D01*
X159940959Y-98043091D01*
X159156541Y-97717372D01*
X158307185Y-97716630D01*
X157522200Y-98040980D01*
X156921091Y-98641041D01*
X156595372Y-99425459D01*
X156594630Y-100274815D01*
X156918980Y-101059800D01*
X157519041Y-101660909D01*
X158303459Y-101986628D01*
X158693303Y-101986969D01*
X161367690Y-104313000D01*
X157714000Y-104313000D01*
X157088313Y-104437457D01*
X156557880Y-104791880D01*
X156203457Y-105322313D01*
X156079000Y-105948000D01*
X153011000Y-105948000D01*
X153011000Y-102138000D01*
X152998664Y-102075984D01*
X153002106Y-102012842D01*
X152993016Y-101987000D01*
X153364250Y-101987000D01*
X153523000Y-101828250D01*
X153523000Y-99979000D01*
X153777000Y-99979000D01*
X153777000Y-101828250D01*
X153935750Y-101987000D01*
X155276309Y-101987000D01*
X155509698Y-101890327D01*
X155688327Y-101711699D01*
X155785000Y-101478310D01*
X155785000Y-100137750D01*
X155626250Y-99979000D01*
X153777000Y-99979000D01*
X153523000Y-99979000D01*
X153503000Y-99979000D01*
X153503000Y-99725000D01*
X153523000Y-99725000D01*
X153523000Y-97875750D01*
X153777000Y-97875750D01*
X153777000Y-99725000D01*
X155626250Y-99725000D01*
X155785000Y-99566250D01*
X155785000Y-98225690D01*
X155688327Y-97992301D01*
X155509698Y-97813673D01*
X155276309Y-97717000D01*
X153935750Y-97717000D01*
X153777000Y-97875750D01*
X153523000Y-97875750D01*
X153364250Y-97717000D01*
X152023691Y-97717000D01*
X151978256Y-97735820D01*
X151927633Y-97481325D01*
X151865967Y-97389035D01*
X151735790Y-97194210D01*
X151735787Y-97194208D01*
X150465790Y-95924210D01*
X150417859Y-95892184D01*
X150178675Y-95732367D01*
X150094865Y-95715696D01*
X149840000Y-95664999D01*
X149839995Y-95665000D01*
X144252005Y-95665000D01*
X144252000Y-95664999D01*
X144251995Y-95665000D01*
X135640168Y-95665000D01*
X135610000Y-95658999D01*
X135579832Y-95665000D01*
X125456000Y-95665000D01*
X125309065Y-95694227D01*
X125160768Y-95715696D01*
X125140477Y-95727762D01*
X125117325Y-95732367D01*
X124992745Y-95815608D01*
X124863967Y-95892184D01*
X122850216Y-97704560D01*
X121416000Y-97704560D01*
X121180683Y-97748838D01*
X120964559Y-97887910D01*
X120819569Y-98100110D01*
X120768560Y-98352000D01*
X120768560Y-101352000D01*
X120812838Y-101587317D01*
X120951910Y-101803441D01*
X121164110Y-101948431D01*
X121416000Y-101999440D01*
X122031000Y-101999440D01*
X122031000Y-102391995D01*
X122030999Y-102392000D01*
X122067898Y-102577500D01*
X122098367Y-102730675D01*
X122211185Y-102899520D01*
X122290210Y-103017790D01*
X124068208Y-104795787D01*
X124068210Y-104795790D01*
X124355325Y-104987633D01*
X124387324Y-104993998D01*
X124694000Y-105055001D01*
X124694005Y-105055000D01*
X146429873Y-105055000D01*
X146200120Y-105398849D01*
X146090887Y-105948000D01*
X146200120Y-106497151D01*
X146511189Y-106962698D01*
X146669000Y-107068144D01*
X146669000Y-110407421D01*
X139426000Y-117650420D01*
X138533000Y-116757420D01*
X138533000Y-115728171D01*
X138863824Y-115397923D01*
X139082750Y-114870691D01*
X139083248Y-114299813D01*
X138865243Y-113772200D01*
X138784184Y-113691000D01*
X139679995Y-113691000D01*
X139680000Y-113691001D01*
X139962484Y-113634810D01*
X140018675Y-113623633D01*
X140305790Y-113431790D01*
X140305791Y-113431789D01*
X141629787Y-112107792D01*
X141629790Y-112107790D01*
X141821633Y-111820675D01*
X141832810Y-111764484D01*
X141889001Y-111482000D01*
X141889000Y-111481995D01*
X141889000Y-109230145D01*
X142283370Y-108836463D01*
X142513738Y-108281675D01*
X142514262Y-107680960D01*
X142284862Y-107125771D01*
X141860463Y-106700630D01*
X141305675Y-106470262D01*
X140704960Y-106469738D01*
X140149771Y-106699138D01*
X139753682Y-107094536D01*
X139360463Y-106700630D01*
X138805675Y-106470262D01*
X138204960Y-106469738D01*
X137649771Y-106699138D01*
X137253682Y-107094536D01*
X136860463Y-106700630D01*
X136305675Y-106470262D01*
X135704960Y-106469738D01*
X135149771Y-106699138D01*
X134724630Y-107123537D01*
X134715108Y-107146469D01*
X134566060Y-107097545D01*
X133683605Y-107980000D01*
X134566060Y-108862455D01*
X134714648Y-108813682D01*
X134723138Y-108834229D01*
X135119000Y-109230783D01*
X135119000Y-111289421D01*
X133974210Y-112434210D01*
X133782367Y-112721325D01*
X133782367Y-112721326D01*
X133714999Y-113060000D01*
X133715000Y-113060005D01*
X133715000Y-115995421D01*
X132958210Y-116752210D01*
X132766367Y-117039325D01*
X132766367Y-117039326D01*
X132698999Y-117378000D01*
X132699000Y-117378005D01*
X132699000Y-118535421D01*
X131665466Y-119568954D01*
X131467325Y-119608367D01*
X131403289Y-119651154D01*
X131256849Y-119680283D01*
X130791302Y-119991352D01*
X130536000Y-120373438D01*
X130280698Y-119991352D01*
X130151000Y-119904690D01*
X130151000Y-115600000D01*
X130083633Y-115261325D01*
X129891790Y-114974210D01*
X129891787Y-114974208D01*
X127791790Y-112874210D01*
X127629841Y-112766000D01*
X127504675Y-112682367D01*
X127448484Y-112671190D01*
X127166000Y-112614999D01*
X127165995Y-112615000D01*
X121520558Y-112615000D01*
X121478162Y-112389683D01*
X121339090Y-112173559D01*
X121126890Y-112028569D01*
X120875000Y-111977560D01*
X119125000Y-111977560D01*
X118889683Y-112021838D01*
X118673559Y-112160910D01*
X118536006Y-112362226D01*
X118497086Y-112323306D01*
X118382454Y-112437938D01*
X118299116Y-112184047D01*
X117734694Y-111978410D01*
X117134542Y-112004421D01*
X116700884Y-112184047D01*
X116617545Y-112437940D01*
X113237000Y-112437940D01*
X113237000Y-108265750D01*
X126994000Y-108265750D01*
X126994000Y-108981310D01*
X127090673Y-109214699D01*
X127269302Y-109393327D01*
X127502691Y-109490000D01*
X128218250Y-109490000D01*
X128377000Y-109331250D01*
X128377000Y-108107000D01*
X127152750Y-108107000D01*
X126994000Y-108265750D01*
X113237000Y-108265750D01*
X113237000Y-106978690D01*
X126994000Y-106978690D01*
X126994000Y-107694250D01*
X127152750Y-107853000D01*
X128377000Y-107853000D01*
X128377000Y-106628750D01*
X128631000Y-106628750D01*
X128631000Y-107853000D01*
X128651000Y-107853000D01*
X128651000Y-108107000D01*
X128631000Y-108107000D01*
X128631000Y-109331250D01*
X128789750Y-109490000D01*
X129505309Y-109490000D01*
X129738698Y-109393327D01*
X129917327Y-109214699D01*
X129960556Y-109110336D01*
X130006914Y-109156694D01*
X130121546Y-109042062D01*
X130204884Y-109295953D01*
X130769306Y-109501590D01*
X131369458Y-109475579D01*
X131803116Y-109295953D01*
X131886455Y-109042060D01*
X132621545Y-109042060D01*
X132704884Y-109295953D01*
X133269306Y-109501590D01*
X133869458Y-109475579D01*
X134303116Y-109295953D01*
X134386455Y-109042060D01*
X133504000Y-108159605D01*
X132621545Y-109042060D01*
X131886455Y-109042060D01*
X131004000Y-108159605D01*
X130989858Y-108173748D01*
X130810253Y-107994143D01*
X130824395Y-107980000D01*
X131183605Y-107980000D01*
X132066060Y-108862455D01*
X132254000Y-108800765D01*
X132441940Y-108862455D01*
X133324395Y-107980000D01*
X132441940Y-107097545D01*
X132254000Y-107159235D01*
X132066060Y-107097545D01*
X131183605Y-107980000D01*
X130824395Y-107980000D01*
X130810253Y-107965858D01*
X130989858Y-107786253D01*
X131004000Y-107800395D01*
X131886455Y-106917940D01*
X132621545Y-106917940D01*
X133504000Y-107800395D01*
X134386455Y-106917940D01*
X134303116Y-106664047D01*
X133738694Y-106458410D01*
X133138542Y-106484421D01*
X132704884Y-106664047D01*
X132621545Y-106917940D01*
X131886455Y-106917940D01*
X131803116Y-106664047D01*
X131238694Y-106458410D01*
X130638542Y-106484421D01*
X130204884Y-106664047D01*
X130121546Y-106917938D01*
X130006914Y-106803306D01*
X129960556Y-106849664D01*
X129917327Y-106745301D01*
X129738698Y-106566673D01*
X129505309Y-106470000D01*
X128789750Y-106470000D01*
X128631000Y-106628750D01*
X128377000Y-106628750D01*
X128218250Y-106470000D01*
X127502691Y-106470000D01*
X127269302Y-106566673D01*
X127090673Y-106745301D01*
X126994000Y-106978690D01*
X113237000Y-106978690D01*
X113237000Y-97764521D01*
X114280604Y-97764521D01*
X114627742Y-98604658D01*
X115269961Y-99247999D01*
X116109491Y-99596603D01*
X117018521Y-99597396D01*
X117858658Y-99250258D01*
X118501999Y-98608039D01*
X118850603Y-97768509D01*
X118851396Y-96859479D01*
X118504258Y-96019342D01*
X117862039Y-95376001D01*
X117022509Y-95027397D01*
X116113479Y-95026604D01*
X115273342Y-95373742D01*
X114630001Y-96015961D01*
X114281397Y-96855491D01*
X114280604Y-97764521D01*
X113237000Y-97764521D01*
X113237000Y-94097000D01*
X206483000Y-94097000D01*
X206483000Y-149343000D01*
G36*
X148254998Y-113238447D02*
X148157041Y-113192086D01*
X147935000Y-113313371D01*
X147935000Y-114457000D01*
X147955000Y-114457000D01*
X147955000Y-114711000D01*
X147935000Y-114711000D01*
X147935000Y-115854629D01*
X148157041Y-115975914D01*
X148254998Y-115929553D01*
X148254998Y-117457423D01*
X147718906Y-117993514D01*
X147719248Y-117601813D01*
X147501243Y-117074200D01*
X147097923Y-116670176D01*
X146570691Y-116451250D01*
X145999813Y-116450752D01*
X145472200Y-116668757D01*
X145068176Y-117072077D01*
X145040577Y-117138544D01*
X145037864Y-117131995D01*
X144791745Y-117057861D01*
X143963605Y-117886000D01*
X144791745Y-118714139D01*
X145037864Y-118640005D01*
X145040196Y-118633517D01*
X145066757Y-118697800D01*
X145151615Y-118782806D01*
X144327955Y-119606465D01*
X143956849Y-119680283D01*
X143491302Y-119991352D01*
X143238493Y-120369707D01*
X142890896Y-119937500D01*
X142397819Y-119667633D01*
X142315039Y-119650096D01*
X142093000Y-119772085D01*
X142093000Y-121315000D01*
X142113000Y-121315000D01*
X142113000Y-121569000D01*
X142093000Y-121569000D01*
X142093000Y-121589000D01*
X141839000Y-121589000D01*
X141839000Y-121569000D01*
X141819000Y-121569000D01*
X141819000Y-121315000D01*
X141839000Y-121315000D01*
X141839000Y-119772085D01*
X141616961Y-119650096D01*
X141534181Y-119667633D01*
X141041104Y-119937500D01*
X140693507Y-120369707D01*
X140440698Y-119991352D01*
X140311000Y-119904690D01*
X140311000Y-119268580D01*
X140685834Y-118893745D01*
X142955861Y-118893745D01*
X143029995Y-119139864D01*
X143567223Y-119332965D01*
X144137454Y-119305778D01*
X144538005Y-119139864D01*
X144612139Y-118893745D01*
X143784000Y-118065605D01*
X142955861Y-118893745D01*
X140685834Y-118893745D01*
X141910356Y-117669223D01*
X142337035Y-117669223D01*
X142364222Y-118239454D01*
X142530136Y-118640005D01*
X142776255Y-118714139D01*
X143604395Y-117886000D01*
X142776255Y-117057861D01*
X142530136Y-117131995D01*
X142337035Y-117669223D01*
X141910356Y-117669223D01*
X142701324Y-116878255D01*
X142955861Y-116878255D01*
X143784000Y-117706395D01*
X144612139Y-116878255D01*
X144538005Y-116632136D01*
X144000777Y-116439035D01*
X143430546Y-116466222D01*
X143029995Y-116632136D01*
X142955861Y-116878255D01*
X142701324Y-116878255D01*
X144646540Y-114933039D01*
X146416096Y-114933039D01*
X146576959Y-115321423D01*
X146952866Y-115736389D01*
X147458959Y-115975914D01*
X147681000Y-115854629D01*
X147681000Y-114711000D01*
X146538085Y-114711000D01*
X146416096Y-114933039D01*
X144646540Y-114933039D01*
X145344618Y-114234961D01*
X146416096Y-114234961D01*
X146538085Y-114457000D01*
X147681000Y-114457000D01*
X147681000Y-113313371D01*
X147458959Y-113192086D01*
X146952866Y-113431611D01*
X146576959Y-113846577D01*
X146416096Y-114234961D01*
X145344618Y-114234961D01*
X148179787Y-111399792D01*
X148179790Y-111399790D01*
X148254998Y-111287233D01*
X148254998Y-113238447D01*
X148254998Y-113238447D01*
G37*
X148254998Y-113238447D02*
X148157041Y-113192086D01*
X147935000Y-113313371D01*
X147935000Y-114457000D01*
X147955000Y-114457000D01*
X147955000Y-114711000D01*
X147935000Y-114711000D01*
X147935000Y-115854629D01*
X148157041Y-115975914D01*
X148254998Y-115929553D01*
X148254998Y-117457423D01*
X147718906Y-117993514D01*
X147719248Y-117601813D01*
X147501243Y-117074200D01*
X147097923Y-116670176D01*
X146570691Y-116451250D01*
X145999813Y-116450752D01*
X145472200Y-116668757D01*
X145068176Y-117072077D01*
X145040577Y-117138544D01*
X145037864Y-117131995D01*
X144791745Y-117057861D01*
X143963605Y-117886000D01*
X144791745Y-118714139D01*
X145037864Y-118640005D01*
X145040196Y-118633517D01*
X145066757Y-118697800D01*
X145151615Y-118782806D01*
X144327955Y-119606465D01*
X143956849Y-119680283D01*
X143491302Y-119991352D01*
X143238493Y-120369707D01*
X142890896Y-119937500D01*
X142397819Y-119667633D01*
X142315039Y-119650096D01*
X142093000Y-119772085D01*
X142093000Y-121315000D01*
X142113000Y-121315000D01*
X142113000Y-121569000D01*
X142093000Y-121569000D01*
X142093000Y-121589000D01*
X141839000Y-121589000D01*
X141839000Y-121569000D01*
X141819000Y-121569000D01*
X141819000Y-121315000D01*
X141839000Y-121315000D01*
X141839000Y-119772085D01*
X141616961Y-119650096D01*
X141534181Y-119667633D01*
X141041104Y-119937500D01*
X140693507Y-120369707D01*
X140440698Y-119991352D01*
X140311000Y-119904690D01*
X140311000Y-119268580D01*
X140685834Y-118893745D01*
X142955861Y-118893745D01*
X143029995Y-119139864D01*
X143567223Y-119332965D01*
X144137454Y-119305778D01*
X144538005Y-119139864D01*
X144612139Y-118893745D01*
X143784000Y-118065605D01*
X142955861Y-118893745D01*
X140685834Y-118893745D01*
X141910356Y-117669223D01*
X142337035Y-117669223D01*
X142364222Y-118239454D01*
X142530136Y-118640005D01*
X142776255Y-118714139D01*
X143604395Y-117886000D01*
X142776255Y-117057861D01*
X142530136Y-117131995D01*
X142337035Y-117669223D01*
X141910356Y-117669223D01*
X142701324Y-116878255D01*
X142955861Y-116878255D01*
X143784000Y-117706395D01*
X144612139Y-116878255D01*
X144538005Y-116632136D01*
X144000777Y-116439035D01*
X143430546Y-116466222D01*
X143029995Y-116632136D01*
X142955861Y-116878255D01*
X142701324Y-116878255D01*
X144646540Y-114933039D01*
X146416096Y-114933039D01*
X146576959Y-115321423D01*
X146952866Y-115736389D01*
X147458959Y-115975914D01*
X147681000Y-115854629D01*
X147681000Y-114711000D01*
X146538085Y-114711000D01*
X146416096Y-114933039D01*
X144646540Y-114933039D01*
X145344618Y-114234961D01*
X146416096Y-114234961D01*
X146538085Y-114457000D01*
X147681000Y-114457000D01*
X147681000Y-113313371D01*
X147458959Y-113192086D01*
X146952866Y-113431611D01*
X146576959Y-113846577D01*
X146416096Y-114234961D01*
X145344618Y-114234961D01*
X148179787Y-111399792D01*
X148179790Y-111399790D01*
X148254998Y-111287233D01*
X148254998Y-113238447D01*
M02*
