M48
;DRILL file {KiCad 4.0.7} date 07/09/18 17:43:25
;FORMAT={-:-/ absolute / metric / decimal}
FMAT,2
METRIC,TZ
T1C0.800
T2C0.900
T3C1.000
T4C1.050
T5C1.100
T6C1.200
T7C1.500
T8C1.520
%
G90
G05
M71
T1
X124.9Y-138.75
X124.9Y-141.25
X126.726Y-121.442
X126.726Y-129.062
X129.266Y-121.442
X129.266Y-129.062
X129.64Y-134.025
X131.806Y-121.442
X131.806Y-129.062
X134.346Y-121.442
X134.346Y-129.062
X136.886Y-121.442
X136.886Y-129.062
X137.648Y-114.584
X139.426Y-121.442
X139.426Y-129.062
X139.8Y-134.025
X141.966Y-121.442
X141.966Y-129.062
X143.784Y-117.886
X144.038Y-139.222
X144.506Y-121.442
X144.506Y-129.062
X146.284Y-117.886
X146.538Y-139.222
X146.64Y-134.61
X147.046Y-121.442
X147.046Y-129.062
X147.554Y-105.948
X147.808Y-114.584
X147.808Y-142.778
X149.118Y-139.222
X149.586Y-121.442
X149.586Y-129.062
X151.52Y-134.61
X151.618Y-139.222
X152.126Y-121.442
X152.126Y-129.062
X154.666Y-121.442
X154.666Y-129.062
X154.96Y-139.222
X157.206Y-121.442
X157.206Y-129.062
X157.46Y-139.222
X157.714Y-105.948
X157.968Y-142.778
X159.746Y-121.442
X159.746Y-129.062
X168.89Y-133.9
X168.89Y-141.
X180.574Y-131.094
X182.574Y-131.094
X183.876Y-135.92
X183.876Y-137.92
X186.162Y-123.474
X188.448Y-126.776
X188.448Y-136.936
X188.662Y-123.474
X192.004Y-98.836
X193.02Y-128.3
X193.02Y-130.84
X193.02Y-133.38
X194.504Y-98.836
X195.306Y-137.444
X195.306Y-139.944
T2
X142.728Y-143.286
X145.268Y-143.286
T3
X128.504Y-107.98
X129.365Y-139.95
X131.004Y-107.98
X131.905Y-139.95
X133.504Y-107.98
X134.445Y-139.95
X136.004Y-107.98
X136.985Y-139.95
X138.504Y-107.98
X139.525Y-139.95
X141.004Y-107.98
X166.096Y-115.6
X166.096Y-123.474
X168.596Y-115.6
X168.596Y-123.474
X171.096Y-115.6
X171.096Y-123.474
X173.596Y-115.6
X173.596Y-123.474
X176.096Y-115.6
X176.096Y-123.474
X178.596Y-115.6
X178.596Y-123.474
X184.442Y-141.
X186.142Y-144.7
X187.842Y-141.
X189.542Y-144.7
X191.242Y-141.
X197.448Y-124.92
X197.448Y-128.32
X201.148Y-123.22
X201.148Y-126.62
X201.148Y-130.02
T4
X117.5Y-113.5
X117.5Y-122.
X117.5Y-130.5
X120.Y-113.5
X120.Y-122.
X120.Y-130.5
T5
X116.13Y-135.412
X116.13Y-141.912
X120.63Y-135.412
X120.63Y-141.912
T6
X154.412Y-110.012
X154.412Y-115.012
X159.452Y-112.512
X163.556Y-145.318
X178.796Y-145.318
X187.432Y-103.662
X192.258Y-114.076
X197.258Y-114.076
X200.132Y-103.662
T7
X174.732Y-98.074
X174.732Y-110.274
T8
X122.916Y-99.852
X127.996Y-99.852
X133.076Y-99.852
X138.156Y-99.852
X143.236Y-99.852
X148.316Y-99.852
X153.65Y-99.852
X158.73Y-99.852
X201.91Y-134.904
X201.91Y-139.984
T0
M30
